<svg width="200" height="27" viewBox="0 0 200 27" fill="none" xmlns="http://www.w3.org/2000/svg">
    <path d="M144.574 14.7071C144.643 14.796 144.706 14.9294 144.782 14.9628C144.859 14.9961 145.117 15.0517 145.325 15.1073C145.325 15.0517 145.395 14.8849 145.458 14.6515L145.806 14.9628C146.203 14.5514 146.676 14.7627 147.135 14.7071C147.595 14.6515 148.013 14.3291 148.444 14.2847C149.14 14.2068 149.836 13.8845 150.533 13.7066C151.137 13.6635 151.735 13.4839 152.308 13.173C152.32 13.1648 152.333 13.1605 152.346 13.1605C152.359 13.1605 152.372 13.1648 152.384 13.173C153.011 13.3731 153.596 12.7172 154.236 12.9396L154.333 12.4504H154.445C154.533 12.5201 154.627 12.5688 154.723 12.5949C154.876 12.5949 155.134 12.6728 155.176 12.5949C155.343 12.0836 155.781 12.7395 155.872 12.1169C156.199 12.0391 156.568 12.2837 156.86 11.9502C157.153 11.6167 157.494 12.0947 157.724 11.6056C158.313 11.5888 158.9 11.4883 159.478 11.3054L159.763 10.8385L159.93 11.0831C160.601 10.7109 161.309 10.5413 162.019 10.5829L162.235 10.0493C163.007 9.96035 163.787 9.93812 164.553 9.77137C164.942 9.62377 165.319 9.4114 165.68 9.13773C166.446 9.36006 167.17 8.68196 167.929 8.74865L168.214 8.28176C168.785 8.94875 169.314 7.93715 169.857 8.28176C169.906 8.04832 169.941 7.89269 169.969 7.73706L170.665 8.07055C170.707 7.85934 170.741 7.70371 170.776 7.54808C170.884 7.67714 171.014 7.75321 171.148 7.76703C171.283 7.78084 171.417 7.73181 171.535 7.62589L171.25 7.21458C171.413 7.21473 171.576 7.23704 171.737 7.28128C171.888 7.34945 172.034 7.43873 172.175 7.54808C172.224 7.32575 172.252 7.18123 172.294 7.00337C172.99 7.63701 173.609 6.58094 174.382 6.91444L174.229 6.25857C174.501 6.25857 174.501 6.25857 174.765 6.65876C174.765 6.65876 174.814 6.59206 174.821 6.55871C174.824 6.44392 174.824 6.3289 174.821 6.2141C174.943 6.29901 175.068 6.3696 175.197 6.42531C175.317 6.44205 175.438 6.44205 175.559 6.42531C175.559 6.33638 175.607 6.30303 175.6 6.2808C175.593 6.25857 175.566 6.2141 175.552 6.18075C175.513 6.09631 175.478 6.0071 175.447 5.91396H176.123L176.234 6.12517L176.283 6.04735C176.243 5.98251 176.199 5.92642 176.15 5.88061C176.297 5.536 176.457 5.536 176.624 5.88061L176.491 6.06959L176.547 6.1474C176.582 6.07595 176.615 6.00174 176.645 5.92507H177.055C177.055 5.78056 177.111 5.63605 177.16 5.41372C177.389 5.41372 177.612 5.71386 177.912 5.41372C177.912 5.48041 177.912 5.3359 177.974 5.15804C178.03 5.24697 178.086 5.31367 178.169 5.42483L178.392 4.92459C178.636 4.92459 178.851 4.75784 179.088 5.06911C179.325 5.38037 179.443 4.92459 179.45 4.93571C179.617 5.39148 179.742 4.83566 179.889 4.93571C180.069 4.97982 180.252 4.97982 180.432 4.93571C180.432 4.93571 180.466 4.80231 180.487 4.7245H181.441L180.94 4.33542C181.06 4.23027 181.196 4.18368 181.332 4.20147C181.468 4.21926 181.598 4.30064 181.706 4.43547C181.74 4.27984 181.775 4.12421 181.831 3.90188L182.123 4.12421L182.555 3.94634L182.611 4.16867L182.715 3.94634L183.279 3.30159C183.348 3.56838 183.411 3.8463 183.481 4.12421L183.829 3.43499C183.848 3.5035 183.864 3.57408 183.878 3.6462C183.919 3.5795 183.954 3.50168 183.989 3.43499L184.323 3.14596L184.476 3.33494C184.511 3.17931 184.546 3.03479 184.595 2.80135L185.291 3.00144C185.291 2.89028 185.346 2.73465 185.395 2.52344L185.743 2.81246C185.743 2.7013 185.799 2.54567 185.841 2.35669H186.384C186.413 2.47293 186.439 2.59168 186.46 2.71242C186.711 2.71242 186.947 2.64572 187.156 2.5679C187.233 2.5679 187.296 2.41227 187.365 2.32334H187.623C187.623 2.17883 187.678 2.03431 187.734 1.76752L188.869 2.10101C188.869 1.57854 189.196 1.54519 189.377 1.27839C189.377 1.43402 189.44 1.58965 189.488 1.80087L189.906 1.21169L190.08 1.5563L189.955 1.73417L190.003 1.81198C190.042 1.74268 190.077 1.6683 190.108 1.58965H190.616L190.407 1.16723L190.672 1.04495C190.714 1.23393 190.748 1.37844 190.769 1.50072C190.957 1.44514 191.145 1.40067 191.326 1.32286C191.507 1.24504 191.465 1.15611 191.528 1.06718L191.793 0.822618C192.238 1.23393 192.739 1.0116 193.338 1.08941L193.053 0.444658L193.679 0.72257H194.494C194.494 0.600289 194.549 0.455775 194.584 0.277912C194.96 0.644755 195.364 0.400193 195.74 0.489124L196.039 0L196.505 0.389076C197.012 0.208633 197.532 0.141293 198.051 0.18898C198.016 0.455775 197.981 0.655871 197.939 0.922666L198.107 1.21169L198.399 0.978249L198.712 1.26728L199.13 0.933783C199.172 1.10053 199.192 1.21169 199.241 1.43402L198.204 1.57854L199.005 2.20106L199.137 2.0232L199.234 2.40116L198.761 2.74577L199.77 2.82358C199.847 2.95698 199.923 3.06814 200 3.19042L199.763 3.5795C199.508 3.65207 199.246 3.65207 198.991 3.5795C198.74 3.43499 198.545 4.12421 198.294 3.5795C198.093 4.00193 197.807 3.79071 197.598 3.82406C197.334 3.7961 197.069 3.7961 196.805 3.82406C195.928 4.11309 195.023 4.11309 194.152 4.36877C193.773 4.41265 193.397 4.49807 193.025 4.62445C192.67 4.81343 192.329 4.70226 191.981 4.86901C191.361 5.2025 190.672 5.01352 190.087 5.56935C190.014 5.60331 189.937 5.60331 189.864 5.56935C188.987 5.50265 188.166 6.13629 187.289 6.09182C186.495 6.74769 185.569 6.50313 184.762 7.10342C184.473 7.2342 184.177 7.31251 183.878 7.33686C183.411 7.49249 182.945 7.70371 182.485 7.80376C182.026 7.9038 181.525 8.04832 181.093 8.21506C180.661 8.38181 180.265 8.43739 179.861 8.64861C179.457 8.85982 178.991 8.74866 178.587 8.95987C177.703 9.42676 176.777 9.50457 175.893 9.927C175.524 10.0937 175.092 10.116 174.695 10.2271C174.294 10.2525 173.897 10.3763 173.519 10.594C173.15 10.9497 172.711 10.3828 172.426 11.0053C172.045 11.0286 171.665 11.103 171.291 11.2276C170.748 11.3721 170.212 11.55 169.676 11.7612C169.275 11.8732 168.871 11.9511 168.465 11.9947C167.658 12.1392 166.857 12.406 166.063 12.6061C165.096 12.8617 164.121 13.0952 163.154 13.3398C162.771 13.8733 162.269 13.462 161.838 13.8178C161.406 14.1735 160.94 13.8178 160.578 14.1624C160.216 14.507 159.687 14.2513 159.248 14.5848C158.807 14.7691 158.354 14.8772 157.898 14.9072C157.257 15.1184 156.61 15.274 155.962 15.463C155.584 15.4797 155.209 15.5617 154.842 15.7076C154.473 15.8729 154.09 15.9479 153.707 15.9299C153.435 15.9299 153.164 16.1189 152.892 16.1744C152.621 16.23 152.391 16.1744 152.155 16.4301C152.078 16.5302 151.897 16.4301 151.765 16.4301C151.46 16.3929 151.155 16.473 150.874 16.6636C150.616 16.8859 150.247 16.4635 149.983 16.9415C149.983 16.9415 149.885 16.9415 149.829 16.9415C149.158 16.9344 148.488 17.0162 147.825 17.186C147.165 17.2973 146.5 17.2973 145.841 17.186C144.884 17.1091 143.936 16.863 143.014 16.4524C142.464 16.0855 141.914 15.752 141.364 15.4074C140.89 15.2019 140.425 14.9456 139.972 14.6404C139.93 14.6404 139.854 14.6404 139.819 14.6404C139.221 14.0704 138.559 13.6927 137.87 13.5287C137.64 13.4398 137.417 13.4398 137.174 13.362C136.93 13.2842 136.742 13.1508 136.519 13.1063C135.935 13.0063 135.35 12.8951 134.758 12.8506C134.166 12.8062 133.54 12.8506 132.927 12.8506C131.918 12.8506 130.908 12.8506 129.906 12.8506C128.702 12.7839 127.518 13.3064 126.307 13.1174C125.611 13.5398 124.915 13.1952 124.219 13.4065C123.522 13.6177 123.028 13.4843 122.45 13.6732C121.995 13.7216 121.542 13.807 121.093 13.9289C120.62 14.1846 120.146 13.9289 119.701 14.1846C119.093 14.3722 118.474 14.4505 117.856 14.418C117.511 14.5573 117.159 14.6466 116.805 14.6848C116.448 14.555 116.074 14.6381 115.754 14.9183C115.754 14.9183 115.705 14.9183 115.677 14.9183C114.932 14.9961 114.18 15.0739 113.435 15.1851C113.136 15.1851 112.844 15.3741 112.544 15.4185C112.242 15.4592 111.941 15.5373 111.646 15.652C111.072 15.8687 110.482 15.9585 109.892 15.9188C109.537 15.9188 109.252 16.1967 108.924 16.2189C108.597 16.2411 108.298 16.0522 108.026 16.4524C107.985 16.5191 107.873 16.4524 107.797 16.4524C107.439 16.4028 107.078 16.4748 106.739 16.6636C106.474 16.897 106.098 16.6636 105.771 16.9304C105.583 17.0971 105.298 16.9304 105.075 16.9304C104.853 16.9842 104.634 17.066 104.42 17.1749C103.73 17.3459 103.046 17.5835 102.374 17.8864C102.026 18.1087 101.636 17.9864 101.253 18.1754C100.188 18.6979 99.0672 18.898 98.009 19.4872C97.7306 19.6317 97.4173 19.5427 97.111 19.7317C96.8047 19.9207 96.2966 19.7317 96.0111 20.0763C95.7257 20.4209 95.2593 19.9652 95.0157 20.5432C94.424 20.332 93.9575 21.0323 93.3937 21.0657C92.8298 21.099 92.3355 21.5326 91.7786 21.6104C91.2217 21.6882 90.7901 22.1218 90.2819 22.2663C89.7738 22.4108 89.2099 22.7332 88.6808 22.8221C88.1518 22.911 87.5809 23.3335 87.0101 23.5113C86.4393 23.6892 85.7988 23.9226 85.1932 24.1561C84.7002 24.2866 84.2121 24.461 83.7313 24.6785C83.4764 24.8561 83.2019 24.9506 82.9238 24.9565C82.6853 24.9812 82.4506 25.0637 82.2276 25.201C81.5315 25.5901 80.7518 25.5901 80.0278 25.9569C79.6728 26.1348 79.2899 25.9569 78.9001 26.1904C78.3285 26.4327 77.7361 26.5265 77.1458 26.4683C76.6864 26.4683 76.2966 26.7796 75.858 26.7573C75.4105 26.6458 74.9549 26.6458 74.5075 26.7573C73.7125 26.9771 72.9041 27.048 72.0989 26.9685C71.8691 26.9685 71.6255 26.7907 71.4027 26.8463C71.18 26.9018 70.9293 26.6684 70.7066 26.7129C70.4169 26.7462 70.1261 26.7462 69.8364 26.7129C69.7459 26.7129 69.6624 26.5461 69.551 26.4349C69.1403 27.1019 68.7017 26.5572 68.3049 26.3571C68.0473 26.2348 67.8872 26.1348 67.755 26.3571L66.3627 26.0125L66.2513 26.157L65.7431 25.7235L65.6248 25.8902C65.4786 25.8124 65.3324 25.5012 65.1375 25.8902C65.0888 25.9792 64.8312 25.7902 64.6711 25.7013C64.0777 25.5846 63.4941 25.3647 62.9307 25.0454C62.6062 24.8892 62.2656 24.8364 61.9283 24.8898C61.3081 24.2601 60.5677 24.0039 59.8399 24.1672C59.7912 23.9449 59.7564 23.8003 59.7285 23.6558C59.638 23.7114 59.5475 23.8337 59.4918 23.8003C59.104 23.6615 58.7294 23.441 58.378 23.1445C58.2179 22.9666 57.9116 23.1445 57.6819 23.1445C56.7271 22.4946 55.7149 22.0859 54.6815 21.9328C54.6815 21.9328 54.6815 21.8327 54.6815 21.6882C54.4448 21.3658 54.055 21.8661 53.8322 21.3436C53.5816 21.9884 53.3449 21.1657 53.0943 21.3436C52.8437 21.5215 52.5305 21.3436 52.2659 21.2436C52.0014 21.1435 51.7369 21.1102 51.4654 21.0879C51.1939 21.0657 50.8388 21.2102 50.5465 20.7989L50.3167 21.0768L50.2054 20.8989C49.9094 20.9879 49.6072 21.0104 49.3073 20.9656C49.2099 20.9656 49.1194 20.7767 48.9732 20.9656C48.827 21.1546 48.7226 20.9656 48.653 21.0212C48.465 21.2547 48.3745 20.9212 48.2562 20.9101C47.9527 20.7782 47.6297 20.8215 47.3442 21.0323C47.2307 21.126 47.1002 21.1535 46.9753 21.1102C46.7316 21.1102 46.4393 20.7767 46.2792 20.9101C46.0177 21.0717 45.7378 21.1437 45.4577 21.1213C45.1932 21.1213 44.9217 21.1213 44.6641 21.1213C44.4065 21.1213 43.968 21.3103 43.6129 21.3658C43.2579 21.4214 42.9168 21.2547 42.6384 21.6215C42.5687 21.6993 42.4295 21.6215 42.3251 21.6215C41.9979 21.6882 41.629 21.4548 41.3366 21.7883C41.0442 22.1218 40.6961 21.6104 40.4594 22.1329C40.4594 22.1885 40.3133 22.1329 40.2297 22.1329C39.6133 22.1503 38.9987 22.247 38.3919 22.4219C38.0091 22.5775 37.6123 22.4997 37.2642 22.6776C36.9161 22.8554 36.4845 22.7443 36.1434 22.9444C35.8023 23.1445 35.2802 22.9444 34.9391 23.2112C34.598 23.478 34.1525 23.2112 33.8044 23.4446C33.2703 23.6709 32.7255 23.8271 32.1754 23.9115C31.6192 23.9728 31.0609 23.9728 30.5047 23.9115C30.2054 23.9115 29.9408 24.2895 29.6206 24.1672C29.4257 24.1005 29.2029 24.2895 29.0289 23.956C28.9844 23.915 28.934 23.8934 28.8827 23.8934C28.8314 23.8934 28.781 23.915 28.7365 23.956C28.3954 24.4896 28.0404 24.1227 27.748 23.956C27.4387 23.7723 27.1102 23.6855 26.7804 23.7003C26.5988 23.6848 26.419 23.6363 26.2443 23.5558L25.9937 23.9671C25.945 23.7892 25.8963 23.6336 25.8406 23.4557L25.6666 23.7114L25.3811 23.2223L25.1584 23.4557C24.7332 23.1209 24.3195 22.7498 23.9193 22.3441C23.5364 21.955 23.2231 21.4659 22.7915 20.9768L22.2903 19.5872L22.3947 19.4205L21.9353 18.3088C21.9609 17.3504 21.9306 16.3902 21.8448 15.4408L21.9283 15.2963L21.7473 14.9739L22.0606 13.9956C21.7821 13.7177 21.991 13.4065 22.0606 13.1174C22.0049 12.8729 21.9561 12.6283 21.8517 12.1614L22.1719 12.6172C22.4982 11.2871 22.6772 9.87652 22.701 8.44851L22.8333 8.35958L22.701 8.18172V7.01449L21.803 5.90284C21.5037 5.81391 21.1069 6.01401 20.7518 5.64716C20.6923 5.60013 20.6268 5.57566 20.5604 5.57566C20.494 5.57566 20.4285 5.60013 20.369 5.64716C19.8735 5.88866 19.3531 5.97177 18.8375 5.89172C18.4397 5.96578 18.0447 6.07339 17.654 6.2141C16.9997 6.46978 16.3522 6.73657 15.6909 6.93667C15.3545 7.05822 15.0259 7.22941 14.7094 7.44803C14.0132 7.84822 13.3171 8.02608 12.6627 8.47074C12.1894 8.782 11.6672 8.9154 11.2008 9.27113C10.7344 9.62685 10.2332 9.81583 9.76679 10.1938C9.30038 10.5718 8.68778 10.7274 8.16568 11.072C7.12217 11.8298 6.03899 12.4399 4.92865 12.8951C4.46235 13.4332 3.93148 13.8116 3.3693 14.0067C3.14654 14.1401 2.92377 14.129 2.71493 14.2402C2.0188 14.6293 1.32266 14.0179 0.577793 14.2402C0.382875 13.7733 0.194918 13.3398 0 12.8284L0.10442 12.6616L0.536025 13.2175L0.779673 12.9173L0.953707 13.1619L1.16951 12.6394L1.44796 12.8951L1.48973 12.3837H2.18587C2.60355 11.5611 3.39018 11.7723 3.75218 10.8385H4.26732C4.35781 10.6718 4.44831 10.4717 4.54577 10.2716L4.75461 10.5829C4.78942 10.4161 4.82423 10.2716 4.85207 10.1493C5.41822 9.86248 5.966 9.49025 6.48799 9.03768C6.9684 8.63668 7.48154 8.34483 8.01253 8.1706L8.12391 8.38181L8.17264 8.304C8.13167 8.24238 8.08742 8.18658 8.04038 8.13725C8.12391 7.64813 8.47198 8.00385 8.65298 7.65924C8.83397 7.31463 9.05674 7.43691 9.25862 7.31463C9.7847 6.91183 10.3322 6.58446 10.8945 6.33638C10.9101 6.41233 10.9287 6.48659 10.9502 6.55871L11.0546 6.33638L11.4793 5.82503L12.0989 6.12517L11.7995 5.59158C12.1406 5.59158 12.44 5.38037 12.7115 5.78056L13.0874 5.55823L12.9481 5.1358C13.1079 5.15853 13.2687 5.15853 13.4285 5.1358C13.5442 5.06931 13.6541 4.97966 13.7557 4.86901L14.055 5.14692L14.6189 4.34654C14.9809 4.5244 15.315 4.98017 15.5726 4.34654L16.1852 4.23537L16.0111 3.7129C15.8561 3.9239 15.7096 4.15039 15.5726 4.391C15.4125 4.33542 15.5099 4.03528 15.489 3.83518C15.7257 3.50169 16.0111 3.59062 16.2826 3.5795V4.04639L16.7421 4.11309V3.46834L17.2155 3.06814C17.7877 3.0543 18.3555 2.90444 18.9001 2.62348C19.0393 2.67907 19.1855 2.8347 19.3178 2.79023C19.9194 2.50126 20.5609 2.50126 21.1625 2.79023C21.3938 2.83296 21.6274 2.83296 21.8587 2.79023C22.4002 2.84355 22.9321 3.04275 23.432 3.3794C23.422 3.55691 23.422 3.73549 23.432 3.91299C23.3046 3.78034 23.1877 3.62357 23.0839 3.4461C23.0839 3.79071 23.0839 3.93523 23.1257 4.12421C23.2363 4.09096 23.3409 4.01881 23.432 3.91299C23.5364 3.91299 23.7174 3.70178 23.7383 4.10197L23.606 4.27984L23.6686 4.33542C23.7091 4.26858 23.7442 4.19388 23.7731 4.11309C23.8148 4.11309 23.8844 4.11309 23.9193 4.11309L25.0609 5.39148H24.5806C24.692 5.81391 24.8382 5.95842 25.0609 5.91396C25.1166 5.99177 25.1653 6.0807 25.228 6.15852L25.3394 6.36973L25.3951 6.29192C25.3521 6.22932 25.3055 6.17348 25.2558 6.12517C25.1932 6.04735 25.1444 5.95842 25.0888 5.88061V5.39148H25.4856C25.7501 6.30303 25.7501 6.30303 25.5482 6.99225C25.7988 7.30351 25.6944 7.78152 25.7292 8.22618C25.7756 8.60112 25.8337 8.97213 25.9032 9.33783L25.5969 9.83807C25.6805 10.1827 25.8684 10.5495 25.5969 10.8941C25.8197 11.172 25.5969 11.4277 25.5969 11.6834C25.5501 11.9922 25.4799 12.2908 25.3881 12.5727C25.3046 12.9729 25.1375 13.3509 25.2628 13.8178L24.9843 14.2735L25.0679 14.4514C24.9611 15.236 24.9329 16.0427 24.9843 16.8414C25.0609 17.6863 25.4647 17.9531 25.4647 18.609C25.4848 18.7527 25.5272 18.8861 25.588 18.9968C25.6488 19.1075 25.7261 19.1921 25.8127 19.2426C26.119 19.376 26.1051 19.8318 26.2513 20.1208L26.119 20.2987L26.1678 20.3765C26.2101 20.3122 26.2454 20.2371 26.2722 20.1541L26.5298 19.9429C26.6829 20.0652 26.7873 20.4876 27.1006 20.4432C27.4139 20.3987 27.5531 20.71 27.7967 20.8767L27.9151 20.6989C28.1861 20.7945 28.4604 20.8651 28.7365 20.9101C29.2003 20.9471 29.665 20.9471 30.1288 20.9101C30.5047 20.9101 30.8806 20.7544 31.2565 20.6655C31.6324 20.5766 31.9875 20.8767 32.3147 20.4765C32.6766 20.81 33.0108 20.4765 33.331 20.2987C33.685 20.1992 34.0436 20.1472 34.4031 20.143C34.566 20.0675 34.7263 19.9785 34.8834 19.8762C35.0105 20.1395 35.1633 20.3685 35.3359 20.5543C35.4194 20.5543 35.3916 20.4098 35.3359 20.4098C35.2802 20.4098 35.1897 20.4876 35.1131 20.521C35.2106 20.521 35.308 20.6099 35.308 20.521C35.1131 20.2431 35.1131 20.1097 35.1131 19.9874L36.9857 19.3982C36.9857 19.3982 37.0553 19.4983 37.1041 19.5872C37.1667 19.4983 37.2224 19.3426 37.2851 19.3426C38.3362 19.3426 39.3735 18.6979 40.4107 18.8313C40.4734 18.8313 40.536 18.9647 40.5987 19.0425C40.8841 18.6757 41.1486 18.2088 41.5872 18.3199L41.6847 18.7535H42.5966V18.609L41.7682 18.5423C42.5228 18.083 43.3435 17.975 44.1351 18.231L44.4135 17.7863H46.1678C46.2235 17.7863 46.2792 17.6307 46.2931 17.6085C46.5218 17.7045 46.7544 17.7751 46.9892 17.8197C47.212 17.8197 47.4417 17.6863 47.6853 17.6863C47.929 17.6863 48.103 17.7975 48.3119 17.8197C48.5435 17.8511 48.7764 17.8511 49.008 17.8197C50.2067 17.7542 51.4066 17.8621 52.5931 18.1421C53.6492 18.1644 54.6941 18.492 55.677 19.1092C55.858 19.2426 56.0808 18.998 56.2757 19.2759C56.4706 19.5539 56.7351 19.6873 56.7908 19.5872C57.0275 19.2092 57.1389 19.7095 57.306 19.7095C57.4967 19.7805 57.6797 19.8966 57.8489 20.0541C58.2875 20.3209 58.7957 20.2208 59.2412 20.6766C59.9374 20.6766 60.5082 21.3436 61.1695 21.5326C61.5315 21.6326 61.8656 21.8883 62.2485 21.9772C62.7637 22.0276 63.2622 22.2878 63.6965 22.7332C63.98 22.7772 64.2615 22.8515 64.5388 22.9555C65.1138 23.2429 65.7067 23.4293 66.307 23.5113C66.6625 23.5211 67.0157 23.6032 67.3582 23.7559C67.6575 23.9449 68.0543 23.5891 68.3258 24.0338C68.3676 24.1005 68.4789 24.0338 68.5625 24.0338C69.2586 24.1116 69.9548 24.2339 70.6509 24.2784C71.347 24.3228 72.0432 24.2784 72.7393 24.2784C72.9133 24.2784 73.1152 24.1783 73.2336 24.5007C73.3867 24.1783 73.512 24.5007 73.7139 24.5007H73.6373L73.7 25.0009H73.8044C73.8048 24.8273 73.7733 24.6572 73.7139 24.5118C73.7139 24.4229 73.7139 24.2672 73.7765 24.2672C74.0828 24.2672 74.3961 24.2672 74.7651 24.2672L75.0505 24.9342L75.2454 24.5229H75.489C75.5378 24.3562 75.5865 24.1783 75.6561 23.956L75.7605 24.4562C76.1504 24.6897 76.5472 24.3895 76.9927 24.3673V24.0116C77.1041 24.0894 77.2224 24.2672 77.3268 24.245C77.8565 24.2031 78.3817 24.0689 78.8932 23.8448C79.1159 23.7225 79.1925 23.9782 79.3387 23.9449C79.4849 23.9115 79.6241 23.7781 79.7633 23.7559C79.913 23.7309 80.0559 23.6439 80.1781 23.5035C80.3002 23.3631 80.3972 23.1742 80.4595 22.9555L80.5708 23.478L80.7588 23.2445L81.3923 23.5558C81.434 23.3668 81.4688 23.2334 81.5245 22.9666C81.6081 22.9666 81.7612 23.0444 81.8448 22.9666C81.9283 22.8888 82.0675 22.6887 82.2068 22.9666C82.2068 22.9666 82.4226 22.7554 82.5339 22.7554C82.6548 22.7975 82.7702 22.8727 82.875 22.9777L83.5016 22.6553C83.5016 22.5219 83.5642 22.3774 83.5851 22.2663C83.9262 22.0662 84.2812 22.4886 84.5736 21.9661C84.7477 22.3441 84.9913 22.1996 85.2698 22.2107L85.4856 21.666L85.6805 21.9884C85.764 21.7771 85.8475 21.577 85.945 21.3547C86.0972 21.4545 86.2529 21.5399 86.4114 21.6104C86.5793 21.6637 86.749 21.7008 86.9196 21.7216L86.676 21.2547L88.4233 20.7655L88.6182 20.9879C88.7644 20.7878 88.8966 20.5988 89.0567 20.3542C89.1306 20.4509 89.2098 20.5364 89.2934 20.6099C89.4187 20.6989 89.544 20.7322 89.5649 20.3987C89.739 20.3987 89.9269 20.5099 90.0801 20.232C90.0801 20.232 90.2262 20.3209 90.3028 20.3765L90.4281 19.8429L90.8736 20.1764L91.2496 19.6206C91.7055 19.6278 92.1606 19.557 92.607 19.4093C93.0604 19.3003 93.4891 19.0096 93.8531 18.5645L94.5493 18.9091C94.591 18.7201 94.6258 18.5645 94.6606 18.3755H95.5587L96.2548 17.7863L96.4915 18.0865L96.7282 17.4862L96.8952 17.7419C97.2642 17.3973 97.6819 17.6418 97.9951 17.5529C98.4216 17.1442 98.895 16.8759 99.3874 16.7636C99.6574 16.6943 99.923 16.5864 100.181 16.4412C100.235 16.4052 100.291 16.3791 100.348 16.3634C100.515 16.3634 100.675 16.3634 100.842 16.3634C100.842 16.3634 100.877 16.419 100.94 16.5191L101.1 15.9966L101.726 16.2856C101.768 16.0744 101.803 15.9299 101.852 15.7187L102.012 15.9188C102.673 15.7631 103.335 15.563 104.01 15.4185C104.715 15.3048 105.413 15.1003 106.098 14.8071C106.293 14.7071 106.467 15.2407 106.676 14.7404C106.759 14.5403 107.17 14.7404 107.33 14.5848C107.43 14.4712 107.546 14.3994 107.668 14.3761C107.789 14.3528 107.913 14.3787 108.026 14.4514C108.291 14.5959 108.402 13.9067 108.66 14.2513C108.918 14.5959 109.029 13.9956 109.273 14.129C109.367 14.212 109.476 14.2397 109.582 14.2072C109.687 14.1747 109.782 14.0841 109.85 13.9512C110.052 14.3069 110.219 13.7733 110.421 13.8845C110.491 13.8845 110.595 13.7511 110.686 13.6732L110.881 13.9623L111.298 13.4509C111.514 13.7955 111.772 13.4509 111.994 13.4509C112.217 13.4509 112.44 13.2286 112.691 13.3064C112.978 13.3898 113.273 13.3898 113.561 13.3064C113.822 13.1638 114.093 13.0778 114.368 13.0507C114.637 13.0515 114.906 13.0068 115.169 12.9173C115.396 12.8236 115.63 12.7787 115.865 12.7839C116.001 12.8609 116.147 12.8768 116.289 12.8297C116.43 12.7827 116.56 12.6745 116.666 12.5171L117.069 12.8951L117.32 12.1614C117.466 12.7728 117.654 12.217 117.828 12.4393C118.011 12.588 118.223 12.6198 118.42 12.5283C118.58 12.5283 118.74 12.4616 118.893 12.406C119.089 12.294 119.276 12.1447 119.45 11.9613C119.923 12.5949 120.327 12.0836 120.801 11.7612C121.267 12.4838 121.685 11.6723 122.276 11.6945C122.221 11.6945 122.186 11.5834 122.276 11.6945L123.453 11.839C123.495 11.6612 123.529 11.5055 123.557 11.361C124.1 11.5678 124.66 11.6205 125.214 11.5167C125.388 11.1165 125.653 11.3054 125.868 11.2832C126.265 11.2832 126.669 11.2832 127.066 11.2832C127.463 11.2832 127.922 11.1276 128.354 11.0275C128.785 10.9275 129.245 11.2832 129.641 10.7941C129.76 11.0386 129.871 11.0164 129.983 10.7941C130.296 11.3054 130.679 10.8941 131.027 11.0498C131.375 11.2054 131.619 10.7385 131.918 10.9831C132.189 10.4161 132.398 11.1387 132.677 11.0831C133.31 10.9497 133.951 11.0831 134.584 11.0831C135.092 11.0868 135.596 11.2297 136.074 11.5055C136.297 11.6167 136.304 11.1053 136.491 11.2943L136.756 11.9057L137.055 11.6167L137.271 12.1392L137.48 11.8501L139.805 13.1063C140.118 12.695 140.202 13.4509 140.459 13.462C140.721 13.5424 140.976 13.673 141.218 13.8511C141.56 14.1016 141.936 14.2123 142.311 14.1735C142.543 14.4944 142.819 14.7231 143.116 14.841C143.414 14.9588 143.725 14.9625 144.024 14.8516C143.362 14.5737 142.84 14.3625 142.311 14.1735C142.311 13.6621 141.977 13.9845 141.817 13.84C140.938 13.2056 140.033 12.667 139.109 12.2281C138.932 12.1766 138.753 12.1542 138.573 12.1614C138.496 12.1614 138.441 11.9947 138.371 11.9057L138.65 11.6389C139.387 12.0725 140.146 12.5171 140.905 12.9396C141.664 13.362 142.297 13.5954 142.924 14.0512C143.109 14.1724 143.308 14.2329 143.509 14.2291C143.647 14.2311 143.781 14.2987 143.896 14.4235C144.01 14.5482 144.098 14.7243 144.149 14.9294C144.295 14.8738 144.441 14.8182 144.574 14.7515V14.7071ZM23.1396 16.2634L23.2718 16.1744C23.2274 16.116 23.1782 16.0674 23.1257 16.0299L23.0143 15.8076L22.9655 15.8965C23.0073 15.9634 23.057 16.0163 23.1117 16.0522C23.1056 16.1445 23.1056 16.2377 23.1117 16.3301C23.1088 16.3119 23.1088 16.2927 23.1117 16.2745L22.9795 16.4635C22.9939 16.4921 23.0102 16.5182 23.0282 16.5413C23.0685 16.4726 23.1014 16.3937 23.1257 16.3078L23.1396 16.2634ZM23.1257 15.1962L23.237 15.4074C23.255 15.3843 23.2713 15.3583 23.2858 15.3296C23.2472 15.2556 23.1924 15.2079 23.1326 15.1962C23.1326 15.1184 23.056 15.0517 23.0212 14.985C23.0033 15.0081 22.9869 15.0341 22.9725 15.0628C23.0127 15.1393 23.0703 15.1873 23.1326 15.1962H23.1257ZM56.3871 19.8651C56.3871 19.9318 56.4567 20.0096 56.4984 20.0763L56.5472 19.9985C56.3855 19.8066 56.2073 19.6531 56.0181 19.5427C56.1225 19.7428 56.1573 19.8429 56.1782 19.8318C56.2551 19.8101 56.33 19.7727 56.401 19.7206C56.3035 19.7206 56.213 19.6317 56.401 19.8206L56.3871 19.8651ZM23.4528 19.8206L23.5642 20.0319L23.599 20.0096C23.559 19.9394 23.5088 19.8859 23.4528 19.854C23.4528 19.6539 23.5364 19.3538 23.2927 19.3315C23.237 19.087 23.4459 18.6868 23.0073 18.6979C23.1465 18.4422 23.2162 18.2977 23.2718 18.1865L22.9725 17.3194C22.9428 17.7644 23.0039 18.2127 23.1465 18.5978C23.2022 18.8535 22.9934 19.2426 23.2997 19.3649C23.2997 19.565 23.2231 19.8651 23.4737 19.8651L23.4528 19.8206ZM49.551 18.6201V18.5645L49.4396 18.3533L49.3909 18.4422C49.5568 18.6295 49.7369 18.7827 49.9269 18.898C49.8155 18.6868 49.7807 18.5978 49.7598 18.5978C49.6843 18.6282 49.61 18.6653 49.5371 18.709C49.6345 18.709 49.732 18.7979 49.5371 18.6201H49.551ZM48.6112 18.5645V18.6201L48.7226 18.8313L48.7783 18.7424C48.6068 18.5632 48.425 18.4106 48.2353 18.2866C48.3536 18.4978 48.3815 18.5867 48.4093 18.5867C48.4372 18.5867 48.5555 18.5089 48.6321 18.4756C48.5346 18.4756 48.4372 18.3866 48.6321 18.5645H48.6112ZM23.968 9.67132C23.8496 9.84918 23.787 9.90477 23.7939 9.93812C23.8075 10.0645 23.8309 10.1878 23.8636 10.305C23.8636 10.1493 23.9123 9.98258 23.599 10.9386C23.7243 10.7496 23.787 10.7052 23.78 10.6607C23.7674 10.5375 23.744 10.4177 23.7104 10.305C23.7104 10.4606 23.6617 10.6162 23.968 9.67132ZM24.0933 5.14692L23.9819 4.93571L23.9332 5.01352C23.9749 5.08022 24.0167 5.1358 24.4622 5.4693C24.3578 5.2692 24.323 5.16915 24.3021 5.18027C24.225 5.20035 24.15 5.23778 24.0794 5.29144C24.1768 5.29144 24.2673 5.38037 24.0794 5.19139L24.0933 5.14692ZM23.2788 13.7622C23.2159 13.8823 23.1717 14.0245 23.1499 14.1772C23.1282 14.3299 23.1294 14.4886 23.1535 14.6404L23.2788 14.7071V13.6844L23.3136 13.7399L23.4389 13.551L23.3902 13.4732C23.3423 13.5578 23.3046 13.6558 23.2788 13.7622ZM29.3561 21.7104L29.4675 21.9217L29.5162 21.8438C29.4744 21.7771 29.4327 21.7216 28.9175 21.9328L29.4744 21.4881H28.8966C28.8966 21.6549 28.8966 21.766 29.3839 21.666L29.3561 21.7104ZM64.2534 23.7448L64.8103 23.289H64.2256C64.2256 23.4668 64.2255 23.578 64.7059 23.5002L64.9217 23.9893L65.1862 23.7559C65.2489 23.8448 65.3046 23.9893 65.3742 24.0004C65.4438 24.0116 65.6735 24.0004 65.7014 24.0004C66.2304 24.4562 66.7804 23.9337 67.2259 24.6563C67.2259 24.3228 67.2259 24.1783 67.2259 24.0004C66.7247 24.0004 66.2583 24.0004 65.8336 24.0004C65.771 23.9115 65.7153 23.767 65.6457 23.7448C65.4973 23.7281 65.3485 23.7281 65.2001 23.7448C65.1236 23.2445 64.8799 23.5891 64.2673 23.7448H64.2534ZM22.5131 3.55727C22.5464 3.6326 22.5836 3.70326 22.6244 3.76848C22.6389 3.73982 22.6552 3.71373 22.6732 3.69066C22.6292 3.64222 22.5934 3.57734 22.5687 3.50169C22.3947 3.09038 22.1511 3.35717 21.9561 3.30159C21.9399 3.36699 21.926 3.4338 21.9144 3.50169H22.5409L22.5131 3.55727ZM62.158 22.3997L62.0815 22.5331L62.4574 22.9333C62.4574 22.7554 62.4574 22.622 62.4574 22.433C62.3438 22.444 62.2299 22.444 62.1163 22.433C61.81 22.1329 61.81 22.1329 61.3435 22.433C61.6429 22.433 61.8935 22.433 62.1441 22.433L62.158 22.3997ZM69.4953 24.8008C70.1414 25.1286 70.8334 25.1479 71.4863 24.8564C70.8319 24.6341 70.2332 25.012 69.732 24.5007C69.6532 24.6115 69.5639 24.7015 69.4675 24.7675C69.3978 24.6897 69.3352 24.534 69.2656 24.5229C69.0359 24.5229 68.7574 24.623 68.5694 24.4562C68.1657 24.1005 67.7828 24.3228 67.3164 24.2561L67.5879 24.723C67.8455 24.534 68.103 24.2672 68.3536 24.8008V24.7452L68.2214 24.9231L68.2701 25.0009C68.3141 24.9371 68.3476 24.8569 68.3676 24.7675L69.2586 24.9787C69.3386 24.9074 69.4225 24.8479 69.5092 24.8008H69.4953ZM23.787 15.3407C24.0794 15.9966 23.8566 16.7525 23.9471 17.4417C24.1559 17.4417 23.9889 18.331 24.3648 18.0198C24.3133 17.8042 24.276 17.5807 24.2534 17.3528C24.2112 15.8556 24.3097 14.3567 24.5458 12.9062C24.6453 12.5321 24.7041 12.1336 24.7198 11.7279C24.7341 11.2807 24.788 10.8391 24.8799 10.4161C24.9565 9.68244 25.0609 8.94875 25.1653 8.19283C25.2489 7.69259 24.9217 7.58143 24.9913 7.21458H24.7894C24.7894 7.28128 24.7268 7.31463 24.7337 7.33686C24.7405 8.94002 24.5878 10.5347 24.2812 12.0614C24.0137 13.0058 23.892 14.0388 23.9262 15.0739C23.9262 15.1406 23.8288 15.2518 23.787 15.3296V15.3407ZM23.961 9.27113H24.0515V7.50361H23.4459L23.9053 7.89269C23.9053 8.48186 23.9471 8.88205 23.961 9.28224V9.27113ZM52.1058 19.0647L52.4469 18.7646C52.0481 18.5917 51.6275 18.5917 51.2287 18.7646L52.1058 19.1092V19.0647ZM21.6638 3.33494H20.1392L20.5291 3.76848C20.8006 3.25712 21.2252 3.76848 21.6638 3.33494ZM53.686 19.0314C53.3471 18.809 52.9669 18.809 52.6279 19.0314H53.686ZM22.527 16.4857H22.6592C22.6592 16.0299 22.6592 15.5742 22.6592 15.1073C22.6592 15.1073 22.5966 15.0517 22.5339 15.0072L22.527 16.4857ZM16.9579 4.07974L17.5357 3.6462H16.9579V4.07974ZM20.1114 3.53503C20.1147 3.46102 20.1147 3.38672 20.1114 3.31271L19.4918 3.33494C19.4881 3.38664 19.4881 3.43886 19.4918 3.49057L20.1114 3.53503ZM73.9645 24.5896V24.8119L74.5493 24.7452C74.5455 24.6935 74.5455 24.6413 74.5493 24.5896H73.9645ZM31.0686 21.6549C31.0686 21.577 31.0686 21.5104 31.0686 21.4325L30.4908 21.4992V21.6549H31.0686ZM28.2283 21.6549H28.7087V21.5326H28.2283V21.6549ZM31.2565 21.6549H31.7299V21.5326H31.2565V21.6549ZM59.9025 21.6549H60.3829V21.5326H59.9025V21.6549ZM63.5781 23.5669L63.8844 23.478L63.5781 23.1445V23.5669ZM33.9297 20.8989C33.9297 20.8211 33.9297 20.7544 33.9297 20.6766L33.6652 20.7767V20.8989H33.9297ZM59.2691 21.0101H58.9488V21.1213H59.2691V21.0101ZM17.5983 3.33494V3.55727L17.8629 3.45722V3.33494H17.5983ZM47.4626 18.7757C47.4626 18.6979 47.4626 18.6201 47.4626 18.5534L47.1981 18.6534V18.7757H47.4626ZM50.3794 18.609C50.3794 18.6757 50.3794 18.7535 50.3794 18.8202L50.6439 18.7312V18.609H50.3794ZM50.8597 18.609C50.8597 18.6757 50.8597 18.7535 50.8597 18.8202L51.1243 18.7312C51.1243 18.7312 51.1243 18.6423 51.1243 18.609H50.8597ZM25.1653 18.898H25.0609V19.4093H25.1375L25.1653 18.898ZM54.3543 19.1981V19.4205L54.6119 19.3204V19.1981H54.3543ZM24.1211 20.143H24.2534C24.2534 19.9985 24.2186 19.854 24.1977 19.7095H24.1211V20.143ZM189.252 1.76752H189.196V2.0232H189.252V1.76752ZM188.082 2.28999H188.138V2.0232H188.082V2.28999ZM18.8375 3.14596H18.6773V3.23489H18.8375V3.14596ZM19.2621 3.06814H19.2134V3.33494H19.2621V3.06814ZM18.204 3.49057H18.3641V3.41275H18.204V3.49057ZM18.6286 3.5795H18.5729V3.83518H18.6286V3.5795ZM178.531 5.39148H178.587V5.1358H178.531V5.39148ZM24.2534 6.25857H24.0933V6.3475H24.2534V6.25857ZM23.6129 7.03672H23.4528V7.11453H23.6129V7.03672ZM23.6129 9.10438H23.4528V9.19331H23.6129V9.10438ZM23.3484 10.8274H23.4041V10.5718H23.3484V10.8274ZM23.1396 11.261H23.2927V11.172H23.1396V11.261ZM23.4528 12.0391H23.6129V11.9502H23.4528V12.0391ZM22.8194 13.073H22.9725V12.984H22.8124L22.8194 13.073ZM22.6592 14.3625H22.8194V14.2847H22.6592V14.3625ZM22.6592 16.8637H22.4991V16.9526H22.6592V16.8637ZM23.1396 17.1305H22.9725V17.2083H23.1326L23.1396 17.1305ZM47.9638 18.5089H48.1239V18.42H47.9638V18.5089ZM44.3021 18.7646H44.4622V18.6757H44.3021V18.7646ZM45.7362 18.7646H45.8963V18.6757H45.7362V18.7646ZM46.2165 18.6757H46.0564V18.7646H46.2165V18.6757ZM46.8013 18.5978H46.7456V18.898H46.8013V18.5978ZM41.2809 18.898H41.1208V18.9758H41.2809V18.898ZM40.1671 19.1537H40.007V19.2426H40.1671V19.1537ZM54.8625 19.3204H54.9182V19.0647H54.8625V19.3204ZM25.4716 19.3204H25.4159V19.5872H25.4716V19.3204ZM37.306 19.754H37.4661V19.665H37.306V19.754ZM38.3154 19.8429H38.371V19.5872H38.2875L38.3154 19.8429ZM55.8789 19.5872H55.8232V19.8429H55.8789V19.5872ZM35.6561 20.0986H35.6004V20.3542H35.6561V20.0986ZM36.0251 20.1875H35.8719V20.2764H36.0251V20.1875ZM57.0414 20.2764H57.1946V20.232H57.0414V20.2764ZM57.5148 20.5321H57.6749V20.4432H57.5148V20.5321ZM33.15 21.0546H33.3101V21.0101H33.15V21.0546ZM24.9774 21.1324H24.9286V21.3992H24.9774V21.1324ZM27.7619 21.6549H27.8455V21.3992H27.7898L27.7619 21.6549ZM26.5437 21.6549H26.488V21.9105H26.5437V21.6549ZM63.3484 22.9888H63.2997V23.2556H63.3484V22.9888ZM72.1615 24.723H72.3216V24.6341H72.1615V24.723ZM72.5305 25.3233H72.5862V25.0676H72.5305V25.3233Z" fill="#DFC59D"/>
    <path d="M138.413 11.9502L137.946 11.6501L137.786 11.8835L137.724 11.5278C137.877 11.1832 138.051 11.2832 138.42 11.9502" fill="#DFC59D"/>
    <path d="M136.909 11.6945C137.041 11.1276 137.236 10.9608 137.605 11.2054L136.909 11.6945Z" fill="#DFC59D"/>
    <path d="M16.2548 3.41275L16.575 3.33494C16.575 3.52392 16.575 3.65732 16.6237 4.01304L16.2548 3.45722" fill="#DFC59D"/>
    <path d="M15.1549 4.06862H14.7094C14.9669 3.82406 14.9669 3.82406 15.1549 4.06862Z" fill="#DFC59D"/>
    <path d="M25.0609 4.3243V4.74673L24.7268 4.44658L25.0609 4.3243Z" fill="#DFC59D"/>
    <path d="M135.851 10.8719H136.269V11.0053L135.858 11.1053C135.855 11.0276 135.855 10.9496 135.858 10.8719" fill="#DFC59D"/>
    <path d="M75.0783 24.6007C75.0783 24.4229 75.0296 24.2783 75.0017 24.0783L75.4194 24.0004L75.0783 24.6007Z" fill="#DFC59D"/>
    <path d="M186.885 2.22329H186.62C186.62 2.22329 186.62 2.13436 186.62 2.08989L186.885 2.00096C186.885 2.06766 186.885 2.14548 186.885 2.22329Z" fill="#DFC59D"/>
    <path d="M199.805 2.35669H199.485V2.49009H199.805V2.35669Z" fill="#DFC59D"/>
    <path d="M24.5458 4.05751H24.2812V3.93523L24.5388 3.83518V4.05751" fill="#DFC59D"/>
    <path d="M76.575 23.9893H76.3105C76.3144 23.9488 76.3144 23.9076 76.3105 23.867L76.575 23.7559C76.575 23.8337 76.575 23.9115 76.575 23.9893Z" fill="#DFC59D"/>
    <path d="M180 4.31319L180.39 4.49105C180.318 4.54179 180.243 4.58269 180.167 4.61333C180.167 4.61333 180.111 4.51328 180 4.31319Z" fill="#DFC59D"/>
    <path d="M173.707 6.49201H173.387V6.62541H173.707V6.49201Z" fill="#DFC59D"/>
    <path d="M194.027 0.222329H193.971V0.478008H194.027V0.222329Z" fill="#DFC59D"/>
    <path d="M192.329 0.566939H192.168V0.655871H192.329V0.566939Z" fill="#DFC59D"/>
    <path d="M192.913 0.478008H192.858V0.733686H192.913V0.478008Z" fill="#DFC59D"/>
    <path d="M191.514 1.02271L191.389 0.833735L191.438 0.755919C191.472 0.822618 191.507 0.900433 191.549 0.967132L191.514 1.02271Z" fill="#DFC59D"/>
    <path d="M187.379 2.31222L187.261 2.13436C187.275 2.1057 187.292 2.07961 187.309 2.05655C187.35 2.12177 187.388 2.19243 187.421 2.26776" fill="#DFC59D"/>
    <path d="M183.731 3.33494L183.836 3.12373C183.836 3.19042 183.871 3.26824 183.891 3.33494H183.731Z" fill="#DFC59D"/>
    <path d="M15.4821 3.86853L15.3498 3.69066L15.3985 3.60173L15.5099 3.81295" fill="#DFC59D"/>
    <path d="M182.457 3.83518L182.562 3.62397C182.562 3.70178 182.597 3.76848 182.617 3.83518H182.457Z" fill="#DFC59D"/>
    <path d="M14.2221 4.17979H14.062V4.26872H14.2221V4.17979Z" fill="#DFC59D"/>
    <path d="M15.1897 4.06862L15.322 4.2576C15.304 4.28067 15.2877 4.30676 15.2732 4.33542L15.1619 4.12421" fill="#DFC59D"/>
    <path d="M10.8806 6.42531L10.985 6.2141C10.985 6.2808 11.0198 6.35862 11.0407 6.42531H10.8806Z" fill="#DFC59D"/>
    <path d="M173.018 6.69211H172.962V6.94779H173.018V6.69211Z" fill="#DFC59D"/>
    <path d="M169.725 7.80376H169.565V7.89269H169.725V7.80376Z" fill="#DFC59D"/>
    <path d="M22.6592 8.50409L22.527 8.32623L22.6592 8.2373V8.50409Z" fill="#DFC59D"/>
    <path d="M165.061 9.01545H165.005V9.27113H165.061V9.01545Z" fill="#DFC59D"/>
    <path d="M162.2 10.0826L162.074 9.89365L162.123 9.81583L162.235 10.027L162.2 10.0826Z" fill="#DFC59D"/>
    <path d="M22.2903 10.3161H22.2346V10.5718H22.2903V10.3161Z" fill="#DFC59D"/>
    <path d="M157.257 11.3499H157.202V11.6056H157.257V11.3499Z" fill="#DFC59D"/>
    <path d="M22.1859 11.6945H22.0258V11.7834H22.1859V11.6945Z" fill="#DFC59D"/>
    <path d="M156.624 11.6056H156.568V11.8613H156.624V11.6056Z" fill="#DFC59D"/>
    <path d="M155.865 12.1503L155.733 11.9724L155.781 11.8835L155.893 12.0947" fill="#DFC59D"/>
    <path d="M1.47581 12.406L1.34354 12.2281L1.39227 12.1503L1.50365 12.3615" fill="#DFC59D"/>
    <path d="M1.15559 12.6616L1.03028 12.4838L1.07901 12.406L1.19039 12.6172H1.15559" fill="#DFC59D"/>
    <path d="M149.941 13.4176H149.885V13.6732H149.941V13.4176Z" fill="#DFC59D"/>
    <path d="M144.56 14.6848L144.671 14.4736L144.72 14.5626L144.595 14.7404H144.56" fill="#DFC59D"/>
    <path d="M89.4953 20.4321L89.363 20.2542L89.4118 20.1653C89.4466 20.2431 89.4883 20.3098 89.5232 20.3765V20.4321" fill="#DFC59D"/>
    <path d="M79.1089 23.2556H79.0533V23.5113H79.1089V23.2556Z" fill="#DFC59D"/>
    <path d="M77.9951 23.5113H77.9394V23.767H77.9951V23.5113Z" fill="#DFC59D"/>
    <path d="M76.9161 24.056L76.7908 23.8782L76.8395 23.7892C76.8728 23.8646 76.9101 23.9352 76.9509 24.0004L76.9161 24.056Z" fill="#DFC59D"/>
    <path d="M76.0877 24.0338H76.032V24.2895H76.0877V24.0338Z" fill="#DFC59D"/>
</svg>
