<svg width="124" height="14" viewBox="0 0 124 14" fill="none" xmlns="http://www.w3.org/2000/svg">
    <path d="M42.1588 3.90096C42.2666 3.76452 42.3494 3.60997 42.4032 3.44452H43.8807L44.4695 2.94354C44.8139 3.05487 44.9583 3.68944 45.7138 3.1996L46.047 2.88788H49.0687L49.5131 2.43144C50.5018 2.26445 51.5905 2.43144 52.6681 2.33124L53.0791 1.9082H58.056L58.6559 1.42949L59.5113 1.93046L60.3001 1.34043H68.843L69.3985 0.82832H86.14L86.7732 1.41836L87.8841 0.872851H90.7503L91.2835 1.2959C91.939 1.65214 92.4944 0.906249 93.1832 0.794922L93.772 1.32929H97.7935L98.349 0.794922L98.7044 1.1623C98.7711 1.1623 98.8378 1.2959 98.9044 1.2959H106.947L107.636 1.89706L108.614 1.34043H110.58L111.013 1.78574H112.546L113.069 1.31816L113.591 1.808H114.579L115.124 1.31816L116.035 2.25331C116.612 2.35351 117.146 2.50937 117.612 1.8414H120.167L120.689 2.30898C121.234 2.4203 121.8 2.17538 122.445 2.5205L122 3.0994L124 4.13475C122.511 4.50213 116.29 4.58006 110.947 4.30174L110.558 3.91209H109.025L108.492 4.3908H105.47C105.303 4.23494 105.114 4.06795 104.937 3.88983L104.459 4.4242C103.767 4.46881 103.073 4.46881 102.382 4.4242L101.948 3.99002H99.371L98.8378 4.40193H96.8825C96.6739 4.21366 96.4262 4.07408 96.1573 3.99323C95.8883 3.91238 95.6049 3.89227 95.3273 3.93436L94.7718 4.43533H91.7723L91.2058 4.9697H87.6619L87.3064 5.33709C87.2398 5.33709 87.1731 5.48181 87.1065 5.48181H70.9315L70.2539 6.09411L69.243 5.52634C69.0022 5.43232 68.7362 5.42534 68.4909 5.50662C68.2456 5.5879 68.0362 5.75235 67.8987 5.97165H54.7344L54.1345 6.50602H52.1237L51.6016 6.01618C51.235 5.91599 50.9906 6.10525 50.724 6.3613C50.4574 6.61735 49.9797 6.47263 49.6131 6.04958L49.0576 6.47263H47.669L47.0246 7.007H43.0476L42.4588 7.54137H37.4263L36.8598 8.07574H32.2495L31.8717 8.58785H30.3609L29.7277 9.14449L29.2944 8.69918H27.1726L26.6949 9.14449H24.1398L23.6843 9.61206H20.6626L20.096 10.1464H18.0742L17.6409 10.6029H15.5857C15.3746 10.8144 15.2635 10.948 15.1413 11.0593C14.7414 11.4156 14.1304 10.9257 13.7638 11.4267C13.3972 11.9277 13.0084 11.6716 12.6529 11.705C12.2974 11.7384 11.9975 11.705 11.7419 11.9722C11.2976 12.5177 10.3533 11.8831 10.02 12.7292H7.42048L6.85391 12.1837C6.74282 12.5066 6.64284 12.8072 6.54286 13.1189C5.97622 13.3023 5.37279 13.3405 4.78761 13.2302L4.47655 12.2394L3.89888 12.6847L3.36564 12.2728L2.84351 12.7292H1.27711L0.0328876 11.371C-0.0295116 10.999 -0.00285899 10.6175 0.110652 10.2578H1.81035L2.33248 10.6697H4.4099L4.84315 10.2244H6.30956L6.90946 9.70113H8.38698L8.92022 9.11109H11.4753L11.9197 8.65465H13.4416L13.9527 8.14254H15.3746C15.5857 7.96442 15.7746 7.81969 16.0523 7.60817H18.3741L20.2405 6.49489H23.5732L24.1398 5.96052H28.1946L28.639 5.50408H31.183L31.7162 4.95857H34.2602C34.4602 4.73592 34.5824 4.61346 34.7935 4.40193H37.8374L38.3262 3.92323H40.8035L41.3812 3.41112C41.6014 3.59626 41.8487 3.74644 42.1144 3.85643C42.2144 4.14588 42.181 4.54666 42.6254 4.19041C42.4748 4.05142 42.3021 3.93855 42.1144 3.85643" fill="#DFC59D"/>
    <path d="M3.24343 13.4863C2.54356 13.8648 2.13252 13.887 1.64372 13.5976C2.04365 13.2525 2.04365 13.2413 3.24343 13.4863Z" fill="#DFC59D"/>
</svg>
