<svg width="126" height="9" viewBox="0 0 126 9" fill="none" xmlns="http://www.w3.org/2000/svg">
    <path d="M32.2722 7.65999V8.36113C31.9558 8.67386 31.7267 8.45192 31.5085 8.22493H29.9647L29.4683 8.56794L29.0046 8.21989L28.7864 8.42166C28.6976 8.45683 28.604 8.48059 28.5082 8.49227C28.1482 8.49227 27.7936 8.49227 27.4827 8.49227L27.0463 8.15432L26.4626 8.4721H25.6334L25.3225 8.22998C25.2261 8.19723 25.1208 8.19428 25.0224 8.22157C24.9241 8.24885 24.8379 8.3049 24.777 8.3813C24.6842 8.45697 24.4988 8.43679 24.3733 8.49732C24.2478 8.55785 24.1278 8.8151 23.7896 8.77475C23.6969 8.70413 23.5387 8.60324 23.3259 8.45192L22.7204 8.75457H21.2257L20.9312 8.48219H19.0874L18.8037 8.21989H17.8381C17.7509 8.39139 17.6527 8.58811 17.5436 8.79492L16.9981 8.24511H15.3616L15.0179 8.50741C14.7507 8.39038 14.4684 8.30562 14.1778 8.2552C13.9105 8.21989 13.6759 8.20476 13.545 7.94246L13.1905 8.24007H2.96224L2.63494 7.96264L2.36219 8.21485L1.99124 7.9576H0.77477L0.638394 7.80627L1.0748 7.3977L1.96397 7.3523C1.63121 7.05469 1.25481 7.06478 1.08571 6.84789L0.82932 7.07992H0.0819794C-0.0273265 6.72548 -0.0273265 6.34986 0.0819794 5.99543C0.452922 6.17197 0.780225 6.38382 1.23299 6.15684V4.89076L1.68576 4.77979L2.04034 5.08748H2.63494L2.9677 4.83023L3.22409 5.07235L3.72049 4.77979L4.20599 5.06731L4.51148 4.83023H5.11153L5.43883 5.10261L5.82069 4.77979L6.46984 5.08244H7.59903L7.95906 4.82519H9.47557L9.76468 4.56289L10.0811 4.82014L10.3593 4.54776L11.3357 5.05217L11.6412 4.83023H12.4104C12.7431 4.75457 12.8195 4.39139 13.3268 4.63351C13.5996 4.81005 13.2395 5.04208 13.0159 5.25394C13.425 5.47084 13.7851 5.35482 14.1942 5.375C14.2433 5.11775 14.2924 4.87058 14.336 4.5982L14.6306 4.51749C14.9633 4.58307 15.0452 4.92607 15.3943 5.02191L15.667 4.8151L15.9562 5.05217L17.1126 4.4721L17.5381 4.7697H21.2694L21.5639 4.49732H23.746C23.8769 4.3813 23.9478 4.31573 24.0296 4.23502H30.843L31.1757 3.94751C31.4812 3.85671 31.6394 4.05848 31.8031 4.22493L32.0758 3.97273H34.3124L34.7051 4.27538L35.2506 3.96768H39.8983L40.1656 4.2098L40.4929 3.93742H45.1297L45.457 3.65495C45.7952 3.53893 45.8989 3.85167 46.0789 3.91724H46.7062L46.9735 3.67512H50.0938L50.4048 3.90715L50.7266 3.65495H58.1455L58.4891 3.35734L58.6964 3.55911C58.7842 3.59895 58.878 3.62617 58.9746 3.63981C59.4383 3.63981 59.902 3.63981 60.3329 3.63981L60.6766 3.36743L60.8784 3.55911L61.8058 3.30186L62.2095 3.62973H62.8204L63.1423 3.3523H66.8626L67.1463 3.08496C67.73 3.01939 68.3955 3.08496 69.0392 3.04965L69.361 2.7924C69.4538 2.87815 69.5247 2.94877 69.6283 3.03956L69.9556 2.80249L70.2775 3.05469H73.3705L73.6869 2.78231L74.0087 3.04965L74.2433 2.83275C74.527 2.77222 74.7888 2.67134 75.0779 2.91346C75.1877 3.01028 75.3288 3.0711 75.4796 3.08659C75.6304 3.10208 75.7825 3.07138 75.9125 2.99921C76.2356 2.84808 76.5489 2.67966 76.8508 2.4948H77.3963C77.4891 2.67638 77.5872 2.87311 77.6854 3.05974H78.0073L78.5528 2.55533C78.9565 2.35356 79.2729 2.60577 79.6165 2.72178L79.8456 2.50993C79.9547 2.59063 80.0584 2.67638 80.1784 2.77222H82.6823C82.7423 2.62594 82.8023 2.46453 82.8677 2.26781C83.195 2.07109 83.5605 2.26781 83.9206 2.14171C83.9969 2.34347 84.0624 2.50993 84.1224 2.68143C84.476 2.78183 84.8514 2.79745 85.2134 2.72683L85.4261 2.1871H86.7299C86.8554 2.07109 86.9263 2.00047 87.0572 1.88446H90.7775L91.0667 1.61712C91.1703 1.70287 91.2794 1.79366 91.3994 1.88446H92.3159L92.6486 1.60198H93.876L94.1542 1.34473L94.487 1.57172H97.0072L97.2636 1.33464L97.6018 1.5919H98.8292L99.151 1.31951H100.368L100.695 1.5919L100.918 1.39013C100.957 1.36491 101 1.31951 101.038 1.31951H104.917C104.965 1.31355 105.012 1.30513 105.059 1.29429L105.277 1.07739H105.959L106.215 1.31447C106.319 1.23881 106.428 1.1581 106.554 1.05722H107.47L107.797 1.3296H109.025L109.363 1.04208H110.901L111.163 0.794922H112.21C112.238 0.910937 112.276 1.03704 112.32 1.2035L111.725 1.39517C111.725 1.5011 111.67 1.63225 111.632 1.80879L111.119 1.97525C111.119 2.2325 111.387 2.30816 111.512 2.47966H111.839C111.932 2.29303 112.025 2.10135 112.145 1.87437C112.341 2.2779 112.521 2.64108 112.69 3.00425L113.547 3.15053C113.307 3.53389 112.805 3.15053 112.614 3.50362C112.658 3.54398 112.69 3.60451 112.729 3.60451H114.311L114.594 3.04965H115.096V3.48345L115.549 3.89202L115.876 3.62973H116.793L117.12 3.90715H119.847C120.038 3.97777 120.093 4.23502 120.349 4.19467L120.235 4.45192H116.444L116.187 4.21485H114.354L114.005 3.93237C113.893 4.27478 113.658 4.57179 113.34 4.77475C113.023 4.88067 112.925 4.55785 112.69 4.48723C112.232 4.27538 111.981 4.76466 111.556 4.77475L111.229 4.52254L110.732 4.83023L109.859 4.14423L109.314 4.87563L108.703 4.51749L108.397 4.75961H103.488L103.15 5.05217L102.926 4.83023C102.594 4.73653 102.242 4.71751 101.9 4.77475L101.633 5.01686L101.328 4.83023C101 4.76466 100.646 4.67891 100.368 5.08244H93.8215L93.5378 5.34473H88.9119L88.5628 5.63729H86.1026L85.7644 5.92985H79.8893L79.6165 6.1871H78.0618L77.7564 6.46958H73.9378C73.8669 6.39896 73.796 6.33338 73.6869 6.23754L73.3105 6.51497H70.2557L69.972 6.77727H65.9626L65.6134 7.07487H64.0751L63.7478 6.79744L63.5296 7.00425C63.4914 7.00425 63.4478 7.07487 63.4096 7.07487H60.6493C60.3929 7.45318 60.0329 7.37752 59.6838 7.32203L59.4547 7.10009L59.1165 7.35734H55.7507L55.3961 7.6499H53.8414L53.6123 7.45318C53.2959 7.27159 52.9359 7.40274 52.5868 7.37248C52.5159 7.44309 52.4395 7.50867 52.3086 7.62973L51.343 7.67512L50.9448 7.9929L50.3993 7.71043C50.3448 7.75583 50.2411 7.83149 50.1047 7.92733H48.5446L48.2282 7.67008L47.9064 7.94751H45.7243L45.4898 8.15936C45.1614 8.25339 44.8132 8.27243 44.4751 8.21485L44.1806 7.9576C43.8205 7.84158 43.7387 8.18963 43.4114 8.25016L42.7841 7.9122L42.3204 8.20476L42.0149 7.94751H41.5567C41.5567 7.66504 41.3658 7.66504 41.0439 7.65495L40.602 8.22493H39.5656L39.2274 8.51749H37.7109L37.3836 8.23502H36.7726L36.4453 7.94751C35.998 7.89707 35.8616 8.27538 35.5507 8.49227H33.6578L33.205 8.10388V7.78609L33.816 7.51876C33.5978 7.27159 33.3196 7.41787 33.0523 7.36743L32.7577 7.92733L32.2667 7.65999L32.1576 7.41283C31.7459 7.32483 31.3142 7.36564 30.9303 7.52884C31.3611 7.65758 31.8162 7.70223 32.2667 7.65999H32.2722ZM110.732 1.48092C110.508 1.19845 110.187 1.30438 109.93 1.39013C109.631 1.53777 109.345 1.7064 109.074 1.89454C108.974 1.92484 108.868 1.9385 108.763 1.9349C108.577 1.82393 108.446 1.56667 108.092 1.66756L107.863 2.07613L108.512 2.42418L108.757 2.21232C109.374 2.21232 109.985 2.21232 110.596 2.21232C110.634 2.21232 110.672 2.15179 110.727 2.10135L110.459 1.7987L110.732 1.51119V1.48092ZM109.199 3.93237C109.199 3.58937 109.199 3.27664 109.199 2.9639C109.199 2.91346 109.079 2.87311 109.014 2.83275C108.883 3.02443 108.583 3.09 108.588 3.36239C108.594 3.63477 108.834 3.80627 109.21 3.93237H109.199ZM106.57 1.91472C106.451 2.01992 106.381 2.16272 106.371 2.31436C106.362 2.466 106.416 2.61519 106.521 2.73187L107.066 2.38382L106.559 1.91472H106.57ZM27.3736 7.48849C26.1407 7.34726 26.1407 7.34726 26.108 7.60955C26.2441 7.6386 26.383 7.65549 26.5226 7.65999C26.7681 7.65999 27.0244 7.74574 27.3736 7.48849ZM34.3997 8.17954C34.3997 8.11901 34.3997 8.05848 34.3997 7.99795C34.2633 7.99795 34.1269 7.9576 33.9905 7.95255C33.9523 7.95255 33.8814 8.02317 33.8869 8.04335C33.8923 8.06352 33.9578 8.22493 34.0014 8.22493C34.1391 8.22227 34.2761 8.20707 34.4106 8.17954H34.3997ZM105.686 1.95003L105.484 2.05091C105.517 2.08118 105.561 2.14675 105.588 2.14171C105.66 2.11769 105.73 2.08728 105.795 2.05091L105.686 1.95003ZM83.7678 2.63099C83.7351 2.60072 83.6914 2.53515 83.6642 2.54019C83.5921 2.56421 83.5226 2.59462 83.4569 2.63099C83.4951 2.66125 83.5333 2.72683 83.5605 2.72178C83.6326 2.69776 83.702 2.66736 83.7678 2.63099ZM110.028 3.01434L110.137 2.91346C110.074 2.8741 110.004 2.84352 109.93 2.82266C109.903 2.82266 109.865 2.87815 109.827 2.91346C109.897 2.94372 109.963 2.97903 110.028 3.01434ZM105.752 3.24133C105.713 3.1808 105.675 3.12027 105.643 3.05469C105.604 3.09 105.539 3.12531 105.544 3.15053C105.568 3.21806 105.601 3.28248 105.643 3.34221L105.752 3.24133ZM106.99 3.24133L106.881 3.05469C106.848 3.08496 106.777 3.12531 106.783 3.15053C106.809 3.2172 106.842 3.28139 106.881 3.34221L106.99 3.24133ZM107.923 3.24133L107.814 3.05469C107.775 3.08496 107.71 3.12531 107.715 3.15053C107.739 3.21806 107.772 3.28248 107.814 3.34221L107.923 3.24133ZM111.114 3.24133L111.223 3.34221C111.265 3.28248 111.298 3.21806 111.321 3.15053C111.321 3.15053 111.261 3.08496 111.223 3.05469L111.114 3.24133ZM40.602 4.60829L40.4929 4.50236C40.4504 4.56334 40.4173 4.62957 40.3948 4.69908C40.3948 4.69908 40.4548 4.75961 40.4929 4.78988L40.602 4.60829ZM5.99525 6.47966C6.06071 6.44435 6.12617 6.40905 6.19708 6.37878C6.1589 6.34347 6.12071 6.28294 6.09344 6.28799C6.01957 6.3079 5.9496 6.33854 5.88615 6.37878L5.99525 6.47966ZM40.5857 6.90337L40.4766 6.79744C40.434 6.85842 40.401 6.92465 40.3784 6.99417C40.3784 6.99417 40.4439 7.0547 40.4766 7.08496L40.5857 6.90337ZM41.5185 7.18584L41.4039 7.08496C41.3663 7.14587 41.3352 7.21007 41.3112 7.27664C41.3112 7.30186 41.3712 7.34221 41.4039 7.37248L41.5185 7.18584ZM17.6472 7.76592L17.5327 7.66504C17.4988 7.72633 17.4713 7.79052 17.4508 7.85671C17.4508 7.88193 17.5108 7.92229 17.5436 7.95255L17.6581 7.76592H17.6472ZM18.7491 7.70539L18.6346 7.80627C18.7005 7.84564 18.7722 7.8762 18.8473 7.89707C18.8473 7.89707 18.9128 7.84158 18.9455 7.80627L18.7491 7.70539Z" fill="#DFC59D"/>
    <path d="M118.254 2.74705C118.397 2.75891 118.541 2.75891 118.685 2.74705C118.778 2.56041 118.87 2.36369 118.974 2.16697L119.754 2.88324V3.16571C119.721 3.19597 119.689 3.26155 119.656 3.26155H116.732C116.705 3.16571 116.672 3.03961 116.639 2.93368C116.852 2.57555 117.217 2.8328 117.523 2.67643L117.632 2.24263L118.178 2.13671C118.185 2.33428 118.217 2.53047 118.27 2.72183C118.068 2.77227 117.828 2.75209 118.036 2.99925C118.121 2.91187 118.199 2.81918 118.27 2.72183" fill="#DFC59D"/>
    <path d="M123.169 2.35865V2.04087C123.202 2.0106 123.234 1.95512 123.278 1.95007L124.767 1.8845C125.095 2.08122 125.395 2.25272 125.362 2.67138L125.907 2.85297C125.907 2.96899 125.907 3.10014 125.907 3.21111L125.144 3.56924L124.358 3.20102L124.985 2.92359V2.60077C124.44 2.2729 123.704 2.67643 123.131 2.35865" fill="#DFC59D"/>
    <path d="M121.925 3.04967C122.236 3.04967 122.296 3.33214 122.525 3.44816V4.05345L122.187 4.37628C122.111 4.43176 122.078 4.48221 122.04 4.48221H120.894L120.349 4.19467C120.388 4.11396 120.414 3.9677 120.458 3.96266C120.9 3.91726 121.352 3.90213 121.789 3.87186C121.991 3.60453 121.86 3.31701 121.898 3.04463" fill="#DFC59D"/>
    <path d="M117.556 1.32958V1.80373C117.316 2.01054 117.054 1.8693 116.814 1.91974C116.677 1.75329 116.432 1.66754 116.399 1.41533C116.737 1.25392 117.087 1.36993 117.556 1.31949" fill="#DFC59D"/>
    <path d="M119.22 1.86425C119.22 1.80877 119.165 1.74824 119.17 1.74824C119.251 1.70463 119.335 1.66588 119.421 1.63222L120.098 1.32453L120.556 1.82895C120.508 1.86784 120.446 1.88932 120.381 1.88948C119.994 1.92774 119.602 1.91244 119.22 1.84408" fill="#DFC59D"/>
    <path d="M122.858 3.04968C123.354 2.94375 123.643 3.3725 124.08 3.44312C123.97 3.52166 123.842 3.57647 123.706 3.60352C123.57 3.63058 123.43 3.6292 123.294 3.59949C123.163 3.40781 122.852 3.33719 122.858 3.04968Z" fill="#DFC59D"/>
    <path d="M119.018 1.44557L118.172 1.90459L117.703 1.80371L118.548 1.34469L119.018 1.43548" fill="#DFC59D"/>
    <path d="M121.778 2.2123L121.347 1.80372C121.385 1.53134 121.614 1.64231 121.778 1.62213C121.826 1.65598 121.866 1.6998 121.893 1.75013C121.92 1.80046 121.934 1.85593 121.934 1.91217C121.934 1.96841 121.92 2.02388 121.893 2.07422C121.866 2.12455 121.826 2.16836 121.778 2.20221" fill="#DFC59D"/>
    <path d="M125.804 3.61959C125.866 3.67678 125.915 3.74476 125.949 3.81964C125.983 3.89452 126 3.97481 126 4.05591C126 4.137 125.983 4.21729 125.949 4.29217C125.915 4.36705 125.866 4.43504 125.804 4.49222C125.681 4.37544 125.612 4.21889 125.612 4.05591C125.612 3.89292 125.681 3.73637 125.804 3.61959Z" fill="#DFC59D"/>
    <path d="M0.986933 5.26401L0.381423 5.61206C0.381423 5.50109 0.337783 5.34472 0.315962 5.21357C0.545074 5.04207 0.719636 5.03198 0.986933 5.26401Z" fill="#DFC59D"/>
    <path d="M120.376 3.19587C120.41 3.14799 120.456 3.10865 120.51 3.08141C120.564 3.05418 120.625 3.03991 120.687 3.03991C120.749 3.03991 120.809 3.05418 120.864 3.08141C120.918 3.10865 120.964 3.14799 120.998 3.19587C120.964 3.24375 120.918 3.2831 120.864 3.31033C120.809 3.33757 120.749 3.35183 120.687 3.35183C120.625 3.35183 120.564 3.33757 120.51 3.31033C120.456 3.2831 120.41 3.24375 120.376 3.19587Z" fill="#DFC59D"/>
    <path d="M115.095 3.05471C115.281 2.75711 115.281 2.75711 115.69 2.88321C115.576 3.1909 115.297 2.99923 115.095 3.05471Z" fill="#DFC59D"/>
    <path d="M121.963 3.13037L121.642 2.8832C121.909 2.68648 121.887 2.90842 121.958 3.13037" fill="#DFC59D"/>
    <path d="M122.891 3.13037L122.574 2.8832C122.847 2.68648 122.825 2.90842 122.891 3.13037Z" fill="#DFC59D"/>
    <path d="M4.96913 4.36621C4.90454 4.40458 4.83487 4.43509 4.76184 4.45701C4.73457 4.45701 4.69093 4.40152 4.6582 4.36621C4.72407 4.33138 4.7935 4.30266 4.86549 4.28046C4.89276 4.28046 4.9364 4.33595 4.96913 4.36621Z" fill="#DFC59D"/>
    <path d="M0.207042 7.42297L0.316143 7.52385C0.251545 7.56222 0.181875 7.59273 0.108851 7.61465C0.108851 7.61465 0.0433903 7.55916 0.00520503 7.52385L0.207042 7.42297Z" fill="#DFC59D"/>
    <path d="M41.665 7.91214L41.3923 8.2047C41.185 7.95754 41.425 7.97772 41.665 7.91214Z" fill="#DFC59D"/>
</svg>
