<svg width="147" height="25" viewBox="0 0 147 25" fill="none" xmlns="http://www.w3.org/2000/svg">
    <path d="M133.448 14.4814C132.498 16.2506 133.017 16.5227 133.587 16.8241C133.465 17.1599 133.299 17.4856 133.093 17.7961C132.783 18.0973 132.435 18.3741 132.054 18.6224L132.574 19.089C132.574 19.1376 132.485 19.2348 132.422 19.2348L130.788 19.3611C128.964 18.496 128.255 17.0574 127.381 15.7354C127.444 15.2202 128.128 15.0647 128.381 14.6856C128.558 14.2811 128.838 13.9076 129.204 13.5871C129.682 13.3508 130.061 13.0132 130.294 12.6151C130.23 12.479 130.18 12.3429 130.091 12.1193L129.458 12.4984C128.635 12.7415 127.583 12.2554 126.798 12.8095C126.215 13.2275 125.177 12.6831 124.809 13.4511H123.669L123.024 13.9176H121.896L121.263 14.3745C120.61 14.346 119.965 14.4939 119.439 14.7925C118.983 14.9675 118.4 14.7925 117.894 15.1716C117.387 15.5507 116.551 15.0744 116.146 15.7062H114.651L111.282 17.0379H109.281C108.888 17.2712 108.61 17.5531 108.458 17.5142C107.255 17.2129 106.355 18.0878 105.215 18.01C105 18.01 104.772 18.253 104.481 18.4183H102.847L102.188 18.8946H101.074L100.415 19.3514H99.2877L99.0724 19.5264C99.0724 19.575 98.9584 19.6528 98.8697 19.6819C98.2111 19.8958 97.3498 19.6819 96.8559 20.2554H93.0561C92.1654 20.7959 91.0943 21.1328 89.9656 21.2275L89.4083 21.626H87.1285L86.6725 22.0246H83.7467L83.1261 22.5009H80.8082C80.5676 22.6856 80.4282 22.7925 80.2002 22.9869H78.4524L77.8444 23.4632H75.5265L74.9946 23.8812H70.3969L69.7509 24.3478H66.2805L65.9005 24.6588C65.7367 24.7229 65.5618 24.7687 65.3812 24.7949C63.9373 24.7949 62.4934 24.7949 61.2141 24.7949C60.6 24.5516 60.0114 24.2721 59.4536 23.959C59.0786 23.6414 58.5818 23.4236 58.035 23.3368C57.8624 22.8363 57.8151 22.3151 57.8957 21.801C57.8957 21.3539 57.8957 20.9067 57.8957 20.4984C58.2883 20.1874 58.6176 19.9249 58.9723 19.6625C58.7949 19.4292 58.6176 19.2056 58.4656 18.9918C58.4656 18.3599 59.2889 18.185 59.6435 17.7475V16.7755C60.6062 16.5033 60.5935 15.5993 61.2901 15.1035C61.9867 14.6078 62.5567 14.1801 63.114 13.7524C63 13.1108 63.608 12.9067 63.9626 12.5665H64.5959L68.0157 9.84474H68.649L73.6013 5.95653C73.6013 5.81072 73.5253 5.60659 73.4873 5.4219C72.7527 5.29553 72.0941 5.15944 71.5748 5.801H67.4204L66.8884 6.21898H64.5959L63.9626 6.62724H62.2274L61.7461 7.02578H59.4156L58.8329 7.47293H57.2117C56.9711 7.62846 56.7431 7.75482 56.3631 7.9784H54.1339L53.5133 8.46442H51.1954C50.9548 8.64911 50.8281 8.75604 50.6635 8.87269H48.3836L47.7376 9.33927H46.5977L46.0657 9.75725L44.7992 9.8253L44.2925 10.2238H42L41.3794 10.7001H39.6442L39.0995 11.1279H36.9463L34.9704 12.0124L34.2865 11.5264L31.918 12.4596H30.5881C29.9548 12.7609 29.5115 13.2469 28.6755 12.8192L27.7129 13.8593H26.3197L25.8257 14.2481C25.1042 14.3256 24.3745 14.3484 23.6472 14.3162C23.0649 14.4894 22.5155 14.7215 22.0133 15.0063C21.494 15.3757 20.8987 15.0549 20.4174 15.3077C19.9361 15.5604 19.3281 15.8131 18.6695 16.1145H17.2256C15.959 16.6686 14.6924 17.0865 13.5145 17.5823C12.7685 17.8158 12.0484 18.0954 11.3613 18.4183C10.766 18.7585 9.91737 18.7585 9.4994 19.2931C8.91677 19.1667 8.67612 19.7111 8.23281 19.7111C7.60804 19.7883 7.01206 19.9673 6.48492 20.236C5.91589 20.3195 5.33139 20.3195 4.76236 20.236H3.79976L3.1538 20.7415L2.31785 19.7694H0.835947L0 19.1084L0.823281 18.4183H3.58444C4.53438 18.0294 5.38299 17.3976 6.59891 17.5142L7.8655 16.6297L8.33414 16.9893L9.82871 16.3478V15.8812L11.4626 15.2299H12.9445C13.3878 14.9091 13.7805 14.3842 14.2111 14.3648C14.8571 14.3648 15.085 13.8496 15.7057 13.8302C16.3263 13.8107 16.5416 13.2566 17.2129 13.3927C17.3649 13.3927 17.6689 13.3927 17.7195 13.315C18.0362 12.8678 18.7961 13.072 19.1381 12.6831C19.4801 12.2943 20.3287 12.7609 20.6834 12.3526C21.038 11.9444 21.8233 12.1777 22.1019 11.7208C23.189 11.6161 24.2159 11.2793 25.0657 10.7487C26.1297 10.8848 26.9023 10.0391 27.9789 10.2238C28.1921 10.0284 28.4726 9.88292 28.7883 9.80386C29.1041 9.72481 29.4424 9.71539 29.7648 9.7767C30.1954 9.24207 31.0314 9.48508 31.5127 9.26151C31.9831 9.04673 32.5037 8.90474 33.0452 8.84352C33.6405 8.75604 34.1092 8.26029 34.8311 8.41582C35.4771 7.81315 36.3764 7.9784 37.2503 7.95896L37.9089 7.5993H38.9982L39.6568 7.13271H41.392L41.7974 6.81193C42.4053 6.53004 43.0639 6.72445 43.7226 6.62724L44.1405 6.30646C44.6725 6.09261 45.2551 6.23842 45.9138 6.1801C46.1626 6.01047 46.4394 5.86668 46.737 5.75239C47.079 5.66491 47.5223 5.75239 47.839 5.64547C48.1556 5.53854 48.3583 5.23721 48.8016 5.27609C49.2022 5.29576 49.6042 5.29576 50.0048 5.27609L50.6635 4.8581H52.348L52.994 4.39152H55.2865L55.9198 3.92493H56.9964L57.5283 3.51667H59.7955L60.6695 2.95288L61.7461 3.46807L62.5314 2.5835H65.6725C65.8118 2.47657 65.9512 2.36965 66.2045 2.1558H67.4711C67.699 1.99055 67.9017 1.85446 68.1423 1.69893H70.9288L71.4228 1.31011H76.5525L77.2618 0.794922H78.3004L81.0615 2.9626V3.48751C80.6436 4.0999 80.1623 4.70258 79.7063 5.30525C79.1766 5.98559 78.5384 6.61255 77.8064 7.17159C77.2217 7.76851 76.5212 8.29304 75.7292 8.72688C74.9152 9.07915 74.1762 9.52498 73.538 10.0489V10.5155C73.1656 10.7574 72.8261 11.0277 72.5247 11.3223C71.5802 12.1327 70.4727 12.8219 69.2443 13.3636C67.443 14.2712 65.925 15.4727 64.7986 16.8824C64.5199 17.1837 64.0639 17.3879 63.798 17.6989C63.5203 18.1045 63.2873 18.5272 63.1013 18.9626C63.1013 19.2834 63.1013 19.9347 63.1013 20.6637C64.0893 20.3721 64.8999 19.8277 65.6978 20.6637H72.6641L73.272 20.2457H76.1218L76.7551 19.7791H79.643L80.1622 19.3611L81.9608 19.2639L82.4801 18.8654H84.8613L85.4693 18.3891H87.7871L88.3317 17.9614H90.5989L91.2575 17.4948H94.1074L94.7533 17.0282H95.8933L96.4126 16.62L98.2491 16.5519L98.7811 16.1339C99.2025 16.1056 99.6263 16.1056 100.048 16.1339C100.63 16.2117 100.795 15.7062 101.314 15.6771C101.799 15.6576 102.286 15.6576 102.771 15.6771C103.303 15.4049 103.771 14.9383 104.481 15.298L105.215 14.7828H106.913L107.559 14.3162H109.256L109.889 13.869H111.384C111.903 13.7913 112.156 13.208 112.866 13.4122C113.575 13.6163 113.6 12.9942 114.132 12.9748C114.664 12.9553 115.297 13.0331 115.652 12.5276H117.159C118.097 11.9152 119.312 11.7402 120.237 11.157H121.782L122.479 10.7487L124.303 10.6224C124.759 9.91278 126.038 10.5738 126.481 9.81558H129.356L130.002 9.33927H133.46C134.347 10.0878 135.905 10.01 136.627 10.9529L136.145 11.332C136.145 11.6042 136.069 11.9638 136.031 12.304C135.423 12.897 134.321 13.1789 134.309 14.1121C133.562 14.6953 132.802 15.2882 133.448 14.4426C134.853 12.6831 135.081 12.3721 134.714 12.1193C134.471 12.18 134.254 12.2895 134.084 12.4366C133.915 12.5836 133.8 12.7627 133.752 12.9553C133.557 12.9818 133.372 13.0383 133.207 13.1214C133.042 13.2046 132.9 13.3126 132.791 13.439C132.682 13.5654 132.608 13.7075 132.573 13.8566C132.537 14.0057 132.542 14.1588 132.586 14.3065C132.506 14.2953 132.423 14.2995 132.346 14.3189C132.268 14.3382 132.198 14.372 132.141 14.4173C132.085 14.4626 132.044 14.5179 132.022 14.5782C132 14.6386 131.998 14.7022 132.016 14.7633C131.611 14.7633 131.421 14.8994 131.56 15.2396C130.75 15.123 130.496 14.5786 129.964 14.3259L129.166 14.948L130.661 16.0367C130.983 15.7866 131.284 15.5203 131.56 15.2396C131.839 15.2396 132.029 15.0744 132.016 14.7633C132.409 14.7633 132.612 14.6272 132.586 14.3065C132.782 14.2813 132.968 14.2256 133.134 14.1428C133.3 14.06 133.442 13.9519 133.551 13.8252C133.661 13.6985 133.735 13.5559 133.769 13.4062C133.804 13.2566 133.798 13.1031 133.752 12.9553C134.131 12.9553 134.524 12.9553 133.435 14.4426L133.448 14.4814ZM131.522 12.6637L131.725 12.9553C131.725 12.897 131.915 12.8387 131.902 12.7998C131.859 12.6942 131.8 12.593 131.725 12.4984L131.522 12.6637Z" fill="#DFC59D"/>
    <path d="M138.362 17.9323C137.493 17.9758 136.621 17.9758 135.753 17.9323C135.579 17.5965 135.371 17.2715 135.132 16.9602C134.881 16.7405 134.601 16.5418 134.296 16.3673C134.727 15.9396 135.246 16.1632 135.689 16.0951C136.082 16.5714 136.475 17.0672 136.842 17.456C137.982 17.456 137.982 17.456 138.362 17.874" fill="#DFC59D"/>
    <path d="M137.475 18.6224C136.411 19.0307 135.715 18.7779 134.537 18.9821C135.588 18.3891 135.588 18.3794 137.475 18.6224Z" fill="#DFC59D"/>
    <path d="M134.461 19.1959L133.46 19.332C133.08 19.0015 133.093 18.7585 133.359 18.496C133.827 18.5641 134.017 18.9043 134.461 19.1959Z" fill="#DFC59D"/>
    <path d="M145.721 15.7743L145.923 15.9298C145.802 15.9919 145.67 16.0409 145.531 16.0756C145.531 16.0756 145.417 15.9881 145.341 15.9298L145.721 15.7743Z" fill="#DFC59D"/>
    <path d="M147 18.1266L146.797 18.4183C146.734 18.3696 146.607 18.3113 146.607 18.2724C146.658 18.1675 146.721 18.0666 146.797 17.9711L147 18.1266Z" fill="#DFC59D"/>
</svg>
