<svg width="490" height="232" viewBox="0 0 490 232" fill="none" xmlns="http://www.w3.org/2000/svg">
    <path d="M154 92.9431C154 92.9431 154 92.5577 154 92.5302C155.134 92.0961 156.223 91.4577 157.238 90.6312C158.166 90.0257 158.305 88.0716 159.41 87.2185C159.784 86.889 160.134 86.5112 160.457 86.09C162.096 86.8607 163.044 84.8515 164.406 84.769L167.19 81.4663H169.165C169.562 79.9443 170.341 78.6737 171.357 77.8885H173.193L176.056 74.5032H179.275L180.875 72.1088H183.086L184.231 70.8978C184.449 71.6684 184.666 72.3565 184.883 73.0721C185.108 72.9825 185.326 72.8627 185.535 72.7143C185.14 71.063 186.186 69.9621 186.502 68.5309C186.818 67.0998 187.253 67.5952 187.884 67.4025C188.516 67.2099 188.615 66.7145 189.049 66.3016H190.906L192.446 63.2467C193.729 62.3935 194.855 63.0816 195.862 62.7238C196.533 63.9347 196.711 65.3384 197.836 66.2191L198.468 65.0081L197.52 63.4118L198.468 61.7054L197.52 59.8339C197.955 58.4303 199.159 59.8339 200.048 59.0908C201.213 56.6414 203.997 56.5038 205.794 54.6598C206.742 54.4396 207.907 54.9625 208.993 54.2745C208.756 53.724 208.539 53.2011 208.223 52.403L211.303 52.2378L214.048 50.559V49.403L216.832 47.6967L219.755 47.504C219.755 46.8435 219.952 46.3206 220.031 45.7977L222.736 44.1463C223.396 44.1571 224.056 44.1019 224.711 43.9812C224.869 44.7243 224.711 45.6325 225.659 44.8344C225.359 44.516 225.042 44.2307 224.711 43.9812C224.711 42.5776 225.896 43.2381 226.567 42.6051C226.567 42.2473 226.725 41.7244 226.843 41.0088L228.601 40.2932L227.831 38.752C228.502 37.8988 229.371 38.5043 230.121 38.3116L231.168 37.1557L232.905 39.2199L235.334 38.174C235.472 38.9997 235.551 39.5226 235.63 40.0455C234.408 40.427 233.323 41.4027 232.57 42.7977C232.688 43.2381 232.827 43.7335 232.984 44.3665L235.137 41.9446H239.086L240.804 39.8804C242.437 39.6692 244.019 38.9748 245.444 37.8438C245.444 37.8438 245.444 37.486 245.444 37.2933H248.86C249.275 36.6053 250.104 36.275 250.144 35.0915H246.807C246.412 35.8346 245.424 36.1374 245.444 37.2933H242.028L241.021 38.4217L240.113 37.4309L236.973 39.4676C236.262 38.6969 236.756 37.6786 236.598 36.7154C237.21 35.3668 238.355 36.4126 239.283 35.8346C239.441 35.2567 239.639 34.5961 239.896 33.743L241.021 34.7888H244.082L244.457 33.6879L246.017 32.6421L246.649 33.4127C246.932 33.5406 247.223 33.6327 247.518 33.6879H254.745L255.969 32.3669L258.141 33.5778H263.63C264.381 35.7246 266.533 34.0457 267.323 35.7796L271.588 36.1649L272.358 37.0731H275.004C275.853 38.2291 277.492 37.8162 277.867 39.5226H275.439L274.412 38.3667C273.291 38.176 272.154 38.3167 271.075 38.7795V41.3941C272.042 42.5225 273.049 43.5959 273.839 44.6968C273.938 44.6968 273.839 45.0546 273.839 44.8344C273.839 45.9628 273.839 46.6784 273.977 47.5866L275.518 47.7792L276.11 45.7151L277.512 45.1646L279.032 41.3666C278.559 40.9262 278.164 40.5684 277.828 40.1831C277.492 39.7978 277.828 39.7978 277.828 39.6052H280.415C280.568 40.0901 280.68 40.598 280.75 41.1189C280.75 41.862 280.75 42.5776 281.303 43.2106C281.856 43.8436 281.678 44.1463 281.856 44.6417L280.81 46.0178C281.955 47.4765 282.054 49.8709 283.712 50.4489C283.712 51.1369 283.712 51.3571 283.712 51.4947C283.14 52.7883 282.527 54.0543 281.935 55.3478C282.448 56.1466 282.837 57.0832 283.08 58.1L285.331 58.3753C286.062 59.6688 285.331 61.1275 285.865 62.5311C285.865 62.5311 285.865 62.7238 286.062 62.7513L288.353 63.0815C288.353 63.5219 288.55 63.8522 288.629 64.21C288.017 66.3842 285.45 66.9622 285.568 69.7144L282.133 69.9346C281.362 71.173 281.915 72.6868 281.718 74.0904C280.782 75.0463 279.892 76.0851 279.052 77.2004C278.604 78.0334 278.257 78.9631 278.025 79.9526L278.855 80.9434C277.729 81.5214 276.643 82.0168 275.616 82.6498C274.589 83.2828 273.642 84.0534 273.819 85.7873L272.477 86.3102C271.777 88.225 270.684 89.8059 269.337 90.8514C268.567 91.044 267.678 90.4385 267.066 91.4293L267.994 92.6678C267.264 93.3284 266.829 94.5669 265.566 94.3742L261.044 100.071C260.66 100.098 260.278 100.153 259.898 100.236C259.756 100.294 259.622 100.387 259.503 100.512L258.911 102.493H257.944L246.195 116.447H244.99L244.062 118.786H243.035C241.416 120.713 239.817 122.667 238.158 124.538C236.508 126.65 234.693 128.496 232.748 130.043C230.923 131.707 229.24 133.655 227.732 135.85L229.173 136.483C230.102 134.859 231.721 134.364 232.846 133.153C234.058 132.002 235.39 131.12 236.795 130.538C237.98 129.988 238.296 127.786 239.876 128.171C242.174 125.903 244.713 124.148 247.399 122.97C249.65 121.981 251.719 120.319 253.461 118.098C255.594 116.915 257.272 116.117 258.872 115.071C259.519 114.503 260.11 113.818 260.629 113.034H262.722C264.183 109.979 267.106 109.181 269.436 107.337C270.212 107.088 271.012 107.014 271.805 107.117C271.963 106.869 272.694 106.264 272.694 105.658C272.694 103.346 274.668 103.704 275.557 102.603C275.991 102.053 277.058 102.824 277.808 102.053C278.429 101.532 279.092 101.117 279.783 100.814V99.5208C281.56 98.4816 283.282 97.2676 284.936 95.8879C286.149 94.7861 287.483 93.968 288.886 93.466C290.012 92.8 291.047 91.869 291.946 90.7138C293.447 91.3468 294.474 89.5303 296.034 89.3652L298.601 86.1451C300.133 86.1548 301.64 85.5942 302.965 84.5213C304.307 83.6406 305.946 83.1177 306.677 81.3287H308.296C309.204 80.7783 310.133 80.2003 311.1 79.6499C312.218 79.074 313.264 78.2567 314.2 77.2279C314.98 76.2737 315.968 75.7116 317.004 75.6316C318.307 75.6316 318.979 74.6408 320.025 74.283C321.072 73.9253 322 73.1271 322.888 72.6868C323.777 72.2464 325.041 71.3657 326.147 70.7602C327.098 69.991 328.188 69.6185 329.286 69.6869C330.333 67.4576 332.919 67.4851 333.848 65.4209C334.835 64.5402 335.822 65.4209 336.73 64.4576C337.935 63.054 339.91 63.1366 341.094 61.5403C342.812 62.3385 343.918 60.3018 345.577 60.1917C347.178 59.8545 348.703 59.0171 350.039 57.7423C351.42 56.4191 352.912 55.3376 354.482 54.5222H356.773L357.839 53.3938L358.886 54.5222H359.952C360.149 53.8892 360.347 53.2011 360.623 52.3479L361.709 53.3387L362.736 52.3479H366.527L367.653 51.1369H369.627L370.674 50.0085L371.681 51.0819H373.656L374.821 49.9535C375.492 51.5773 374.959 53.1461 375.137 54.6323C374.13 55.3203 374.13 55.3203 374.564 56.8615C375.611 56.4212 374.959 55.3754 375.137 54.6323C376.479 54.6323 375.887 55.9808 376.381 56.6964C376.874 57.412 377.862 56.6964 378.513 56.9992L379.619 55.8432C380.053 56.8615 380.468 57.8248 381.041 59.0908V61.0724L382.423 62.5861L384.398 59.2009C385.069 59.8615 385.069 59.8615 384.871 63.4944L384.003 64.843L385.642 65.2558C386.372 65.9439 385.859 66.9897 386.036 68.008L386.965 69.274V72.7693L384.99 73.8702L385.977 75.1362L380.053 82.0718V84.4112L376.242 89.0624V91.2917C375.45 91.7339 374.695 92.2969 373.991 92.9706C373.34 93.7412 372.313 94.2366 372.372 95.5026C371.74 95.6953 370.99 95.5026 371.661 96.631C371.916 96.2779 372.154 95.9009 372.372 95.5026C372.51 95.6953 373.004 95.7778 373.044 95.998C373.155 96.6387 373.222 97.2932 373.241 97.9521L365.52 107.117C365.027 107.193 364.561 107.472 364.181 107.918C363.802 108.364 363.525 108.957 363.388 109.621C363.092 111.355 361.828 111.768 360.643 112.236L360.248 113.997L358.925 114.328C358.194 116.034 356.951 118.401 356.161 118.621C354.186 119.117 353.455 121.181 351.994 122.392H351.106C350.237 123.575 350.375 125.667 348.46 125.915C346.959 126.135 346.939 128.061 346.288 129.272H345.34C343.365 130.924 342.259 133.648 339.811 134.501V135.685C338.883 136.758 337.955 137.859 337.046 138.988C337.046 138.988 337.046 139.235 337.046 139.373C338.231 140.721 338.666 138.905 339.455 138.602C340.245 138.3 341.094 138.988 341.726 138.052C342.358 137.116 343.484 137.446 344.155 136.456C344.826 135.465 345.498 135.74 346.702 135.134H348.677C349.9 134.103 351.233 133.351 352.626 132.905C354.008 132.905 354.818 131.419 356.101 131.474C356.852 129.547 359.044 131.309 359.853 129.3L360.9 130.346C361.571 129.63 362.262 128.859 362.874 128.089H364.474L368.028 125.777H370.378C371.356 125.278 372.296 124.641 373.182 123.878C374.031 122.97 375.156 124.043 375.867 123.08C376.578 122.117 378.02 122.392 378.612 121.071H382.443C382.877 120.658 383.272 119.942 383.608 119.997C385.306 120.19 386.491 118.786 387.893 118.153C388.169 118.016 388.525 117.548 388.663 117.63C390.183 118.511 390.874 116.172 392.217 116.419C392.552 116.461 392.889 116.461 393.224 116.419L394.29 115.263H397.193L398.279 114.053H400.254L400.609 113.612C400.728 113.475 400.826 113.254 400.965 113.199C402.11 112.731 403.532 113.199 404.381 111.741H407.718L413.108 108.328L414.076 110.805L414.609 108.741L423.199 103.539H427.859C428.57 101.723 430.288 101.365 431.808 100.126H434.395L435.619 98.9429H438.522L439.469 99.9061L441.78 98.3649L442.273 96.631L444.524 96.4659C445.196 94.9797 446.499 95.5301 447.506 95.2274L448.217 94.5669L449.737 95.5852C451.06 94.8146 452.403 93.9614 453.785 93.2733C454.441 93.1552 455.105 93.1552 455.76 93.2733C456.51 92.3376 457.537 91.1266 458.722 89.6954C460.005 89.4477 459.314 91.4293 460.025 91.9798C461.091 91.1816 462 90.2184 461.763 88.6221H465.021L466.206 89.8881C466.601 89.6954 467.371 89.4753 467.371 89.2551C467.371 87.6863 468.279 86.9432 469.247 86.2827C470.826 85.9524 470.115 87.934 470.846 88.4845L472.821 84.9892L474.341 85.402C473.926 86.2827 473.551 87.0258 473.255 87.6313C474.124 89.2 475.111 88.4569 476.158 88.4294C476.158 87.934 476.335 87.4111 476.454 86.7506L477.797 85.1543H480.66L481.785 83.9433H483.76C484.629 84.6038 484.135 85.6772 484.333 86.9707L482.062 88.4294C482.99 90.6312 484.57 88.9799 485.241 90.3284L484.254 91.5669C484.254 92.0073 484.254 92.3651 484.254 92.888L485.695 93.4109C486.177 94.969 486.981 96.2913 488.005 97.209C487.196 99.4658 484.589 99.108 483.938 101.255C482.99 101.723 481.963 100.924 481.252 102.025C481.469 102.301 481.588 102.548 481.706 102.548H486.643L488.065 104.31V106.649C487.709 107.062 487.275 107.612 486.761 108.273H484.57L483.799 107.365C483.602 107.557 483.207 107.777 483.227 107.915C483.405 109.401 482.299 109.814 481.746 110.667C480.146 110.42 479.771 112.401 478.409 113.144L476.651 112.043C475.98 112.869 476.513 113.887 476.296 114.796L471.478 117.74L469.74 115.594C469.74 115.594 469.484 115.759 469.484 115.896C469.484 117.823 469.484 119.777 469.484 121.704C468.042 122.337 466.897 123.85 464.942 123.465L463.362 125.832H461.111L459.986 124.593L458.564 125.061L459.67 126.548C459.216 127.043 458.801 127.814 458.248 127.979C456.451 128.557 455.089 130.208 453.134 130.731L451.495 132.685C451.203 132.794 450.906 132.877 450.606 132.933C449.54 133.098 448.276 132.437 447.506 133.923C445.531 133.731 443.794 136.263 441.701 135.162C440.358 136.703 438.285 136.758 437.752 138.657C436.488 139.208 436.172 137.914 435.639 137.694H433.664C433.013 138.437 432.44 139.125 431.808 139.896H428.965C428.57 140.281 428.214 140.666 427.859 141.052C426.753 140.309 426.338 138.96 425.647 137.226C425.45 138.74 425.312 139.813 425.173 140.832C424.69 141.128 424.157 141.231 423.633 141.129C423.11 141.027 422.618 140.724 422.211 140.254L424.502 138.355C423.633 137.144 422.725 137.942 422.053 137.529L420.908 138.795H418.934C418.144 139.841 418.262 141.547 416.84 142.125L415.991 141.107C415.517 141.107 414.53 140.804 414.313 141.107C413.365 142.593 411.943 141.932 410.64 142.62L411.509 144.024C411.509 144.492 411.509 145.263 411.627 146.501L409.949 148.18L409.534 146.446L410.581 145.125L408.113 143.639C407.323 144.795 405.368 144.244 404.953 146.391L406.612 147.354C406.612 147.767 406.612 148.125 406.612 148.51C405.98 149.831 404.795 148.758 403.828 149.501C403.828 149.859 403.67 150.382 403.571 150.987C402.28 152.06 400.809 152.639 399.306 152.666C398.97 152.336 398.615 151.95 398.378 151.675L392.928 154.868H388.189L387.873 156.739L386.57 158.281C385.76 157.978 386.116 157.07 385.78 156.299L384.437 155.941C384.22 156.657 384.042 157.345 383.845 158.005C383.726 158.143 383.608 158.363 383.47 158.363H377.546C377.052 159.271 376.282 159.381 375.571 159.739C374.86 160.097 374.386 161.033 373.735 161.803H370.654L369.094 164.198H366.863L365.777 165.409H363.901L362.815 166.537H360.13L358.965 167.583H356.062L352.626 172.399H349.131L347.255 174.601L346.228 173.638L345.241 174.629C344.905 174.298 344.57 173.913 344.214 173.528H342.753C342.575 172.785 343.247 171.739 342.18 171.299C341.766 172.84 341.766 172.84 342.753 173.528C341.872 175.39 340.574 176.793 339.061 177.519C338.193 177.961 337.279 178.202 336.355 178.234L334.381 180.491H331.142C331.024 181.206 330.945 181.729 330.826 182.39L329.484 183.959H327.509L326.403 185.17H323.52L322.434 186.353H320.953L307.329 194.61H305.196C304.517 195.059 303.818 195.445 303.103 195.766C302.372 196.041 302.037 197.224 301.128 196.977C300.743 196.85 300.34 196.887 299.97 197.083C299.6 197.279 299.282 197.626 299.055 198.078H295.106L294.197 199.151H290.11C289.577 198.243 288.984 197.169 288.135 195.766C286.615 194.885 285.371 196.867 283.831 197.417V198.628L278.401 201.903C278.124 200.967 277.946 200.307 277.749 199.619C277.058 198.876 276.189 199.619 275.32 199.178L274.708 197.142C273.721 197.307 273.365 198.49 272.733 199.096C271.518 199.103 270.326 199.558 269.278 200.417C269.12 200.417 268.863 200.417 268.804 200.417C267.698 198.463 265.487 198.215 264.282 196.371L265.388 194.94L263.413 190.316L264.164 189.463V182.032C262.683 181.234 261.202 182.032 259.109 181.289L258.023 179.252C257.055 180.133 257.489 180.959 257.371 181.702L256.482 181.262V175.152C256.68 174.931 256.798 174.711 256.937 174.711H260.886L261.656 175.647C263.018 175.042 264.736 174.601 265.21 172.895C265.684 171.188 267.007 170.143 266.079 168.106L265.467 167.363L266.731 164.335C267.817 163.923 268.251 164.941 268.705 165.381H270.897C271.054 164.878 271.135 164.334 271.134 163.785C270.996 163.069 270.048 162.904 270.186 161.941H271.647C272.832 161.115 272.931 159.354 273.78 158.363C274.459 157.394 275.031 156.29 275.478 155.088C276.07 153.794 276.367 152.336 277.453 151.428C277.93 151.458 278.408 151.403 278.874 151.262C279.032 152.006 278.874 152.914 279.822 152.116L278.874 151.262C279.272 150.711 279.617 150.092 279.901 149.418V147.63C279.684 148.29 280.632 147.767 280.75 148.345C280.907 148.993 281.092 149.627 281.303 150.244H282.488C282.622 149.554 282.828 148.896 283.1 148.29C283.495 147.657 283.989 147.189 283.811 146.308L283.061 145.483C281.963 146.063 280.905 146.782 279.901 147.63C279.059 147.886 278.196 147.988 277.334 147.932C277.137 148.565 276.939 149.253 276.702 150.134H273.661C272.714 151.31 271.624 152.242 270.443 152.886C269.317 153.382 268.468 154.95 267.639 156.051H265.664C264.48 158.143 262.11 158.528 260.886 160.592C259.839 160.813 258.575 160.345 257.884 161.858H255.91C254.903 164.143 252.276 164.115 251.25 166.455H247.992C247.577 167.28 247.063 168.299 246.945 168.574L244.773 169.097C244.773 170.143 244.595 171.051 244.516 171.849C243.628 172.317 242.542 172.399 242.127 173.528C241.712 174.656 240.291 174.161 239.718 175.152V176.335L237.171 177.904C236.045 177.408 236.006 175.702 235.196 174.381C234.999 175.647 234.841 176.72 234.683 177.849L233.32 178.207L230.556 181.482C229.549 182.005 229.094 181.096 228.581 180.436C227.021 181.344 227.179 183.794 225.777 184.867C224.829 184.592 224.434 183.463 223.803 182.83C222.618 183.518 223.605 184.894 223.092 185.83C222.578 186.766 221.571 186.023 220.762 186.243C219.537 187.757 218.274 189.27 217.049 190.729L215.647 191.169C215.055 191.692 215.805 193.261 214.482 193.234C214.324 193.234 214.068 193.234 214.008 193.234C212.883 195.188 210.711 195.435 209.506 197.307V198.463L203.207 202.233C202.565 202.975 201.958 203.775 201.391 204.628C200.581 205.921 199.001 205.811 198.31 207.105C197.619 208.398 196.04 208.233 195.171 209.527C194.531 210.707 193.639 211.575 192.623 212.004C191.435 212.221 190.328 212.964 189.464 214.123C188.714 215.499 187.055 215.114 186.384 216.517L185.278 215.306C183.935 215.609 182.869 217.095 181.329 216.655C181.19 217.04 181.052 217.371 180.954 217.701C180.934 217.892 180.934 218.087 180.954 218.279C179.545 219.443 177.931 220.034 176.293 219.985L173.41 223.921L173.055 223.398C172.431 223.938 171.769 224.389 171.08 224.746C170.37 225.049 169.442 224.416 168.829 225.38V226.673L166.262 228.242C165.769 227.994 165.413 226.811 164.288 227.279L163.36 224.939H162.313C161.346 226.123 162.037 227.526 161.839 228.875L162.866 230.278C161.707 230.853 160.456 230.968 159.253 230.609L159.035 229.425C159.529 229.425 160.003 229.425 160.477 229.425C160.615 229.425 160.832 229.15 160.812 229.067C160.793 228.985 160.635 228.324 160.477 228.297C159.997 228.242 159.515 228.242 159.035 228.297C159.035 227.967 158.877 227.416 158.7 227.361C158.127 227.196 158.028 227.719 158.048 228.297C157.456 228.434 156.666 227.856 156.271 228.71C155.876 229.563 154.711 229.095 154.296 229.921C153.882 230.746 152.835 230.471 152.104 230.664C151.577 230.894 151.072 231.217 150.604 231.627L149.913 230.801L148.076 231.985L146.812 230.636H144.838L143.653 231.957L141.205 230.526L139.901 231.627C139.21 230.113 137.571 231.159 136.959 230.333C136.011 229.095 134.985 229.645 134.096 229.425C132.497 227.609 134.965 227.086 134.59 225.82C134.214 224.554 133.484 224.416 133.188 223.591H131.213C130.38 222.847 129.754 221.731 129.436 220.426C129.159 219.407 127.836 219.104 127.757 217.673C128.784 217.673 128.883 216.38 129.732 216.105L128.271 214.233L125.98 214.095L124.875 212.196C125.388 211.398 126.277 212.004 127.284 211.756L128.804 209.829C128.468 209.031 128.152 208.288 127.856 207.545C129.041 206.169 129.475 207.958 130.167 208.288H132.141L133.602 206.554L131.628 205.453L132.556 204.353C132.556 203.665 132.556 202.756 132.694 201.848L134.096 200.197H136.071C136.821 198.573 136.821 198.573 135.656 197.857C135.774 197.527 135.834 196.949 136.011 196.894C136.739 196.768 137.47 196.695 138.203 196.674C138.203 196.096 138.341 195.573 138.44 194.83L135.616 194.28C135.616 193.949 135.814 193.454 135.873 193.454C136.251 193.478 136.627 193.375 136.971 193.155C137.314 192.935 137.615 192.603 137.848 192.188C138.186 191.696 138.6 191.318 139.058 191.079C139.516 190.841 140.007 190.75 140.494 190.812L139.289 189.16L141.066 188.445C141.619 187.069 141.066 185.5 141.303 184.014H142.804L144.166 182.28L142.923 180.656H140.75L139.408 182.252V184.674L137.887 186.133C136.343 186.377 134.851 187.061 133.504 188.142V189.848C133.227 189.848 132.753 190.041 132.714 190.234C132.576 190.949 133.01 191.059 133.504 191.004L134.392 192.821L132.042 195.573C130.917 195.711 129.772 195.16 128.725 195.958C128.863 196.949 130.7 197.747 128.982 198.958L128.33 198.215C127.363 198.49 126.987 199.591 126.158 200.334L124.381 198.628L124.993 196.784L126.079 197.967L127.501 196.289V194.5L130.403 191.527L129.811 190.812L133.563 186.381C134.016 186.268 134.435 185.97 134.766 185.524C135.096 185.078 135.324 184.504 135.419 183.876C135.543 183.271 135.8 182.735 136.155 182.345C136.509 181.955 136.942 181.73 137.394 181.702C137.571 182.445 136.92 183.491 137.966 183.931C138.381 182.39 138.381 182.39 137.394 181.702C137.394 181.151 137.216 180.491 137.394 180.051C138.104 178.564 138.954 177.298 139.664 175.867H141.303C141.442 176.996 142.133 177.546 142.903 178.041C143.475 177.216 143.515 176.473 142.666 175.867H141.363V173.886L144.127 173.28C144.127 172.785 144.305 172.262 144.423 171.574C144.97 171.431 145.501 171.191 146.003 170.858C146.225 170.54 146.499 170.301 146.801 170.162C147.104 170.023 147.426 169.988 147.741 170.06C148.669 170.941 148.175 172.069 148.056 173.17L147.365 173.968V178.014C147.721 177.849 148.017 177.849 148.175 177.656C148.866 176.886 149.518 176.087 150.15 175.317C149.774 174.794 149.478 174.353 149.182 173.968C149.182 173.528 149.281 173.17 149.32 172.785C150.406 171.739 151.867 172.977 153.052 171.876L152.262 170.693C152.677 169.069 154.237 169.262 155.086 168.271V167.115L153.645 165.409L152.638 166.51L151.611 165.409C150.801 166.179 151.315 167.225 151.137 168.161L149.873 169.757L147.207 168.161C147.423 167.008 147.955 166.02 148.688 165.409L149.715 166.51C150.564 165.739 149.952 164.666 150.387 163.482L152.164 161.253V160.125C152.857 159.806 153.52 159.372 154.138 158.831C154.948 157.868 156.113 159.079 156.784 158.033C157.456 156.987 158.305 157.537 158.759 156.904C158.877 156.299 158.996 155.776 159.114 155.226L160.793 154.51L159.529 151.758L162.649 151.042C162.649 150.574 162.827 150.051 162.945 149.391C163.498 148.538 164.387 149.143 165.433 148.896L167.822 145.813V144.107C168.968 142.786 169.659 140.887 171.614 140.887C171.614 140.226 171.811 139.703 171.93 139.07C172.502 138.217 173.371 138.822 174.2 138.63L175.563 140.171C175.109 141.685 174.181 142.483 172.384 142.153C172.821 143.348 173.329 144.49 173.904 145.565C173.292 145.758 172.522 145.565 173.193 146.694C173.454 146.348 173.692 145.97 173.904 145.565L176.491 144.107C176.589 143.176 176.734 142.256 176.925 141.354C176.925 141.134 177.439 141.079 177.656 140.777C177.814 141.52 177.656 142.428 178.604 141.63C178.299 141.321 177.983 141.036 177.656 140.777C177.261 139.18 175.8 138.41 174.694 136.676L176.669 135.685L178.643 136.813C178.821 137.777 178.308 138.822 179.157 139.813C179.67 138.52 180.144 137.309 180.598 136.07C180.598 135.933 180.598 135.712 180.48 135.547C179.808 134.694 178.939 135.327 178.189 135.107C178.071 134.859 177.834 134.364 177.873 134.336C178.17 134.07 178.405 133.688 178.549 133.238C178.692 132.789 178.739 132.29 178.683 131.804C178.683 131.364 178.92 130.924 179.196 130.098C179.532 131.199 179.729 131.887 179.927 132.575C180.855 133.125 181.329 132.575 181.901 131.749L180.559 129.63C180.736 127.786 182.237 127.098 183.106 125.804L183.955 126.823H186.068L187.509 125.254C187.154 124.786 186.838 124.346 186.561 124.016C186.364 123.025 186.897 122.557 187.272 121.924C187.544 121.318 187.75 120.66 187.884 119.97H189.069C189.565 119.28 190.027 118.545 190.451 117.768C191.202 116.144 191.261 116.309 192.643 115.263C194.025 114.218 195.941 113.805 196.75 111.796C197.26 111.832 197.771 111.777 198.271 111.631C198.429 112.374 198.271 113.282 199.219 112.484L198.271 111.631C198.271 110.86 198.271 109.924 198.271 108.878L200.976 107.034H204.175V108.823L202.2 109.979C202.319 110.557 202.437 111.08 202.615 111.906L206.011 110.172L206.584 108.19H208.559C209.302 106.281 210.391 104.678 211.718 103.539C212.488 103.374 213.377 103.952 213.969 102.961V101.695C217.286 100.759 218.037 97.1539 219.36 94.2091H220.525C221.433 92.31 223.724 91.622 223.862 88.9523C225.145 87.3285 226.745 86.0075 227.238 83.7231H229.489C229.532 83.1816 229.654 82.658 229.848 82.1847C230.041 81.7114 230.302 81.2983 230.615 80.9709C230.812 80.7783 230.615 79.9526 230.496 79.2646C229.633 80.0952 228.736 80.8578 227.811 81.5489C226.803 82.5682 225.547 82.9933 224.316 82.7323C223.822 83.8607 222.223 83.5855 222.045 84.3837C221.749 85.8423 220.86 86.5304 220.248 87.6038C219.733 88.6726 219.277 89.7952 218.886 90.9615C218.432 92.0899 217.938 93.2183 217.464 94.3742L216.417 93.2458L215.035 94.8971C215.035 96.1631 214.917 97.4842 214.858 98.8878L212.409 99.163L211.027 100.814V101.97C210.043 102.295 209.13 102.942 208.361 103.856C207.592 104.769 206.989 105.925 206.604 107.227H204.155L203.069 104.475C203.859 103.319 204.748 103.924 205.597 103.704L206.979 102.163C206.979 101.282 206.979 99.9061 207.315 99.4107C208.697 98.2548 207.315 95.8329 209.013 94.9522C208.322 93.6311 207.334 94.4843 206.327 94.4568C206.327 94.9522 206.15 95.4751 206.031 96.1081C205.458 96.4659 204.748 96.7962 204.056 97.2915C203.365 97.7869 202.911 99.0254 201.687 99.053C201.095 99.053 200.423 100.209 199.969 100.98C199.179 102.301 197.757 102.328 196.829 103.374C196.474 103.787 195.625 103.594 194.736 103.704C193.746 105.116 192.506 106.141 191.142 106.677C190.037 107.227 188.97 107.943 187.845 108.466C186.719 108.988 185.989 110.282 184.804 110.97C183.492 112.029 182.306 113.366 181.289 114.933C179.492 115.897 177.616 116.722 175.938 117.906C175.049 118.511 173.963 119.392 174.595 121.071H173.016C172.324 121.951 171.594 122.997 170.745 123.823C169.896 124.649 169.639 125.612 168.454 125.749C167.269 125.887 167.092 127.896 165.828 128.006C164.564 128.116 164.406 129.465 163.577 129.988C162.748 130.511 161.602 130.979 160.674 131.529C159.746 132.08 159.075 132.492 157.989 133.153C157.268 133.977 156.594 134.879 155.975 135.85C154.829 137.832 152.677 138.162 151.532 139.978C150.387 141.795 148.195 142.125 147.01 144.024C146.595 144.74 145.647 144.602 145.035 145.208C144.221 145.689 143.435 146.259 142.686 146.914C142.016 148.076 141.071 148.867 140.02 149.143C139.033 149.281 138.697 151.125 137.413 151.455C136.422 151.848 135.468 152.402 134.57 153.106V154.51C133.656 154.482 132.746 154.687 131.884 155.116C131.213 155.749 130.265 155.666 129.91 156.326C129.554 156.987 128.073 156.849 127.481 157.895C126.959 158.67 126.384 159.37 125.763 159.987C125.763 160.345 125.763 160.73 125.763 161.143C124.875 161.748 123.966 162.381 123.058 162.959C122.895 163.001 122.727 163.001 122.564 162.959H121.537L118.872 166.455H116.305L113.856 169.427V170.748C112.597 171.238 111.374 171.893 110.203 172.702C109.275 173.638 108.422 174.708 107.656 175.895H105.444C104.832 176.996 104.694 178.399 103.47 179.28H101.693C101.693 179.28 101.396 179.28 101.337 179.473C100.152 181.592 97.6249 181.592 96.7364 183.876L94.7618 182.225L93.3203 184.977H90.8125C90.5387 185.981 90.1208 186.897 89.5844 187.668C89.0479 188.44 88.4042 189.05 87.6926 189.463L85.8168 190.729L84.8887 189.931L82.6771 193.344H79.9522L77.168 196.646C75.0946 197.197 73.515 199.399 71.1257 199.206L69.1511 201.545H67.1172L64.3528 204.876C63.3852 205.398 61.8845 204.132 61.5093 206.142H49.6617L48.5756 207.325H45.594L44.4684 208.563L43.7971 206.334H42.5926C41.783 207.215 42.2964 208.233 42.1187 209.086C41.8817 209.307 41.6645 209.719 41.4078 209.719C40.1243 209.719 38.8408 209.719 37.6955 209.719L35.7209 207.435C34.6349 208.646 35.5432 210.187 35.168 211.343L33.6871 213.325L32.2259 212.912L33.2329 211.508C32.2456 210.105 30.8041 211.508 29.5404 210.628C29.5404 210.242 29.3824 209.719 29.3034 209.252C29.6786 208.756 29.9945 208.371 30.3895 207.82L28.9283 207.297L27.9212 209.747L26.9734 208.701C25.8281 208.206 24.3472 208.894 22.8662 208.453L21.563 206.912C21.7407 206.197 22.649 206.031 22.4713 205.096C23.4783 204.408 23.4783 204.408 23.0439 202.866C21.9974 203.279 22.649 204.325 22.4713 205.096H21.0101C19.9043 202.536 18.8183 199.977 17.673 197.362C18.5813 196.096 20.0425 197.362 21.2075 196.701C21.8789 195.738 21.3458 195.105 20.8126 194.307C20.2795 193.509 20.3584 193.151 21.3852 192.27C22.412 191.39 22.9057 194.83 24.3472 192.931C24.1102 192.573 23.8733 192.188 23.5968 191.803C24.0312 190.289 26.0848 189.959 25.3542 187.812L28.1779 187.454C28.1779 186.904 28.3359 186.381 28.4149 185.913L26.9734 184.206C26.2823 184.482 26.0058 185.858 24.9988 185.17C23.9917 184.482 24.5446 183.243 24.6828 182.197C24.6828 182.005 25.1962 181.895 25.4332 181.619C25.5912 182.362 25.4332 183.243 26.381 182.473C26.0784 182.16 25.7618 181.875 25.4332 181.619C25.4332 180.821 25.4332 179.858 25.4332 178.867L27.0919 178.179C27.7435 177.381 27.2301 176.39 27.4078 175.427L28.3754 174.216V173.06L28.0397 172.675C27.5454 173.133 26.9904 173.45 26.4072 173.606C25.824 173.762 25.2243 173.754 24.6434 173.583C24.6434 174.464 24.5249 174.986 24.4656 175.592L26.2428 176.335C26.1676 176.603 26.0751 176.861 25.9663 177.106C24.8408 176.693 24.4656 178.372 23.4783 178.344L22.5108 176.335V174.106C23.893 173.253 23.1821 170.666 25.1173 170.308L25.9269 171.161L26.9536 170.033H28.9283L29.5404 172.234L32.1666 170.721C31.7717 169.482 30.3697 169.179 30.192 167.693H32.8775C32.9762 167.088 33.0749 166.427 33.1934 165.657L31.5742 165.244C31.278 165.023 31.2188 164.776 31.5742 164.473C32.6208 163.427 32.2851 161.06 34.3979 160.647L35.8591 161.803L39.1567 156.299V154.372C41.5065 152.914 41.5065 152.914 42.5728 150.244L43.4811 151.235L48.003 148.483V146.006L49.7999 145.263C49.7999 144.822 49.9776 144.299 50.0763 143.666L51.3796 142.098L53.7294 141.905C53.8478 140.804 53.9466 139.868 54.0256 138.988L59.8112 135.85L58.8436 134.584C60.0086 132.74 62.2992 132.63 63.2272 130.511H65.3598C65.49 129.81 65.6964 129.142 65.9719 128.529C66.4987 127.787 67.0738 127.114 67.6899 126.52L66.5446 124.841L69.388 124.318L69.7632 122.639L72.6461 119.337C72.1722 119.172 71.6983 118.759 71.4021 118.896C70.3981 119.234 69.4562 119.862 68.6377 120.74C66.8803 123.272 63.8394 123.905 62.5361 127.126C62.003 126.603 61.6673 126.3 61.3316 125.942C61.1189 126.175 60.8946 126.387 60.6602 126.575L57.7773 128.171C57.6267 128.201 57.4738 128.201 57.3232 128.171L53.4727 132.74C53.0988 132.692 52.7223 132.775 52.3775 132.982C52.0326 133.189 51.7303 133.512 51.4981 133.923C50.2738 133.593 49.8789 134.942 49.1088 135.547C48.4725 136.033 47.8127 136.456 47.1342 136.813C47.1342 137.199 47.1342 137.556 47.1342 138.024L36.3133 144.464C35.1483 144.189 34.8718 142.813 33.8648 142.373L32.3443 143.446L30.8831 142.208L29.8761 143.281H27.9015L27.3091 145.29C26.1441 146.419 25.6504 144.85 25.058 144.437C24.2287 144.437 23.5376 144.437 23.6166 145.62H20.0425L18.9762 144.437H16.7252L15.264 142.153C13.4868 141.905 13.1709 143.584 12.2823 144.299C11.374 144.134 11.8281 143.171 11.4135 142.345C10.9988 141.52 10.0707 142.345 9.04394 141.85L8.2146 140.969H5.23294L3.92969 139.043V136.703L1.95508 134.997V133.373C1.63915 132.96 1.32321 132.547 0.90854 132.052L2.1328 131.502C3.67299 132.41 4.24563 134.529 5.82532 134.887C6.00303 135.63 5.92405 136.538 6.77313 135.74C6.51643 135.492 6.23999 135.217 5.82532 134.887C5.85918 134.347 5.85918 133.803 5.82532 133.263C4.93675 132.217 3.6335 131.309 3.19909 130.015C2.64236 128.635 1.8899 127.427 0.987525 126.465L2.80417 122.474V120.768C3.19909 119.997 3.49528 119.364 3.81122 118.731H4.79852V120.493C4.9924 120.824 5.26836 121.041 5.57185 121.103C5.87533 121.164 6.18423 121.064 6.43745 120.823C6.95085 120.355 7.32602 119.722 8.13561 119.942C8.63814 120.799 9.08113 121.721 9.4586 122.694C9.6648 123.587 9.79082 124.511 9.83378 125.447C10.4854 126.327 11.3937 125.447 12.0651 125.942C12.302 125.557 12.618 125.254 12.618 124.979C12.618 123.052 12.618 121.153 12.618 119.474C13.2696 118.484 13.9805 119.006 15.3034 117.548C15.7971 117.135 15.5799 117.768 15.4219 118.456C15.264 119.144 13.783 118.731 14.9875 119.915H18.4628C18.759 117.988 17.9099 117.163 15.3429 117.548C14.6123 118.263 14.6123 117.548 14.6123 117.135L13.6448 115.896C13.8943 115.667 14.1672 115.49 14.4544 115.374C15.6589 115.153 17.0806 115.979 17.9692 114.3C19.0157 114.08 20.2597 114.548 20.9508 113.089C22.2738 113.337 22.3923 112.291 22.649 111.135C22.807 110.475 23.4783 110.007 23.8338 109.539H26.8747L27.8817 108.41L28.948 109.511C29.3429 108.603 30.3895 108.383 30.192 107.255C30.8239 107.062 31.5742 107.255 30.9226 106.126C30.6607 106.478 30.4166 106.855 30.192 107.255C29.7378 107.062 29.0665 107.502 28.5136 106.787C28.6856 106.286 28.9396 105.848 29.2551 105.508C29.5706 105.169 29.9389 104.938 30.3302 104.833C31.0369 104.563 31.7048 104.125 32.3048 103.539C32.4628 104.282 32.3048 105.19 33.2527 104.392C32.9532 104.074 32.6362 103.789 32.3048 103.539C32.4431 102.19 33.2329 102.466 34.0228 102.741L34.6546 104.805C35.8394 104.2 36.2343 102.218 37.7943 102.493L40.4007 99.4107L39.3345 97.1815C39.9861 96.3833 40.6772 95.5577 41.5855 94.4292C41.9804 94.0715 42.869 94.4292 43.4416 93.466C44.0143 92.5027 45.278 93.6311 46.0876 92.6403C46.7003 92.0989 47.3652 91.6819 48.0622 91.4018L47.0749 90.1358C47.0749 89.723 47.0749 89.3376 47.0749 88.8147L48.6546 88.2643L53.2555 82.7599C54.7364 82.7599 55.3683 81.2737 56.3161 80.2829C57.4416 80.7783 57.8366 78.9893 58.8436 79.0994C59.0407 79.1218 59.2389 79.1218 59.436 79.0994L60.0284 77.0628L61.3514 76.705L63.1483 74.5858L66.4459 74.3931C66.4459 73.7326 66.6433 73.2097 66.7618 72.5216L68.4007 71.8336C68.4007 71.3107 68.6179 70.7877 68.7364 70.2648L72.4092 68.2282C74.2857 65.4901 76.6503 63.4956 79.2611 62.4485L79.5968 60.9623L87.1793 56.5588C89.276 53.4238 92.049 51.3271 95.0777 50.5865L94.0706 49.2379L96.1835 48.5499L98.2963 45.3573H100.863L103.746 41.8895H107.518C107.676 41.2565 107.853 40.596 108.071 39.7703L109.512 39.4125L110.006 37.7337L120.609 31.266H122.189L125.803 26.9725L128.488 25.4588H129.969L132.102 23.0093H134.649L137.334 21.358C137.334 20.78 137.532 20.2571 137.65 19.5415H140.968C141.461 18.1654 141.6 16.7893 143.436 16.0738H146.674C147.03 15.6884 147.523 14.8628 147.721 14.9454C149.083 15.5508 149.419 12.9362 150.742 13.6518L153.585 10.2941L154.612 11.3124L155.619 10.2115C156.089 10.2363 156.559 10.1901 157.021 10.0739C157.179 10.7895 157.021 11.6977 157.969 10.8996C157.664 10.6009 157.348 10.3252 157.021 10.0739C157.184 9.83025 157.317 9.55142 157.416 9.24827C158.522 9.00057 159.647 8.64279 160.418 10.1015C160.615 9.9088 160.97 9.71615 160.97 9.49597C160.97 7.89969 161.839 7.23916 162.945 6.74376C163.551 6.40109 164.144 6.01527 164.722 5.58783H167.408L168.099 6.41349C168.37 6.57423 168.656 6.68525 168.948 6.74376H175.721C175.721 7.15659 175.721 7.5419 175.721 7.92721H174.516L172.542 9.57854C172.998 10.0313 173.532 10.3101 174.089 10.3873C174.647 10.4645 175.209 10.3375 175.721 10.0189C175.721 9.4134 175.82 8.69783 175.839 8.00978C177.059 8.11565 178.284 8.04185 179.492 7.7896C179.492 7.56942 179.67 7.34925 179.631 7.2942L177.143 4.37686C176.973 5.08386 176.769 5.77358 176.53 6.44102C176.53 6.66119 176.017 6.71624 175.741 6.82633C175.622 5.39518 174.24 5.03739 173.766 3.66128C175.447 3.33308 177.143 3.1767 178.841 3.19341L177.814 1.67969C178.071 0.716414 178.702 0.991636 179.354 1.12925C179.552 1.76226 179.769 2.42279 179.966 3.11084L181.329 3.52367C182.04 4.32181 181.329 5.36765 181.684 6.27588L180.598 7.73456L181.98 8.22995L183.106 6.99146L184.152 8.14739C184.922 8.34004 185.791 7.73456 186.502 8.67031L185.594 9.77119V16.8444L187.213 17.5324C187.845 18.7709 187.391 20.2846 187.549 21.4406L188.437 22.4864C188.437 22.9818 188.437 23.6974 188.437 24.3854C187.827 25.4095 187.517 26.7168 187.568 28.0459C187.568 28.211 187.568 28.4862 187.43 28.5413C185.594 29.9724 185.594 33.0274 183.619 34.0182V36.5227L181.645 38.807V43.4583L179.67 45.7977V50.5315L178.663 51.8525V54.6047L176.688 56.8065C176.57 57.6597 176.985 58.7055 176.254 59.5587C175.602 59.0633 175.207 57.99 174.279 58.4578C173.944 59.256 173.568 60.0266 173.253 60.8523C173.063 61.5354 172.825 62.1901 172.542 62.8063C172.068 63.6045 171.199 64.1274 170.942 64.953C170.815 65.7006 170.534 66.3799 170.133 66.9071C169.506 67.5128 168.923 68.2043 168.395 68.9713C167.625 70.1547 166.223 70.7327 165.946 72.4115C165.556 72.5088 165.187 72.7308 164.868 73.0603C164.55 73.3898 164.29 73.8178 164.11 74.3106C164.801 74.9986 165.433 75.0537 165.966 74.0629C165.966 73.5124 165.966 72.962 165.966 72.4115C166.815 72.1914 166.894 73.4023 168.198 73.54H169.442C170.291 72.7693 169.678 71.696 170.113 70.485C171.037 70.3621 171.939 70.0176 172.779 69.4667C173.687 68.586 174.753 69.3015 175.444 68.7786C176.135 68.2557 175.602 66.8521 175.879 65.7787C176.234 65.7787 176.886 65.2833 177.083 65.476C177.855 66.0915 178.668 66.5986 179.512 66.9897C179.69 66.9897 179.67 67.6502 179.69 67.7603L175.741 72.4666L175.168 72.6317L174.457 74.9436L173.45 72.4391C172.324 73.2097 173.272 74.6133 172.719 75.5491C172.166 76.4848 171.179 75.6867 170.429 75.9344L169.54 76.9802L167.21 77.1729C167.072 78.1912 166.934 79.2646 166.815 80.2554C165.788 81.081 165.255 80.2553 164.623 79.4847L163.557 80.5306H160.556L157.1 85.0993C157.119 85.3094 157.119 85.5221 157.1 85.7323C155.994 86.7506 154.336 86.8056 153.882 88.8698L152.697 87.6313C152.002 89.4139 150.944 90.8696 149.656 91.8146L148.59 90.5486L147.227 93.0256H145.805C144.621 95.7778 144.621 95.7778 142.37 97.0714C142.37 97.4567 142.37 97.842 142.37 98.3924L141.6 98.6952L137.413 103.649C137.413 104.2 137.591 104.833 138.875 104.723C139.783 103.924 140.652 102.521 141.856 101.337H143.831L145.213 98.9154C145.874 98.9759 146.537 98.9204 147.188 98.7502C147.346 99.4933 147.188 100.402 148.135 99.6034C147.879 99.3557 147.602 99.0805 147.188 98.7502C147.188 97.7594 148.195 97.4842 148.609 96.7136C149.853 97.0989 150.367 95.4476 151.552 95.3375C152.736 95.2274 152.914 93.3284 154.079 92.9431C154.237 93.6861 154.079 94.5669 155.027 93.7962C154.724 93.4841 154.408 93.1991 154.079 92.9431H154ZM116.68 123.217C116.897 124.126 116.818 125.034 117.687 124.236C117.424 123.932 117.122 123.699 116.798 123.548C116.621 122.805 117.272 121.731 116.226 121.318C115.791 122.86 115.791 122.86 116.68 123.217ZM156.172 171.326C156.804 171.133 157.693 171.904 158.147 170.666C156.844 170.143 156.844 170.143 156.547 171.216C155.777 171.464 155.027 171.381 155.678 172.399C155.93 172.106 156.132 171.74 156.271 171.326H156.172ZM159.707 162.024C160.121 161.336 160.951 161.005 160.99 159.822H157.357C157.159 160.675 156.014 160.813 156.251 162.767C155.68 161.916 154.936 161.33 154.119 161.088C154.119 161.831 154.237 162.464 154.336 163.345C154.678 163.318 155.011 163.185 155.311 162.957C155.612 162.728 155.872 162.409 156.073 162.024H159.707ZM197.441 117.548C195.467 118.181 195.467 120.548 194.519 122.144C194.401 122.337 194.677 122.805 194.815 123.355C195.121 123.005 195.452 122.701 195.803 122.447C196.336 122.144 196.908 121.979 197.441 121.759V117.575C198.449 116.887 198.449 116.887 198.014 115.346C196.968 115.786 197.619 116.832 197.441 117.548ZM181.645 213.16H183.205L184.231 212.004H186.206C187.924 210.077 187.884 210.05 187.134 208.563C185.673 210.6 182.671 210.16 182.059 213.022C181.309 213.297 180.539 213.215 181.21 214.233C181.459 213.971 181.628 213.588 181.684 213.16H181.645ZM475.407 90.7688H472.979L471.912 91.8146H470.352L467.647 93.466C467.68 93.6028 467.727 93.7325 467.785 93.8513C467.897 93.9825 468.024 94.085 468.161 94.154H471.024C471.735 92.5853 472.998 93.1357 474.025 92.8605C474.44 92.0899 475.407 91.7871 475.407 90.6587C476.02 90.4385 476.908 91.2092 477.283 89.9707C475.98 89.4477 475.98 89.4477 475.407 90.6587V90.7688ZM37.2611 169.482C37.0151 169.231 36.7418 169.035 36.4515 168.904C36.1493 168.889 35.8477 168.955 35.563 169.097C34.6546 171.656 34.6546 171.656 32.5418 172.675L31.9692 174.629H30.9226C29.8016 175.643 28.9703 177.171 28.5728 178.95C28.9798 179.253 29.4342 179.412 29.8958 179.412C30.3574 179.412 30.8118 179.253 31.2188 178.95C31.2188 178.069 31.3768 177.161 31.4558 176.197L35.1878 174.106C34.8718 172.042 37.1624 171.711 37.2611 169.4V169.482ZM255.811 39.5226L257.292 37.7887L255.989 35.9723L253.757 36.1099L252.237 38.0089C252.79 39.1648 251.822 40.7611 252.869 41.862L254.093 41.6693L254.705 39.5226H255.811ZM167.822 152.143C169.639 153.437 169.994 150.547 171.317 151.345C171.317 151.345 171.633 150.767 171.851 150.354L170.35 146.859L168.849 148.455V150.795L167.842 152.171L167.822 152.143ZM31.7914 208.508C32.5813 208.316 33.4106 208.866 34.161 208.068L33.2921 206.444C33.0947 205.178 33.7858 203.692 32.759 202.619L31.9099 204.903L30.4487 205.233C30.9424 206.417 31.3768 207.463 31.7914 208.508ZM271.035 183.931V182.087C270.305 182.087 270.324 180.573 269.337 180.766C269.1 181.509 268.903 182.197 268.725 182.83H266.75C266.296 183.518 265.506 183.849 265.427 184.867C266.632 186.078 267.086 184.316 268.113 183.931H271.035ZM485.379 96.4934C485.201 95.4751 485.122 94.9522 485.024 94.4292C483.76 94.021 482.436 94.1651 481.232 94.8421C481.232 95.3925 481.41 95.9154 481.489 96.4934H485.379ZM170.034 155.116L167.625 156.739L168.316 158.501H169.422L170.291 156.189C171.001 156.189 171.001 156.189 171.673 155.308C171.155 155.001 170.581 154.934 170.034 155.116ZM480.048 101.53C479.375 101.823 478.716 102.172 478.073 102.576C477.46 103.088 476.873 103.658 476.316 104.282C476.434 104.44 476.559 104.587 476.691 104.723C476.817 104.824 476.96 104.881 477.106 104.888C478.192 104.365 479.238 103.787 480.344 103.236L480.087 101.53H480.048ZM153.151 18.8535C151.354 17.8902 150.999 19.5966 150.13 20.3397C150.13 20.8076 150.308 21.3305 150.406 21.8809L153.151 20.2571V18.8535ZM261.221 36.5502C260.798 36.0552 260.263 35.7838 259.711 35.7838C259.158 35.7838 258.623 36.0552 258.2 36.5502C258.2 37.0456 258.378 37.5685 258.457 38.0364C259.503 38.0364 260.432 38.7245 261.221 37.6236V36.5502ZM275.044 170.583C274.211 169.601 273.341 168.682 272.437 167.831C272.195 168.299 272.064 168.863 272.064 169.441C272.064 170.019 272.195 170.582 272.437 171.051C273.326 171.243 274.234 171.656 275.103 170.638L275.044 170.583ZM452.364 101.31C452.818 100.677 453.568 100.291 453.706 99.3557C453.268 99.0655 452.787 98.9266 452.302 98.9505C451.818 98.9745 451.344 99.1606 450.922 99.4933C450.922 100.044 451.1 100.704 451.199 101.31H452.364ZM169.797 99.6034L171.219 100.291L172.719 97.5393C172.719 97.5393 173.095 96.7962 172.186 96.631L169.797 99.3832V99.6034ZM192.288 123.575L190.313 124.924C190.57 125.749 190.728 126.217 190.866 126.63L193.374 124.869L192.288 123.575ZM138.203 219.022C137.018 219.022 136.229 219.022 136.466 220.976L138.144 222.214C138.776 221.554 138.341 220.453 138.144 219.022H138.203ZM461.032 97.0439C457.735 96.5485 457.735 96.5484 456.293 98.0071C458.11 97.4842 459.295 98.2273 461.032 97.0439ZM134.57 107.255L136.545 106.814C136.406 106.016 136.308 105.356 136.189 104.64L134.609 104.998L134.57 107.255ZM189.405 126.74L187.43 127.181C187.549 127.979 187.667 128.639 187.786 129.355L189.365 128.997L189.405 126.74ZM182.711 135.217L184.686 134.777C184.547 133.979 184.449 133.346 184.33 132.602L182.75 132.96L182.711 135.217ZM184.508 138.382L182.533 138.822C182.671 139.648 182.77 140.281 182.889 141.024L184.488 140.639L184.508 138.382ZM162.135 166.427C161.958 165.409 161.879 164.886 161.76 164.143L159.924 164.556C160.042 165.326 160.121 165.849 160.22 166.427H162.135ZM350.415 168.078L348.618 169.207L350.118 171.243C350.928 170.005 350.948 168.849 350.415 168.078ZM259.109 177.133C259.267 178.152 259.365 178.674 259.484 179.445L261.32 179.032C261.202 178.234 261.103 177.711 261.024 177.133H259.109ZM121.103 120.107C121.893 119.089 121.853 118.456 121.281 117.575L119.899 117.823L121.103 120.107ZM446.914 103.016C446.497 102.537 445.973 102.276 445.433 102.276C444.892 102.276 444.369 102.537 443.952 103.016C444.372 103.485 444.894 103.741 445.433 103.741C445.971 103.741 446.493 103.485 446.914 103.016ZM131.845 110.887C132.418 109.897 133.207 109.566 133.326 108.603C133.057 108.32 132.723 108.187 132.387 108.227C132.052 108.268 131.739 108.48 131.509 108.823C131.509 109.346 131.707 109.979 131.845 110.887ZM188.793 135.3C189.425 134.391 190.155 134.034 190.313 133.098C190.049 132.808 189.717 132.665 189.382 132.695C189.047 132.726 188.731 132.928 188.497 133.263C188.497 133.813 188.674 134.446 188.793 135.3ZM204.313 59.2835C203.952 59.2406 203.588 59.2406 203.227 59.2835C202.951 59.3872 202.681 59.5159 202.417 59.6688C202.517 59.948 202.643 60.2072 202.793 60.4394C203.089 60.8523 203.444 61.21 203.977 61.8155C203.977 60.9623 204.175 60.3018 204.313 59.256V59.2835ZM127.461 112.236C127.729 112.641 128.099 112.884 128.494 112.915C128.888 112.946 129.276 112.762 129.574 112.401C129.574 111.878 129.416 111.218 129.396 111.108L127.422 112.236H127.461ZM31.7125 114.135C32.4628 113.309 32.4826 112.539 31.7125 111.768C31.2978 112.429 30.5277 112.759 30.3895 113.86L31.6532 114.135H31.7125ZM216.062 90.2734C215.794 89.8688 215.424 89.6253 215.03 89.5945C214.635 89.5636 214.248 89.7479 213.949 90.1083C213.949 90.6312 214.107 91.2917 214.127 91.4018L216.102 90.2734H216.062ZM191.281 206.334C190.353 206.554 190.056 207.408 189.504 207.93C189.628 208.124 189.78 208.28 189.95 208.386C190.12 208.492 190.304 208.547 190.491 208.547C190.677 208.547 190.862 208.492 191.032 208.386C191.202 208.28 191.354 208.124 191.478 207.93C191.478 207.463 191.32 206.94 191.241 206.417L191.281 206.334ZM285.252 157.29C284.542 158.06 284.542 158.859 285.252 159.629C285.963 158.859 285.963 158.06 285.252 157.29ZM237.862 171.051C238.336 170.803 239.126 172.207 239.481 170.666C239.369 170.501 239.23 170.377 239.076 170.306C238.922 170.234 238.758 170.216 238.597 170.255C238.437 170.293 238.286 170.385 238.158 170.524C238.03 170.663 237.928 170.844 237.862 171.051ZM270.857 170.418H270.226C270.154 170.937 270.101 171.46 270.068 171.987C270.068 171.987 270.324 172.372 270.384 172.344C270.443 172.317 270.996 172.097 271.015 171.932C271.002 171.411 270.949 170.895 270.857 170.39V170.418ZM141.836 192.408C142.547 191.61 142.547 190.839 141.836 190.069C141.145 190.839 141.145 191.61 141.836 192.408ZM129.989 210.958C129.357 212.031 129.08 212.774 130.147 213.242C130.68 212.554 130.64 211.921 129.989 210.958ZM440.003 105.548C440.123 105.75 440.274 105.913 440.445 106.025C440.615 106.136 440.801 106.194 440.99 106.194C441.178 106.194 441.365 106.136 441.535 106.025C441.706 105.913 441.857 105.75 441.977 105.548C441.853 105.354 441.701 105.199 441.531 105.093C441.361 104.987 441.176 104.932 440.99 104.932C440.803 104.932 440.619 104.987 440.449 105.093C440.279 105.199 440.127 105.354 440.003 105.548ZM165.71 152.914C165.216 153.161 164.426 151.758 164.071 153.299C164.184 153.463 164.325 153.586 164.48 153.658C164.636 153.729 164.802 153.747 164.963 153.709C165.124 153.671 165.277 153.579 165.407 153.44C165.537 153.301 165.641 153.121 165.71 152.914ZM162.471 154.785C161.839 155.859 161.563 156.602 162.629 157.07C163.162 156.382 163.123 155.749 162.471 154.785ZM250.559 40.2382L250.894 40.651C251.022 40.4033 251.128 40.1354 251.21 39.8529C251.21 39.8529 251.013 39.6052 250.894 39.4676L250.559 40.2382ZM255.673 41.6418L256.305 41.229C256.186 41.229 256.068 40.8437 255.989 40.8712C255.755 40.9492 255.529 41.0695 255.317 41.229L255.673 41.6418ZM265.289 43.7335L265.645 44.1463C265.766 43.8981 265.866 43.6301 265.941 43.3482C265.941 43.3482 265.743 43.1005 265.645 42.9629L265.289 43.7335ZM223.111 48.3847L223.467 48.7976C223.598 48.5633 223.705 48.3037 223.783 48.0269C223.783 48.0269 223.585 47.7517 223.467 47.6416L223.111 48.3847ZM188.457 69.0263L188.102 68.6135C187.974 68.8612 187.868 69.1291 187.786 69.4116C187.786 69.4116 187.983 69.6593 188.102 69.797L188.457 69.0263ZM190.214 69.6043L190.55 69.1915C190.341 69.044 190.123 68.9242 189.898 68.8337C189.898 68.8337 189.681 69.0814 189.583 69.1915C189.787 69.3456 189.998 69.4834 190.214 69.6043ZM157.219 79.87L157.574 80.2829C157.696 80.0347 157.795 79.7666 157.87 79.4847C157.87 79.4847 157.673 79.237 157.574 79.0994L157.219 79.87ZM479.673 89.778L479.337 90.1908C479.546 90.3383 479.764 90.4581 479.988 90.5486C479.988 90.5486 480.206 90.3009 480.304 90.1908L479.673 89.778ZM210.968 93.8513L210.612 93.1082C210.612 93.1082 210.296 93.3834 210.316 93.466C210.387 93.7504 210.486 94.0192 210.612 94.2641L210.968 93.8513ZM44.0933 95.998C43.9748 95.998 43.8563 95.6127 43.7576 95.6402C43.534 95.7355 43.3161 95.8551 43.106 95.998C43.2244 95.998 43.3429 96.4108 43.4219 96.3833C43.6567 96.2957 43.8823 96.1662 44.0933 95.998ZM474.756 95.5852L474.42 95.998C474.624 96.166 474.843 96.2955 475.072 96.3833C475.072 96.3833 475.289 96.1356 475.407 95.998L474.756 95.5852ZM45.3965 102.246L46.0284 101.833C46.0284 101.833 45.7914 101.447 45.7124 101.475C45.4877 101.565 45.2695 101.685 45.0608 101.833L45.3965 102.246ZM43.2244 102.851L43.5799 103.594C43.6786 103.456 43.8958 103.291 43.8761 103.209C43.801 102.927 43.7016 102.659 43.5799 102.411L43.2244 102.851ZM40.0058 106.346L39.6504 105.933C39.519 106.168 39.4125 106.427 39.3345 106.704C39.3345 106.704 39.5319 106.952 39.6504 107.089C39.7689 107.227 39.8873 106.566 40.0058 106.346ZM169.797 114.658C169.797 114.658 169.56 114.273 169.481 114.3C169.253 114.378 169.034 114.499 168.829 114.658C168.829 114.796 169.066 115.043 169.145 115.016C169.373 114.938 169.592 114.817 169.797 114.658ZM130.305 115.649L129.949 115.236C129.828 115.484 129.728 115.752 129.653 116.034C129.653 116.034 129.851 116.282 129.949 116.419L130.305 115.649ZM17.0806 122.254C16.9621 122.254 16.7449 122.529 16.7647 122.612C16.8469 122.894 16.953 123.162 17.0806 123.41C17.1793 123.41 17.3965 123.107 17.3768 123.025C17.2978 122.754 17.1985 122.496 17.0806 122.254ZM5.9043 125.309L6.25973 125.749C6.39316 125.467 6.49939 125.162 6.57567 124.841C6.57567 124.841 6.37821 124.593 6.25973 124.456C6.14126 124.318 6.02278 124.979 5.9043 125.199V125.309ZM184.449 131.034L184.093 130.346C183.975 130.346 183.777 130.621 183.777 130.731C183.855 131.008 183.962 131.267 184.093 131.502L184.449 131.089V131.034ZM187.667 131.089L188.023 131.502C188.154 131.267 188.26 131.008 188.339 130.731C188.339 130.731 188.141 130.483 188.023 130.346L187.667 131.089ZM182.474 136.593C182.365 136.44 182.246 136.301 182.119 136.18C182.001 136.422 181.901 136.68 181.822 136.951C181.822 136.951 182.02 137.199 182.119 137.336L182.474 136.593ZM427.74 137.336C427.74 137.336 427.424 137.639 427.444 137.722C427.515 137.997 427.615 138.257 427.74 138.492C427.859 138.492 428.076 138.217 428.056 138.134C427.978 137.849 427.872 137.58 427.74 137.336ZM335.664 140.474L335.309 139.731C335.21 139.731 334.993 140.006 335.013 140.116C335.084 140.392 335.183 140.651 335.309 140.887L335.664 140.474ZM181.408 141.63L181.072 140.887C180.953 141.024 180.736 141.189 180.756 141.272C180.838 141.554 180.944 141.822 181.072 142.07L181.408 141.63ZM397.351 148.042L396.719 148.455C396.838 148.593 396.956 148.84 397.035 148.84C397.267 148.741 397.492 148.612 397.706 148.455L397.351 148.042ZM394.902 149.611C395.001 149.859 395.12 150.106 395.238 150.354C395.357 150.602 395.574 150.079 395.554 149.969C395.476 149.692 395.37 149.433 395.238 149.198L394.902 149.611ZM386.55 151.675L385.918 152.088C385.918 152.088 386.155 152.501 386.234 152.473C386.469 152.386 386.694 152.256 386.905 152.088L386.55 151.675ZM260.649 153.85C260.53 153.85 260.313 154.152 260.333 154.235C260.411 154.512 260.517 154.771 260.649 155.005C260.649 155.005 260.965 154.73 260.945 154.62C260.87 154.347 260.77 154.088 260.649 153.85ZM115.456 157.372L114.824 157.785C114.942 157.923 115.061 158.17 115.159 158.143C115.386 158.06 115.605 157.94 115.811 157.785L115.456 157.372ZM375.532 157.372C375.42 157.556 375.294 157.722 375.156 157.868C375.37 158.023 375.595 158.143 375.828 158.226C375.828 158.226 376.045 158.005 376.144 157.868L375.512 157.455L375.532 157.372ZM369.588 160.62L370.22 160.207C370.101 160.207 369.963 159.822 369.884 159.849C369.658 159.933 369.439 160.053 369.233 160.207L369.588 160.62ZM280.454 164.115L280.81 163.702C280.603 163.548 280.384 163.428 280.158 163.345C280.158 163.345 279.941 163.565 279.822 163.702L280.454 164.115ZM37.0637 166.124C36.9649 165.877 36.8465 165.629 36.728 165.381C36.6095 165.134 36.3923 165.657 36.412 165.767C36.4901 166.043 36.5965 166.303 36.728 166.537L37.0637 166.124ZM352.448 166.124L352.093 165.381C352.093 165.381 351.777 165.657 351.797 165.767C351.868 166.042 351.968 166.302 352.093 166.537L352.448 166.124ZM269.08 175.289C268.962 175.289 268.843 174.904 268.745 174.904C268.521 175.009 268.303 175.138 268.093 175.289C268.212 175.289 268.33 175.675 268.409 175.647C268.64 175.556 268.865 175.437 269.08 175.289ZM146.655 181.509C146.872 181.509 147.069 181.234 147.286 181.096C147.286 181.096 147.049 180.711 146.97 180.739C146.739 180.829 146.515 180.949 146.299 181.096L146.655 181.509ZM224.77 181.289L224.415 180.518C224.296 180.518 224.079 180.821 224.099 180.904C224.181 181.186 224.287 181.454 224.415 181.702L224.77 181.289ZM142.725 187.344L143.357 186.931C143.357 186.931 143.12 186.546 143.041 186.573C142.807 186.651 142.581 186.772 142.37 186.931L142.725 187.344ZM266.81 189.683L267.145 189.27C266.94 189.111 266.721 188.991 266.494 188.913C266.494 188.913 266.276 189.133 266.178 189.27L266.81 189.683ZM291.571 195.188L291.216 194.417C291.117 194.417 290.9 194.72 290.92 194.802C290.995 195.084 291.094 195.352 291.216 195.601L291.571 195.188ZM132.516 213.738C132.398 213.738 132.279 213.352 132.181 213.38C131.957 213.475 131.739 213.595 131.529 213.738C131.647 213.738 131.766 214.123 131.845 214.123C132.077 214.024 132.301 213.895 132.516 213.738ZM166.559 223.921L165.907 224.334C166.025 224.334 166.164 224.746 166.243 224.719C166.468 224.619 166.686 224.49 166.894 224.334L166.559 223.921ZM326.502 179.638L326.166 180.051C326.371 180.21 326.59 180.33 326.818 180.408C326.818 180.408 327.035 180.188 327.134 180.051L326.502 179.638Z" fill="#DFC59D"/>
    <path d="M9.69534 110.585V112.374L8.6093 113.502V118.456C7.35288 118.777 6.07205 118.87 4.79852 118.731C4.68005 118.429 4.62059 117.851 4.46262 117.823C3.87024 117.658 3.77173 118.181 3.81122 118.731L2.34979 118.731L1.30324 119.915H0.335684C0.217207 119.915 0 119.639 0 119.502C0 117.052 0 114.575 0 112.043C0.631875 112.594 0.908321 113.695 1.14527 116.227C1.99436 116.227 2.2708 115.181 2.84344 114.685V112.153L5.64739 110.007L6.12129 108.328H7.28631L8.17489 110.64L9.69534 110.585ZM5.48942 113.034C6.25952 112.786 7.00987 112.869 6.35825 111.851C6.12129 112.181 5.90409 112.484 6.04231 112.786C5.29196 113.034 4.52186 112.952 5.19323 113.97C5.41043 113.64 5.64739 113.337 5.48942 113.034ZM7.60225 114.493L7.24682 114.08C7.11539 114.314 7.00897 114.574 6.93088 114.851C6.93088 114.851 7.12834 115.126 7.24682 115.236L7.60225 114.493Z" fill="#DFC59D"/>
    <path d="M201.647 54.4946L198.804 54.6872L197.757 55.7881H195.23C194.144 56.4761 193.255 57.577 191.774 56.7514C191.379 56.4762 191.577 56.3385 191.774 55.8982C192.525 54.4946 194.223 54.9349 194.874 53.4762H196.987C197.125 50.724 198.962 50.036 201.292 48.9076H203.266C204.392 48.5223 204.846 46.8434 206.011 47.9168C206.347 48.9901 206.584 50.0635 205.833 51.0818L204.787 49.9809L203.385 51.6598L204.333 52.9533L202.812 53.6964C202.279 52.8157 201.726 51.8524 201.213 50.9442C199.613 52.3754 200.759 53.2836 201.726 54.4946" fill="#DFC59D"/>
    <path d="M17.5548 189.738H15.0273L13.803 186.766L15.3432 186.16C15.5604 185.527 15.7579 184.894 16.0541 183.986L17.614 187.206L17.5548 189.738Z" fill="#DFC59D"/>
    <path d="M213.061 42.9629C213.191 42.3872 213.43 41.8712 213.754 41.4692C214.077 41.0671 214.472 40.794 214.897 40.6785C216.022 40.2382 216.872 38.7795 218.214 39.4125L219.557 41.6143C218.767 42.2198 217.582 41.6143 216.556 41.807L215.509 42.9629H213.061Z" fill="#DFC59D"/>
    <path d="M289.616 54.9902L288.274 58.0727C288.116 58.0727 287.938 58.0727 287.8 58.0727C286.852 57.5497 285.825 57.0819 284.937 56.4764C284.552 56.1369 284.2 55.7299 283.89 55.2654C284.917 54.4397 284.917 54.4397 286.062 55.5131C287.128 55.0727 288.037 53.9719 289.597 54.9351" fill="#DFC59D"/>
    <path d="M222.894 37.7061V40.0179L224.039 41.4491L222.183 41.8894L221.788 39.7978L219.814 37.7887C220.242 37.3084 220.775 37.0465 221.324 37.0465C221.874 37.0465 222.407 37.3084 222.835 37.7887" fill="#DFC59D"/>
    <path d="M190.531 60.1643L188.892 60.5496L187.825 58.3754L188.911 57.0543H190.096C190.787 57.9626 190.313 58.9534 190.531 60.1643Z" fill="#DFC59D"/>
    <path d="M19.983 177.133C20.8716 177.133 21.6219 177.133 21.4442 179.115L18.6008 181.317C18.3441 181.014 18.4231 180.298 19.0155 179.445C19.4054 178.733 19.7304 177.957 19.983 177.133Z" fill="#DFC59D"/>
    <path d="M226.824 38.8894L225.481 40.5132C224.118 39.9353 225.244 38.5867 224.79 37.5959L223.625 36.3299L225.402 35.9446C225.975 37.073 225.896 38.3115 226.824 38.8894Z" fill="#DFC59D"/>
    <path d="M229.825 36.7706L228.305 37.4861L226.843 34.9541C226.843 34.9541 227.001 34.3211 227.317 33.0275C227.778 33.7356 228.2 34.4899 228.581 35.2844C228.838 35.9724 229.746 35.7798 229.825 36.7706Z" fill="#DFC59D"/>
    <path d="M421.56 142.951C420.138 143.171 419.19 143.694 418.657 142.951L419.941 140.832C420.454 140.832 420.888 140.832 421.007 141.134C421.257 141.697 421.443 142.309 421.56 142.951Z" fill="#DFC59D"/>
    <path d="M187.232 60.5221C188.062 62.5312 186.62 62.9716 186.048 63.9899L184.685 62.1735L187.232 60.5221Z" fill="#DFC59D"/>
    <path d="M233.854 33.1375C235.35 32.4033 236.965 32.2698 238.514 32.7522C237.684 33.688 237.684 33.688 233.854 33.1375Z" fill="#DFC59D"/>
    <path d="M229.786 36.0273V34.0182L231.543 33.4402L231.76 35.8071L229.786 35.9998" fill="#DFC59D"/>
    <path d="M415.636 143.942L413.661 145.373C413.661 144.905 413.523 144.272 413.464 143.721C413.771 143.366 414.164 143.19 414.562 143.232C414.96 143.273 415.331 143.527 415.597 143.942" fill="#DFC59D"/>
    <path d="M29.5995 168.464L27.6249 169.042C27.6249 168.161 27.4867 167.528 27.4077 166.785C28.2321 167.022 28.9837 167.609 29.56 168.464" fill="#DFC59D"/>
    <path d="M10.5447 117.795C10.7422 116.502 10.8409 115.841 10.9989 115.043C11.5913 115.979 12.3614 116.309 12.4996 117.41L10.525 117.85" fill="#DFC59D"/>
    <path d="M127.639 217.838C127.212 217.713 126.811 217.452 126.468 217.075C126.126 216.698 125.851 216.215 125.665 215.664H127.54C127.54 216.572 127.54 217.26 127.679 217.976" fill="#DFC59D"/>
    <path d="M23.4587 178.179C23.281 178.95 23.9326 179.996 22.886 180.436C22.4516 178.867 22.4516 178.867 23.4587 178.179Z" fill="#DFC59D"/>
    <path d="M131.312 225.187C131.244 225.391 131.142 225.569 131.015 225.707C130.887 225.845 130.738 225.938 130.579 225.978C130.421 226.019 130.257 226.005 130.103 225.939C129.949 225.874 129.808 225.757 129.693 225.6C130.048 224.031 130.838 225.434 131.312 225.187Z" fill="#DFC59D"/>
    <path d="M15.1059 112.924C14.395 112.126 14.395 111.355 15.1059 110.585C15.8167 111.355 15.8167 112.126 15.1059 112.924Z" fill="#DFC59D"/>
    <path d="M244.635 34.018L243.627 32.9997C244.477 32.2291 244.417 32.9997 244.635 34.018Z" fill="#DFC59D"/>
    <path d="M213.357 42.8527L212.488 44.0361C211.837 43.0178 212.488 43.1004 213.357 42.8527Z" fill="#DFC59D"/>
    <path d="M284.66 43.7335L284.304 44.1463C284.184 43.8923 284.078 43.6254 283.988 43.3482C283.988 43.3482 284.206 43.1005 284.304 42.9628L284.66 43.7335Z" fill="#DFC59D"/>
    <path d="M210.77 45.027L210.119 44.6142C210.237 44.4766 210.375 44.2289 210.454 44.2564C210.682 44.3346 210.901 44.4549 211.106 44.6142L210.77 45.027Z" fill="#DFC59D"/>
    <path d="M287.859 45.6326L286.852 44.6143C287.701 43.8162 287.642 44.6143 287.859 45.6326Z" fill="#DFC59D"/>
    <path d="M287.642 45.027L288.629 46.0453C287.78 46.8434 287.859 46.0453 287.642 45.027Z" fill="#DFC59D"/>
    <path d="M290.544 47.2289L290.248 47.7793C290.121 47.5316 290.015 47.2637 289.932 46.9812C289.932 46.9812 290.13 46.7335 290.248 46.5959L290.584 47.3665" fill="#DFC59D"/>
    <path d="M380.449 48.9625L381.08 49.3754C380.962 49.513 380.844 49.7607 380.765 49.7331C380.531 49.6551 380.305 49.5348 380.093 49.3754C380.217 49.2475 380.336 49.1097 380.449 48.9625Z" fill="#DFC59D"/>
    <path d="M381.574 52.293C381.696 52.5413 381.795 52.8093 381.87 53.0912C381.87 53.0912 381.673 53.3389 381.574 53.4765C381.446 53.2288 381.34 52.9609 381.258 52.6783C381.258 52.6783 381.456 52.4306 381.574 52.293Z" fill="#DFC59D"/>
    <path d="M486.347 89.0625C486.465 88.8423 486.584 88.5671 486.702 88.3194C486.821 88.0717 487.018 88.6222 486.998 88.7047C486.923 88.9866 486.824 89.2546 486.702 89.5029L486.347 89.0625Z" fill="#DFC59D"/>
    <path d="M489.684 96.6034C489.815 96.8377 489.922 97.0972 490 97.374C490 97.374 489.803 97.6217 489.684 97.7593C489.553 97.525 489.446 97.2655 489.368 96.9887C489.368 96.9887 489.566 96.7135 489.684 96.6034Z" fill="#DFC59D"/>
    <path d="M37.3598 98.1725L37.6955 97.7596C37.8269 97.9939 37.9333 98.2535 38.0114 98.5303C38.0114 98.5303 37.814 98.8055 37.6955 98.9156C37.577 99.0257 37.4585 98.4202 37.3598 98.1725Z" fill="#DFC59D"/>
    <path d="M21.3458 108.989L21.0101 109.429C20.8825 109.181 20.7764 108.913 20.6941 108.631C20.6941 108.631 20.8916 108.383 21.0101 108.246C21.1285 108.108 21.2273 108.768 21.3458 108.989Z" fill="#DFC59D"/>
    <path d="M9.41918 110.722C9.83385 110.172 10.0511 109.841 10.288 109.511C10.9594 110.557 10.288 110.447 9.41918 110.722Z" fill="#DFC59D"/>
    <path d="M11.0385 122.419L11.6704 122.832C11.5519 122.832 11.4334 123.218 11.3347 123.19C11.1111 123.095 10.8932 122.975 10.6831 122.832L11.0385 122.419Z" fill="#DFC59D"/>
    <path d="M23.3399 145.235L24.347 146.254C23.4979 147.024 23.5571 146.254 23.3399 145.235Z" fill="#DFC59D"/>
    <path d="M270.166 162.189L269.159 161.17C270.028 160.4 269.949 161.17 270.166 162.189Z" fill="#DFC59D"/>
    <path d="M30.3301 167.693H29.3428C29.3428 167.143 29.3428 166.62 29.9944 166.785C30.1721 166.785 30.2313 167.39 30.3301 167.693Z" fill="#DFC59D"/>
    <path d="M21.3459 182.115C21.2275 182.335 21.1287 182.61 21.0103 182.858C20.8918 183.106 20.6746 182.555 20.6943 182.473C20.7724 182.196 20.8788 181.936 21.0103 181.702L21.3459 182.115Z" fill="#DFC59D"/>
    <path d="M257.174 181.372L258.181 182.39C257.312 183.161 257.391 182.39 257.174 181.372Z" fill="#DFC59D"/>
    <path d="M141.461 184.344L140.454 183.326C141.323 182.528 141.244 183.326 141.461 184.344Z" fill="#DFC59D"/>
    <path d="M137.769 189.683L137.433 189.271C137.638 189.111 137.857 188.991 138.085 188.913C138.085 188.913 138.302 189.133 138.401 189.271L137.769 189.683Z" fill="#DFC59D"/>
    <path d="M133.504 189.848C133.978 189.848 134.412 189.849 134.274 190.619C134.274 190.812 133.76 190.894 133.504 191.004V189.848Z" fill="#DFC59D"/>
    <path d="M19.3909 192.931L19.0354 193.344C18.9113 193.103 18.8054 192.844 18.7195 192.573C18.7195 192.573 18.9367 192.298 19.0354 192.188L19.3909 192.931Z" fill="#DFC59D"/>
    <path d="M135.735 197.885L134.886 199.068C134.215 198.05 134.886 198.133 135.735 197.885Z" fill="#DFC59D"/>
    <path d="M123.532 213.903L123.176 214.316C123.051 214.081 122.951 213.821 122.88 213.545C122.88 213.545 123.078 213.297 123.176 213.16C123.275 213.022 123.413 213.683 123.532 213.903Z" fill="#DFC59D"/>
    <path d="M275.814 43.7335L275.458 44.1463C275.337 43.8981 275.237 43.63 275.162 43.3482C275.162 43.3482 275.36 43.1005 275.458 42.9628L275.814 43.7335Z" fill="#DFC59D"/>
</svg>
