<svg width="62" height="38" viewBox="0 0 62 38" fill="none" xmlns="http://www.w3.org/2000/svg">
    <path d="M0.282477 0L0 6.32392C0.395467 5.13819 0.84743 4.12184 1.35589 3.38782C2.20332 2.20208 3.38972 1.29866 4.91509 0.790494C5.9885 0.45171 7.34439 0.169392 8.92626 0H0.282477ZM17.909 35.6285C17.7395 35.0639 17.57 34.3299 17.57 33.37V0H13.0504V33.37C13.0504 34.3299 12.9374 35.0639 12.7679 35.6285C12.542 36.3061 11.9205 36.7578 11.2426 37.0966C11.0166 37.2095 10.7341 37.3224 10.3951 37.3789H20.2253C19.9428 37.3224 19.6604 37.2095 19.3779 37.0966C18.6435 36.8143 18.135 36.3061 17.909 35.6285ZM30.338 11.9868V0H21.6942C23.2761 0.169392 24.632 0.45171 25.7054 0.790494C27.2307 1.29866 28.4736 2.14562 29.2646 3.38782C30.338 5.07365 29.999 10.8575 30.338 11.9868Z" fill="#392E18"/>
    <path d="M55.6726 0L56.8026 0.508173C57.5935 0.903416 57.989 1.69391 58.2714 2.65379C58.5539 3.5572 58.6104 4.74294 58.6104 6.26746L58.7799 23.1501C58.8364 27.4978 57.763 30.9421 55.6161 33.4265C53.4128 35.9673 50.4186 37.2095 46.8029 37.2095C44.4866 37.2095 42.3962 36.7013 40.5884 35.685C38.7805 34.6686 37.3117 33.0877 36.2948 30.9421C35.2778 28.8529 34.7694 26.1426 34.7694 22.9242V3.67013C34.7694 2.82318 34.8259 2.14562 35.0519 1.58098C35.2778 1.01634 35.7863 0.508173 36.5207 0.282319L37.1987 0H27.877C28.1029 0.112926 28.3289 0.169389 28.5549 0.225856C29.2893 0.395244 29.6848 0.959882 29.9108 1.52452C30.0803 1.97622 30.2498 2.65379 30.2498 3.50074V22.9242C30.2498 25.6909 30.6452 28.0059 31.4362 29.9257C32.2271 31.8455 33.357 33.37 34.7129 34.5557C36.0688 35.7415 37.5941 36.5884 39.3455 37.153C41.0969 37.7177 42.9047 38 44.7691 38C47.8763 38 50.4751 37.3789 52.5654 36.1367C54.5992 34.951 56.2376 33.2571 57.311 31.1114C58.3844 28.9094 58.8929 26.312 58.9494 23.3759L59.1754 6.26746C59.1754 4.68648 59.3448 3.50074 59.5143 2.65379C59.6838 1.69391 60.2488 0.903416 60.9267 0.508173C61.2092 0.338781 61.5482 0.169389 62.0001 0H55.6726Z" fill="#392E18"/>
    <ellipse cx="46.6776" cy="19.1141" rx="2.91735" ry="2.91571" fill="#DFC59D"/>
</svg>
