<svg width="71" height="62" viewBox="0 0 71 62" fill="none" xmlns="http://www.w3.org/2000/svg">
    <path d="M65.32 0L71 6.94737C56.6247 18.6667 49.437 28.4561 49.437 36.3158C49.437 37.2281 49.5072 38.3509 49.6474 39.6842C50.9096 39.1228 52.1017 38.7368 53.2237 38.5263C54.3457 38.2456 55.3975 38.1053 56.3793 38.1053C59.6751 38.1053 62.3397 39.193 64.3733 41.3684C66.4069 43.5439 67.4237 46.3158 67.4237 49.6842C67.4237 52.9825 66.1965 55.8597 63.7422 58.3158C61.2879 60.7719 58.3427 62 54.9067 62C50.2084 62 46.1412 60.1053 42.7052 56.3158C39.2691 52.4561 37.5511 47.5088 37.5511 41.4737C37.5511 37.5439 38.3575 33.4386 39.9704 29.1579C41.5832 24.807 43.9323 20.807 47.0178 17.1579C50.1032 13.4386 56.204 7.7193 65.32 0ZM27.7689 0L33.4489 6.94737C19.0736 18.6667 11.8859 28.4561 11.8859 36.3158C11.8859 37.2281 11.956 38.3509 12.0963 39.6842C13.3585 39.1228 14.5506 38.7368 15.6726 38.5263C16.7946 38.2456 17.8464 38.1053 18.8281 38.1053C22.124 38.1053 24.7886 39.193 26.8222 41.3684C28.9259 43.5439 29.9778 46.3158 29.9778 49.6842C29.9778 52.9825 28.7156 55.8597 26.1911 58.3158C23.7368 60.7719 20.7916 62 17.3556 62C12.6573 62 8.59012 60.1053 5.15407 56.3158C1.71802 52.4561 0 47.5088 0 41.4737C0 37.5439 0.80642 33.4386 2.41926 29.1579C4.0321 24.807 6.38123 20.807 9.46667 17.1579C12.5521 13.4386 18.6528 7.7193 27.7689 0Z" fill="#F3ECE0"/>
</svg>
