<svg width="422" height="244" viewBox="0 0 422 244" fill="none" xmlns="http://www.w3.org/2000/svg">
    <path d="M386.022 100.9C386.191 101.206 386.382 101.812 386.507 101.795C387.879 101.603 389.251 101.412 390.664 101.214L391.301 100.162L394.066 99.7761L394.98 98.4323L398.722 97.9095L399.601 96.6213L402.428 96.2263L404.033 97.6995C404.085 98.0722 404.137 98.445 404.189 98.8177C403.525 100.279 402.166 99.5057 401.265 99.8849L398.879 102.068C399.659 102.947 400.431 102.104 401.481 102.49L403.727 104.456L405.757 102.906L408.313 102.548C409.015 101.961 409.758 101.442 410.534 100.997C411.116 100.763 411.781 100.822 412.151 100.137C412.214 99.9668 412.307 99.8158 412.424 99.6947C412.542 99.5735 412.681 99.4849 412.832 99.4349C412.984 99.3849 413.145 99.3747 413.303 99.4048C413.462 99.435 413.615 99.5048 413.752 99.6097C413.963 99.8875 414.091 100.238 414.116 100.604C414.14 100.969 414.058 101.327 413.884 101.618C413.327 103.089 411.698 102.962 411.196 104.527L408.39 104.919C407.982 106.243 407.015 106.302 405.57 106.428C405.221 107.414 404.729 108.749 404.262 110.107C403.995 109.865 404.137 110.124 404.262 110.107C405.197 109.976 406.154 109.843 407.151 109.703L408.374 108.139L410.065 109.321L411.769 109.083L413.519 107.192L415.196 109.491C416.88 109.56 417.992 109.632 418.56 108.084C419.474 107.956 420.41 107.825 421.366 107.692C421.366 107.692 421.626 107.883 421.771 108.015C421.758 108.98 421.127 109.473 420.657 110.198L418.869 110.447C418.45 111.089 418.09 111.696 417.712 112.332L421.119 115.479C420.156 116.17 419.269 116.497 418.777 117.528L415.763 117.95C415.715 118.514 415.68 119.025 415.608 119.719L411.535 123.177L408.167 123.647L407.232 124.994L405.403 125.25L404.506 126.566L399.787 127.225C399.375 128.524 398.423 128.53 397.48 128.763C396.538 128.996 396.306 130.371 395.191 130.274C394.719 130.218 394.249 130.298 393.82 130.508C393.392 130.718 393.018 131.051 392.731 131.479C392.212 132.16 390.957 131.98 389.89 132.231L389.035 133.389L384.4 134.036L383.506 135.377L381.635 135.639L380.763 136.977L378.933 137.232L377.998 138.579L374.298 139.096L373.536 140.317L371.894 140.547L369.615 141.068C369.224 142.972 367.193 141.634 366.58 143.164C366.158 144.236 365.129 143.544 364.214 144.28L363.546 145.26L360.74 145.652L359.867 146.99L358.059 147.243L357.051 148.676C354.816 147.848 353.604 150.551 351.574 150.733C351.221 150.782 350.975 151.602 350.59 151.732C349.791 151.92 348.978 152.034 348.158 152.072L347.254 153.338L344.469 153.727C344.175 154.199 343.873 154.621 343.576 155.068L341.725 155.326C341.431 155.798 341.13 156.22 340.832 156.667L338.047 157.057C337.822 157.417 337.662 157.946 337.454 157.975C335.604 158.234 334.451 160.447 332.445 160.195C332.175 160.233 331.676 160.303 331.621 160.513C331.167 162.426 329.126 161.014 328.562 162.587C328.485 162.768 328.387 162.935 328.271 163.084L325.465 163.476L324.592 164.814L321.765 165.209C321.554 165.517 321.384 165.82 321.038 166.375L318.987 166.864L318.118 168.075C317.469 168.229 316.809 168.321 316.143 168.351C315.156 168.261 315.038 169.544 314.228 169.809C313.417 170.074 312.814 170.007 312.503 170.354C312.004 171.024 311.313 171.452 310.552 171.564C309.901 171.894 309.306 172.354 308.793 172.925L306.361 173.264L305.467 174.605L302.931 174.96L302.072 176.245L299.474 176.608C299.252 176.842 298.923 177.217 298.418 177.845L295.591 178.392L294.832 179.638L290.072 180.303L289.349 181.494L279.807 182.827L277.565 180.885L276.994 181.801C276.742 181.979 276.468 182.112 276.18 182.194L268.073 183.326C267.258 182.047 266.292 182.41 265.02 182.562L262.206 179.712L261.72 176.234L260.189 176.042L256.439 172.563L255.953 169.084C257.983 167.23 257.355 163.948 258.837 161.512L257.018 161.234C256.955 160.786 256.695 160.291 256.421 159.544C256.172 159.579 255.6 159.126 255.33 159.316C254.578 159.852 254.09 160.756 253.023 160.855C252.378 160.945 251.821 161.808 251.09 162.189C250.627 162.343 250.143 162.41 249.656 162.389L248.78 163.702L246.909 163.964C246.604 165.425 244.948 165.099 244.508 166.351C244.367 166.7 243.694 166.744 243.261 166.829C242.035 167.001 241.454 169.058 240.016 168.474C239.378 169.981 237.944 169.726 236.915 170.402C236.645 170.439 236.531 170.987 236.323 171.32L234.639 171.556L233.767 172.894L231.875 173.158L231.169 174.321L229.114 174.785L228.3 175.937L225.38 176.574C224.941 178.586 222.511 176.974 222.076 179.163L215.507 180.081L212.111 178.377C211.993 178.596 211.799 178.876 211.609 179.182C211.418 179.487 211.405 179.54 211.28 179.557L202.841 180.736C202.05 179.479 201.08 179.817 199.687 180.011L196.842 176.026L196.495 173.541L194.807 173.295C194.095 172.671 193.413 171.996 192.766 171.275C192.113 170.315 191.512 169.307 190.967 168.258L190.655 166.022L192.331 163.913L191.967 162.52C191.699 162.357 191.412 162.252 191.118 162.208C190.371 162.254 189.672 162.602 189.136 163.194C187.913 164.12 186.738 165.13 185.617 166.219C184.003 166.191 183.023 167.823 181.564 168.306C180.235 169.019 179.003 169.949 177.903 171.072L176.469 171.272L175.596 172.61L173.746 172.869L173.071 173.951L170.535 174.305C169.49 175.668 168.188 176.716 166.724 177.371C165.311 177.569 164.785 180.176 163.108 178.941L162.131 180.445L160.51 180.672L157.445 183.456L155.137 183.779C154.282 184.719 153.369 185.583 152.404 186.365C151.535 186.967 150.152 186.476 149.675 188.063L147.804 188.325L146.931 189.663L145.04 189.927L144.351 191.062L140.547 191.593L139.736 192.923L136.767 193.515L136.113 194.594L131.166 195.286L130.216 194.405L126.391 194.939C126.184 195.272 125.882 195.695 125.581 196.117L124.455 195.185L123.883 196.101C123.639 196.282 123.373 196.422 123.093 196.515C121.015 196.805 118.936 197.096 117.045 197.36C116.656 196.999 116.209 196.741 115.735 196.606C115.262 196.47 114.774 196.461 114.307 196.577C112.544 196.393 112.131 194.348 111.424 193.079C110.586 191.691 109.57 190.464 108.415 189.445C106.125 189.284 104.995 186.807 103.29 185.829C103.092 184.413 102.603 183.189 103.684 182.278L103.028 177.581C102.626 176.979 102.546 177.319 102.217 177.543C100.281 178.852 99.1138 181.27 97.1394 182.61C95.3097 183.73 93.6255 185.141 92.1308 186.806C90.4401 186.687 90.6696 189.695 88.9616 189.605C87.1572 191.858 84.4898 192.94 82.6438 195.2C80.9357 195.109 81.1618 198.092 79.4745 197.999C78.1897 199.723 76.2358 200.453 74.951 202.177C73.2325 202.012 73.4482 204.921 71.7817 204.976C70.961 206.231 69.4159 206.548 68.7892 208.131C68.4915 208.882 67.7674 208.856 67.331 209.221C66.0323 210.433 64.7994 211.738 63.6389 213.132C62.4405 214.414 60.8123 215.047 59.919 216.844C59.6524 217.362 58.859 217.448 58.4607 217.934C57.3178 219.31 55.5475 219.684 54.5952 221.362C53.643 223.041 51.7272 223.435 50.8511 224.9C49.975 226.366 47.9761 227.076 47.1937 229.06L41.0455 234.048L34.364 239.77L30.9757 240.243L29.8217 239.265L27.9717 239.523L27.0956 240.836L22.377 241.496L21.7052 242.603L17.6725 243.166L15.5199 239.287L12.9245 238.003L10.8284 238.169L9.78683 230.714L10.4066 229.386L9.93787 226.031L8.98132 224.949L8.66189 222.663L9.40637 221.317C9.30916 220.622 8.89306 219.464 9.10431 219.155C10.0256 218.013 9.52265 216.234 10.5132 215.133C11.1434 214.344 11.6389 213.416 11.9744 212.395C12.3937 211.053 12.7393 209.676 13.0091 208.273C13.5528 207.463 14.5952 205.822 15.6375 204.182C15.3146 201.871 17.7153 201.003 17.1638 198.724L18.494 198.082C18.6114 196.647 19.4564 195.415 19.2931 193.943C20.6023 192.544 20.6051 190.288 21.6301 188.676C22.4203 187.783 22.8973 186.564 22.9734 185.245C22.9384 184.085 24.3136 183.462 24.4136 181.903C24.5136 180.343 25.5494 179.717 25.743 178.525C26.149 176.919 26.8862 175.477 27.8898 174.323C28.6102 173.26 28.5266 171.903 29.0772 170.838L30.0333 170.705L38.6525 156.555L39.5879 156.424C39.8607 154.997 40.3998 153.676 41.1666 152.555C43.7188 148.525 46.1948 144.404 48.4353 140.722C48.5874 139.687 48.66 139.145 48.7396 138.652L49.6957 138.519C50.3856 137.066 51.2691 135.763 52.3138 134.657C53.39 133.698 54.2865 132.488 54.9528 131.096C54.8903 130.649 54.8382 130.276 54.6302 129.849C53.66 129.275 53.7679 130.957 52.9294 131.024C52.091 131.09 51.3084 132.314 50.1894 132.648C49.0821 133.147 48.1055 133.961 47.3422 135.022C46.6496 135.828 45.1145 135.156 44.6542 136.715C42.2637 137.049 40.7642 139.209 38.8279 140.519C36.8915 141.828 35.2464 143.552 33.4521 144.969C32.8425 145.459 32.2537 145.947 31.6718 146.484C31.5623 146.609 31.4752 146.758 31.4155 146.925L28.6301 147.314L28.0587 148.23C27.934 148.248 27.8717 148.56 27.747 148.578L21.2408 149.487C19.343 152.286 15.9997 152.322 14.192 155.159L12.342 155.417C7.5351 150.591 7.5351 150.591 4.62477 150.39L3.45688 149.312C3.43605 149.162 3.18309 149.02 3.16225 148.871L2.54423 144.448L3.25066 143.285L2.7993 140.055C3.85202 138.337 3.31413 135.397 5.71498 134.986C6.69822 132.619 9.19254 131.967 10.0578 128.907C10.0578 128.907 9.97791 128.335 10.1232 127.707L11.3634 127.179L13.597 123.599C14.3245 123.497 15.26 123.366 14.7396 121.311L13.1422 120.344C12.4143 120.851 11.7303 121.438 11.0986 122.098C10.4649 122.971 9.88629 123.898 9.36711 124.874C9.38794 125.023 9.21479 125.301 9.09007 125.318C7.13612 125.591 7.15407 127.691 6.59328 129.29L5.67866 129.417L2.21572 134.968C2.29558 135.54 2.39974 136.285 2.46251 137.645L1.24344 139.234C0.432531 138.587 0.789059 137.498 0.490827 136.577L1.24916 135.179L0.940146 132.968L1.76084 131.561L1.44835 129.324C2.02984 127.419 3.75509 127.026 4.69356 125.552C5.63203 124.078 6.88956 123.675 7.52659 122.167C8.39503 120.698 9.45977 119.412 10.6817 118.357C11.6373 117.053 12.5054 115.662 13.2789 114.193L15.8149 113.839C17.0862 113.079 17.1099 111.125 18.6689 110.907C19.6043 110.776 19.6209 108.62 20.8924 108.316C22.1638 108.012 22.0592 105.746 23.58 105.407C24.1621 105.326 24.5081 104.011 25.0796 103.399C25.5504 103.001 26.0458 102.644 26.5621 102.33C27.2369 101.634 28.0955 101.23 29.0078 101.178C29.7801 100.335 29.946 98.944 31.2139 98.4628C31.9795 98.1785 32.4607 96.9206 33.1776 95.9843L34.9029 95.7433L35.7964 94.4024C36.3992 94.3182 37.3174 94.5192 37.6256 94.1468C39.0732 92.0698 41.7894 91.7916 42.5023 89.0065L43.0565 88.7264C43.6593 88.6422 44.5116 88.5231 44.7575 88.1594C45.3565 86.9863 46.8567 87.258 47.1612 85.7968L49.032 85.5354L50.2068 86.5113L51.3461 84.6547L50.2787 83.5371C52.5647 81.6976 54.8751 79.88 57.13 77.9689C57.5828 77.4361 57.9685 76.828 58.2762 76.162C58.9829 75.9112 59.8976 75.9354 60.2924 75.4243C61.3973 74.2312 62.9839 73.6041 63.4406 71.7162L65.3946 71.4432C65.6889 70.9714 65.9902 70.5493 66.4127 69.9329L68.5022 70.933C68.5263 70.3469 68.533 69.7886 68.5605 69.0754C68.924 68.1886 69.8735 68.6133 70.5802 68.3625C71.6367 67.7336 71.6049 65.5339 73.2298 65.6362C73.4438 65.0192 73.8484 64.5308 74.3642 64.2666C74.88 64.0024 75.4699 63.9814 76.0184 64.2079L77.5871 61.6325C78.564 61.496 79.9707 61.5528 80.5629 60.7861C81.2222 60.0277 82.1014 59.5901 83.0397 59.5533C84.0166 58.9608 84.0819 57.3049 85.2459 56.8382C85.9099 56.4193 86.5527 55.9574 87.1718 55.4544C87.6096 55.3173 88.0643 55.2538 88.5229 55.2656L89.9739 52.9095C90.7913 52.2379 92.2952 52.9905 92.7069 51.2355L95.6379 50.826L96.8543 51.7961C97.2974 50.7208 97.7163 49.6236 98.2494 48.2823C100.013 47.6718 101.578 46.4892 102.773 44.8635C103.246 44.0515 103.867 43.3809 104.594 42.8986C105.321 42.4162 106.136 42.1339 106.982 42.0713L107.841 40.7859L109.711 40.5245L110.47 39.1265C113.016 39.3027 114.03 35.7915 116.871 35.9519L117.855 33.4331C119.331 33.2269 120.474 33.2191 120.99 31.7537C122.539 31.1264 123.923 30.0649 125.028 28.6559C126.31 27.3621 128.164 27.4325 129.234 25.8389C129.757 25.2798 130.337 24.7991 130.962 24.4066L134.35 23.9332L135.209 22.6478L136.387 23.6486L137.409 23.3791C137.51 22.7318 137.624 22.0318 137.741 21.2046L140.485 20.8213L141.583 19.5785L142.671 20.3891L143.433 19.32C144.04 20.3246 144.667 21.3263 145.346 22.3968C146.026 23.4673 143.518 24.4764 145.254 25.9819L146.158 24.8676L148.652 24.519L151.756 21.552L155.913 20.9711L159.458 22.6799L169.145 21.3265L169.764 20.3025L172.716 19.89L173.988 20.9537C174.445 21.7682 174.662 22.73 174.602 23.6801L173.923 25.1936L175.105 25.6112L177.006 22.9895L178.406 24.0606L180.128 22.4267C181.084 22.1411 181.514 23.2464 182.432 23.7514C182.519 24.3727 182.623 25.1182 182.779 26.2364C182.333 26.9828 181.532 27.7787 181.311 28.7723C181.09 29.766 181.163 30.5918 180.556 31.2592C181.738 32.5888 182.968 30.9223 184.167 31.6162L185.016 32.3842L185.885 31.1734L190.562 30.5199C191.224 31.4661 192.239 31.299 193.088 31.763C193.989 33.0559 192.555 33.7123 192.666 34.8115C192.778 35.9106 193.46 35.942 193.838 36.5225C194.216 37.1031 194.126 37.673 194.448 38.008C194.725 38.2098 194.949 38.5021 195.092 38.8476C195.235 39.1932 195.289 39.5763 195.249 39.9482C193.344 41.4811 193.344 41.4811 192.524 44.4079L191.567 44.5415C191.076 45.8769 189.735 46.5962 189.836 48.2289C189.261 48.5119 188.485 48.4177 189.286 49.4459C189.501 49.0629 189.685 48.6555 189.836 48.2289C190.306 48.2087 190.772 48.1436 191.229 48.0343C191.589 46.0586 193.307 45.6158 194.332 44.3072C194.692 43.8515 195.486 43.918 196.504 43.6237L197.117 41.334L199.736 40.968L200.629 39.6271L203.436 39.235L204.842 36.8598L206.879 36.2712L207.519 35.2443L210.554 34.8203C210.866 34.0167 211.274 32.9969 211.537 32.1494L213.803 31.8328L214.696 30.4919L216.609 30.2247L217.066 29.4008C218.029 28.4049 219.29 29.0901 220.451 28.2946C221.036 27.6301 221.222 26.2359 222.47 25.7577C223.235 25.4734 223.716 24.2154 224.433 23.2792L227.094 22.9074L227.987 21.5665L231.085 21.1338C231.445 20.3741 231.898 19.3733 232.296 18.431L234.375 18.1406C234.6 17.7798 234.77 17.4774 235.033 17.0859L236.617 17.954L240.011 14.9463L242.609 14.5832C243.156 12.5814 244.83 11.9676 246.031 10.7103L246.811 11.4374L248.47 9.96416L248.851 10.4176L250.991 6.3184L252.862 6.05701C253.815 5.13855 254.323 3.47138 255.439 2.20083L258.993 1.70418L260.171 0.272918C260.688 0.313731 261.193 0.515959 261.636 0.859059C262.078 1.20216 262.442 1.67391 262.69 2.22636L261.894 4.87105L263.169 6.4156L262.044 8.2196L259.965 8.51004C259.886 9.15451 259.789 9.82674 259.658 10.7065L258.286 11.3542C258.341 11.7518 258.245 12.424 258.217 12.9852C259.565 13.8356 260.573 12.8587 261.748 13.2266C261.862 12.3746 261.976 11.6747 262.086 10.6458L264.141 10.1814L265.433 8.8102C266.576 8.95446 267.235 10.4838 268.232 9.43242C268.724 8.55301 268.083 7.60388 268.228 6.36754C269.516 5.91794 270.852 5.65469 272.208 5.58335C272.825 5.14251 272.963 3.85647 274.127 4.14983L275.285 5.1535L277.156 4.8921L278.933 6.54379C278.698 7.59006 278.459 8.76347 278.193 9.89008C278.633 10.1579 278.987 10.5646 279.143 10.4668C280.263 9.63587 281.475 8.9814 282.749 8.51887C282.977 8.48692 283.112 7.93603 283.32 7.60299L285.232 7.33578L286.386 8.3146L288.236 8.05611L289.609 9.23243L291.521 7.74922L294.036 7.39778L295.644 8.74386L295.925 10.7567L294.714 14.9795C296.031 16.2142 296.283 14.5322 296.955 13.8809L299.72 13.4947L300.395 12.4123L302.474 12.1218L304.04 13.4737L304.314 15.4368C303.667 17.934 303.096 20.0659 302.484 22.3556L303.946 22.506C304.351 23.1334 304.792 23.8572 305.27 24.5505C305.27 24.5505 305.582 24.5069 305.748 24.4837C306.732 24.0928 306.766 22.6693 307.788 22.0959L308.782 22.8436L310.57 22.5938L311.797 23.6385L313.876 23.348C313.959 23.9444 314.24 24.5892 314.427 25.1711L312.477 26.381L314.722 27.2833L313.964 28.6813L314.276 30.9178L316.103 33.9814L317 32.6653L317.822 34.2986L316.02 35.665L314.112 37.1731C314.164 37.5458 314.219 37.9434 314.313 38.6144L311.56 42.8752C309.835 43.1163 309.766 45.2033 308.651 46.1699C307.332 47.5273 305.893 48.7131 304.356 49.7088C303.531 50.1787 303.272 51.659 302.101 51.3159L300.345 53.9174C299.846 53.9232 299.351 53.9924 298.869 54.1236C298.024 54.4444 297.647 55.5358 296.694 55.8463C296.067 56.0605 295.728 57.2733 295.26 58.0227C293.723 58.2974 292.348 59.2272 291.388 60.6412C291.533 60.7729 291.668 60.982 291.793 60.9646L296.179 60.3518C297.042 59.7734 297.84 59.0752 298.559 58.2712C299.161 57.427 300.159 57.4396 300.717 56.4243C301.256 55.5981 302.014 55.0127 302.878 54.7542C303.765 54.4276 304.77 54.4899 305.185 53.2158L307.056 52.9544C307.721 53.9255 308.75 53.7057 309.603 54.1946L310.137 58.0215L308.457 59.0416C308.748 59.3049 308.991 59.6764 309.202 59.6722C309.805 59.5879 310.73 59.6867 310.966 59.2485C311.568 58.1002 312.517 58.2209 313.38 57.8724C314.009 57.4747 314.566 56.942 315.025 56.2998L316.484 57.4893L319.249 57.1031L321.657 59.1733L326.376 58.514L327.981 59.9872L326.478 62.7307C327.635 63.5824 328.598 62.7384 329.728 62.7833C330.292 62.4257 330.288 61.3369 331.106 61.4253C331.276 61.7309 331.425 62.0394 331.664 62.538L336.57 61.8526C337.381 62.8034 337.163 63.8219 337.444 65.2267L335.858 67.8297C336.014 68.0359 336.368 68.8986 336.53 68.8505C337.403 68.5765 338.003 69.2274 338.564 69.757L339.648 68.2628L343.935 70.4254C343.516 71.9787 343.16 73.3712 342.803 74.7637L344.785 75.2975L341.54 80.5898C343.051 82.0001 343.269 80.2216 343.879 79.7311L350.53 78.8017L352.717 80.8016L357.498 80.1336C359.446 81.7869 356.473 82.8102 357.835 84.52L358.989 84.7388L359.897 83.3453L360.87 84.2479L365.589 83.5887C366.698 84.3964 366.345 85.5098 366.643 86.4309L365.099 89.1801L366.703 90.6533L367.51 89.4512C368.428 88.8923 368.99 90.1819 369.731 90.1796C370.473 90.1773 371.121 90.4162 371.377 91.647C371.461 92.2434 372.244 92.8433 372.812 93.1186C373.807 93.5576 374.82 93.9236 375.847 94.2146L376.824 92.8621L379.568 92.4787L380.465 91.1627C381.504 91.0174 382.488 90.4746 383.673 91.0691C383.452 92.0627 383.227 93.0316 382.957 94.1333L381.675 94.6671C381.734 95.0895 381.599 95.6404 381.554 96.3814C380.661 97.5703 379.594 97.5167 378.11 96.0012C377.743 97.0152 377.373 98.0043 377.148 98.6691L375.776 98.8608L374.896 100.149L372.09 100.541L371.04 99.6999L368.914 102.834C369.118 103.389 369.316 103.893 369.559 104.568L371.29 101.793L373.14 101.535L374.312 102.486L375.001 101.351L377.952 100.786L378.711 99.5402L382.515 99.0087L383.259 97.8152L386.024 97.4289L386.938 96.0852L388.809 95.8238L390.06 96.8904C390.167 96.1407 390.261 95.4436 390.35 94.7217C391.268 93.8587 392.429 94.4312 393.354 93.922L395.076 95.4801C394.273 97.0111 392.686 95.8141 391.768 96.677C391.529 97.0905 391.339 97.3957 391.093 97.7594L388.474 98.1254C387.434 98.8786 387.328 100.54 386.16 100.982C385.432 99.8678 385.432 99.8678 384.258 100.564C384.785 101.757 385.53 100.868 386.16 100.982L386.022 100.9ZM42.446 97.8562C42.7789 98.7217 42.8207 99.6279 43.5411 98.7166C43.2569 98.5029 42.9485 98.2673 42.7441 98.4732C42.4113 97.6077 42.3487 96.7044 41.6248 97.5909C41.9332 97.8265 42.2209 98.065 42.446 97.8562ZM275.477 10.1683C274.885 10.479 273.925 9.82778 273.741 11.0948C275.082 11.4395 275.082 11.4395 275.227 10.3551C275.917 9.98011 276.679 9.97496 275.892 9.04616C275.694 9.38186 275.553 9.76271 275.477 10.1683ZM57.5165 84.5272C58.8502 84.0622 59.152 85.0081 59.7341 85.2308L60.908 83.3187L59.3242 81.6905C58.7749 82.4778 58.3699 83.3959 58.1332 84.3904L56.5534 84.6111C56.6749 85.4809 55.4693 85.6493 55.7503 86.9021L57.0599 86.8712C57.3784 85.9653 58.2721 85.5364 57.5269 84.6018L57.5165 84.5272ZM228.759 29.6671L230.173 29.4696L230.997 28.2398C231.752 27.8809 232.694 28.4079 233.19 27.4013C233.19 27.4013 233.151 27.128 232.947 26.8779L229.787 27.3194C229.517 28.1171 228.599 28.5241 229.012 29.5051C228.319 29.8553 227.581 29.8824 228.368 30.8112C228.559 30.4661 228.692 30.0779 228.759 29.6671ZM148.274 91.582C149.022 91.4775 150.027 91.6918 150.353 91.2916C151.056 90.408 152.13 90.2073 152.691 89.2168C152.999 88.6924 153.643 88.2984 153.348 87.4022C153.728 87.4248 154.103 87.3456 154.446 87.1706C154.788 86.9955 155.089 86.7291 155.326 86.3911C155.808 85.5891 156.805 85.4497 157.398 84.5309C157.99 83.6122 158.922 84.6726 159.549 83.6983L156.985 82.3339C155.61 83.8687 153.635 84.7526 153.328 87.4051C152.891 87.4661 152.257 87.3267 152.018 87.5881C150.757 88.86 149.428 90.0356 148.038 91.1083C148.038 91.1083 148.083 91.4313 148.361 91.4433C147.65 91.8212 146.909 91.8234 147.696 92.7522C147.887 92.4112 148.027 92.032 148.111 91.6301L148.274 91.582ZM121.504 38.7754L123.874 38.4443L124.73 37.1341L127.473 36.7507L129.593 33.4144L127.961 32.9584L126.673 35.8745L125.307 34.7479L124.41 36.0639L122.498 36.3311C122.197 37.2093 121.282 37.6411 121.463 38.6292C120.902 39.1636 119.911 38.4407 119.727 39.7077C120.327 40.0547 120.687 40.967 121.647 40.8583C121.55 40.1625 121.453 39.4667 121.359 38.7957L121.504 38.7754ZM10.5883 222.951C10.7546 222.928 10.9832 222.896 11.0664 222.884L13.9026 218.46C13.5524 217.47 13.9194 216.912 14.2276 216.236C14.4249 215.618 14.5335 214.961 14.5492 214.29L15.7721 213.79L16.817 209.135L18.0226 208.966C18.1229 208.319 18.2162 207.622 18.3304 206.922L19.8545 205.999L19.5073 203.515C20.2419 202.369 20.7778 201.055 21.086 199.646C21.2554 198.279 22.4572 197.174 23.2018 195.981L23.0421 194.838C24.1322 194.232 25.015 193.222 25.5634 191.952L25.2371 189.616C25.6353 188.978 25.9191 187.975 26.4076 187.831C27.8556 187.426 28.0874 186.203 28.475 184.73C28.9768 182.861 29.1597 180.53 30.6492 179.359C32.1739 178.158 33.4006 176.506 34.2163 174.554C34.7564 173.414 35.9691 173.752 36.343 172.635L36.2353 171.865L39.9372 165.749L41.0768 165.108L40.9032 163.866L42.6802 162.477L42.5413 161.483L45.2319 156.775L46.2712 156.63C46.8667 155.28 46.4607 153.133 48.3454 152.819C48.8235 152.752 49.0693 152.236 48.8889 151.552C48.8296 151.165 48.8772 150.771 49.0246 150.43C49.172 150.09 49.4112 149.821 49.706 149.665C51.1172 148.577 52.2889 147.114 53.1347 145.385C53.5191 144.8 53.8861 143.938 54.3572 143.821C56.228 143.408 55.8081 141.313 56.4279 139.985L57.3633 139.854C57.5202 138.403 58.0802 137.078 58.9559 136.085C59.6765 135.781 60.6155 136.284 61.1107 135.277L60.9544 134.159C61.9797 133.43 62.853 132.445 63.5174 131.267C64.2479 129.822 65.2488 128.492 65.9691 127.124C66.6893 125.757 67.6732 125.67 68.345 124.715L68.1853 123.572C68.5834 122.478 70.011 122.988 70.2635 121.61C70.516 120.232 71.8222 120.328 72.3589 119.315C71.7767 118.789 71.2707 118.353 70.7682 117.941C70.0911 119.144 69.1867 120.136 68.1222 120.845C66.9652 121.513 66.1168 122.873 64.8003 123.31C64.1391 125.1 62.5699 125.699 61.5967 127.077C60.3128 129.348 58.8031 131.421 57.098 133.254C55.6027 134.925 54.3666 136.896 53.4412 139.085C52.3781 141.184 50.5318 142.227 49.3441 144.192C42.408 156.131 35.1151 167.943 27.8811 179.873C27.4171 180.647 26.7036 181.304 26.5514 182.187C26.3342 183.439 25.8993 184.613 25.274 185.633C24.6297 186.417 24.216 187.431 24.09 188.535C24.0175 189.685 22.9473 190.671 22.4245 191.782C22.2063 192.193 22.255 192.845 22.0161 193.258C20.8283 195.375 20.5762 198.121 19.1009 199.999L19.2641 201.167C18.246 202.829 17.2314 204.517 16.1925 206.182C16.4077 207.722 15.6666 208.789 14.9497 209.573C14.2328 210.357 14.2749 212.175 13.6584 212.92C12.2343 215.28 11.1713 217.93 10.5149 220.757C10.4392 221.094 10.4254 221.45 10.4745 221.802C10.5236 222.153 10.6344 222.491 10.7996 222.795C10.1102 223.17 9.36882 223.172 10.1556 224.101C10.3468 223.756 10.4796 223.368 10.5467 222.957L10.5883 222.951ZM203.186 50.9492C203.678 49.1577 205.167 48.4429 206.324 47.3186C206.844 46.79 207.821 46.9575 208.333 46.5311C209.334 45.8086 210.207 44.7746 211.111 43.9642C212.015 43.1539 213.03 42.5307 213.958 41.5903C214.887 40.6499 216.678 41.641 217.024 39.5659C218.313 39.0818 219.199 37.6912 220.328 37.1281C221.458 36.5649 222.923 35.5242 224.239 34.7829C225.001 33.5617 225.746 32.3683 226.462 31.1281C226.604 30.9309 226.577 30.5801 226.642 30.2922C226.199 30.0755 225.719 30.0112 225.26 30.1069C224.8 30.2025 224.379 30.4542 224.048 30.8321C223.742 31.2108 223.359 31.4905 222.932 31.6467C220.959 32.4064 219.202 33.7492 217.82 35.5532C216.223 37.4737 214.131 38.4247 212.721 40.3191L211.002 39.3939L210.4 40.3901L208.235 40.9713C208.117 41.7984 208.024 42.4955 207.923 43.1429L206.863 43.291L206.043 44.5458L205.013 43.7015C204.016 44.6009 203.202 45.9054 202.138 46.1806C200.566 46.6031 200.747 49.2633 198.973 49.1564L197.819 48.1776C197.13 49.6166 195.706 50.0436 194.812 51.3845C194.359 52.1623 193.748 52.789 193.032 53.2111C192.316 53.6332 191.516 53.8381 190.701 53.8084L188.699 57.9896L188.294 57.5142L184.841 60.4035L183.988 59.6106C183.125 60.2631 182.918 61.6602 181.896 62.2336C180.874 62.8071 180.029 64.0399 178.151 63.7956L175.862 67.7383L174.387 67.9445C174.068 68.6983 173.615 69.6991 173.275 70.4559L171.072 70.7637C169.41 74.0361 166.323 75.1514 164.11 77.5128L163.108 76.5633C162.911 77.4269 162.731 78.2628 162.524 79.0518L161.547 79.1883C161.273 79.9612 160.463 80.3785 160.688 81.6897C161.499 81.5765 162.483 81.6417 162.898 81.1276C164.253 79.4436 166.203 78.8417 167.308 77.1926L168.95 76.9632C170.205 74.6561 172.178 73.0483 174.468 72.468C175.156 69.661 177.924 69.4516 179.341 67.3029C179.746 66.7143 180.858 67.3949 181.482 66.5478C182.02 65.9713 182.61 65.4644 183.241 65.0352C183.904 64.6552 184.499 64.1346 184.997 63.4978C185.617 62.3218 186.809 63.1179 187.488 62.3644L188.887 60.0915C189.947 59.9433 191.115 59.9575 191.606 58.4701C191.923 58.4844 192.232 58.3966 192.502 58.2162C192.771 58.0358 192.991 57.7694 193.137 57.4455C193.542 56.7048 194.471 56.8284 195.053 55.9871C195.635 55.1458 196.435 55.414 197.225 55.1516C198.119 53.5319 199.336 52.207 200.775 51.2861L203.186 50.9492ZM293.884 9.95244C292.97 10.0802 292.162 9.91436 291.806 10.2429C290.711 11.3585 289.079 11.8145 288.588 13.7579C288.952 14.9991 288.502 16.4807 289.507 17.455L291.499 15.6314C291.695 14.97 291.863 14.2955 292.001 13.6105C292.26 12.2822 293.604 12.6517 294.086 11.6977C294.03 11.3001 293.978 10.9274 293.832 9.88371L293.884 9.95244ZM26.9905 109.795C28.1338 109.635 28.1338 109.635 28.3691 108.741C27.5929 108.191 26.8655 108.748 26.1067 108.778C25.4177 110.217 23.6508 110.312 23.2182 112.07L24.705 113.458L26.8629 111.763L26.9905 109.795ZM357.629 88.3491C357.488 88.4985 357.382 88.6886 357.32 88.9027C357.258 89.1168 357.243 89.3482 357.275 89.5766C357.307 89.805 357.385 90.0233 357.503 90.2122C357.621 90.4012 357.775 90.555 357.952 90.6601L360.03 90.3696C360.47 89.5735 360.955 88.6444 361.322 87.9344C361.952 87.593 362.822 88.0541 362.583 86.4915L359.298 86.9504L358.627 88.2097L357.629 88.3491ZM290.733 26.9869L291.679 25.5628L293.175 25.3537L295.662 23.2834C295.593 22.7864 295.371 22.2601 295.201 21.6504C294.392 22.4218 293.439 22.9615 292.412 23.2308C291.506 23.7877 290.692 24.5266 290.005 25.4166L290.733 26.9869ZM34.1182 101.503C33.5676 102.416 33.1765 103.712 32.3624 104.104C31.8561 104.288 31.4041 104.624 31.049 105.082C30.6939 105.539 30.4475 106.103 30.3329 106.718C30.811 106.652 31.3585 106.93 31.6876 106.706C32.0167 106.483 32.2554 105.462 33.0245 105.354C33.3987 105.302 33.6687 104.656 34.0324 104.377C34.3961 104.099 35.0682 103.751 35.5566 103.455C35.4871 102.958 35.4351 102.585 35.3621 102.063L34.1182 101.503ZM331.915 66.4552C329.631 65.2796 328.721 67.7122 327.096 68.3699C328.264 68.8866 329.53 68.8898 330.658 68.379L331.915 66.4552ZM147.24 28.6686C146.346 27.7294 145.508 28.4039 144.836 28.5992C144.333 29.252 143.942 29.7881 143.447 30.4906C144.117 30.7469 144.819 30.83 145.505 30.7342C146.19 30.6384 146.843 30.3661 147.417 29.9359L147.24 28.6686ZM344.361 81.9691L341.916 84.1856C342.676 84.4943 343.485 84.5312 344.24 84.2914L346.686 82.075C345.924 81.7819 345.118 81.7452 344.361 81.9691ZM20.3744 114.165C18.2169 117.38 18.2169 117.38 18.4735 117.851L19.6896 118.061L21.4797 114.492L20.2809 114.254L20.3744 114.165ZM364.123 105.708C364.858 105.96 365.211 106.215 365.409 106.111C365.774 105.86 366.116 105.566 366.43 105.234C366.665 105.044 366.91 104.875 367.165 104.726L368.197 103.923C367.512 103.554 366.748 103.499 366.056 103.766L364.206 105.696L364.123 105.708ZM171.851 22.9498C171.36 22.6066 170.799 22.4449 170.244 22.4862C169.69 22.5275 169.167 22.7698 168.747 23.1808C168.823 23.7275 169.059 24.3533 169.229 24.9629L169.998 24.8554L171.851 22.9498ZM347.368 80.8903C347.96 81.3395 348.394 82.1657 349.038 82.2277L350.264 80.5363C349.814 80.1425 349.261 79.9646 348.722 80.0399C348.183 80.1152 347.7 80.4379 347.375 80.94L347.368 80.8903ZM17.6982 120.492C17.4103 119.494 17.2543 118.984 17.0254 118.256L15.2933 118.903C15.5256 119.656 15.6817 120.166 15.8689 120.748L17.6982 120.492ZM315.227 59.1091L314.451 59.4708C314.589 59.7241 314.743 59.9652 314.912 60.1918C315.245 60.6013 315.612 60.9554 315.959 61.3123L317.968 60.5249L315.248 59.1062L315.227 59.1091ZM62.2246 83.4894C62.2899 81.6815 63.2738 81.4427 63.1487 80.3961C63.0082 80.2721 62.8481 80.1845 62.6795 80.1395C62.5109 80.0945 62.3379 80.0932 62.1724 80.1356C62.007 80.178 61.853 80.2631 61.7213 80.3851C61.5896 80.507 61.4833 80.6628 61.4096 80.8418L62.2246 83.4894ZM92.0411 60.7277C92.1844 60.5618 92.291 60.3562 92.3524 60.1275C92.4137 59.8989 92.4281 59.6536 92.3942 59.4116C92.3604 59.1696 92.2794 58.9377 92.1577 58.7346C92.0361 58.5315 91.8772 58.363 91.6939 58.2428C91.611 59.1664 90.6722 59.4242 90.7938 60.598L92.1035 60.719L92.0411 60.7277ZM277.454 74.0647C278.413 74.868 278.926 74.7457 279.56 73.9731C279.487 73.4512 279.251 72.8255 279.147 72.384L277.474 74.0618L277.454 74.0647ZM150.864 26.9969C149.907 26.3705 149.235 26.1097 149.038 27.4293C149.665 27.9751 150.199 27.8498 150.864 26.9969ZM173.7 30.8745C173.572 30.6988 173.41 30.5622 173.23 30.477C173.049 30.3919 172.856 30.3611 172.668 30.3874C172.479 30.4138 172.302 30.4964 172.151 30.6277C172.001 30.759 171.883 30.9348 171.808 31.1388C171.933 31.3208 172.095 31.4634 172.276 31.5527C172.458 31.642 172.653 31.6749 172.844 31.6483C173.034 31.6216 173.213 31.5363 173.363 31.4007C173.514 31.2651 173.629 31.0838 173.7 30.8745ZM118.11 42.5432C118.079 42.3195 118.044 42.071 118.01 41.8225C117.573 41.8835 117.133 41.7677 116.714 41.8009C116.714 41.8009 116.423 42.1456 116.454 42.2172C116.485 42.2889 116.763 42.9088 116.891 42.9162C117.315 42.8393 117.731 42.7134 118.131 42.5403L118.11 42.5432ZM84.9775 62.9561L84.3746 63.0403C84.4476 63.5621 84.375 64.1043 84.4271 64.629C84.4444 64.7533 84.7286 64.9669 84.7875 64.9334C84.8464 64.8998 85.3556 64.6006 85.3348 64.4515C85.2551 63.9346 85.1343 63.4255 84.974 62.9312L84.9775 62.9561ZM76.5087 70.4477C76.3837 70.2657 76.2225 70.1231 76.041 70.0338C75.8595 69.9445 75.6639 69.9116 75.4733 69.9382C75.2827 69.9648 75.1036 70.0501 74.9535 70.1857C74.8035 70.3214 74.6876 70.5027 74.6171 70.712C74.7452 70.8876 74.9068 71.0243 75.0872 71.1094C75.2677 71.1945 75.461 71.2253 75.6495 71.199C75.8379 71.1727 76.0154 71.0901 76.1656 70.9587C76.3158 70.8274 76.4338 70.6517 76.5087 70.4477ZM54.7527 87.6495C53.7928 86.9983 53.1449 86.7595 52.9235 88.0571C53.575 88.6248 54.0877 88.5025 54.7527 87.6495ZM40.7626 99.0034C40.6345 98.8278 40.4729 98.6911 40.2925 98.606C40.112 98.5209 39.9187 98.4901 39.7302 98.5164C39.5418 98.5427 39.3643 98.6253 39.2141 98.7567C39.0639 98.888 38.9459 99.0637 38.871 99.2677C38.996 99.4497 39.1572 99.5923 39.3387 99.6816C39.5202 99.7709 39.7158 99.8038 39.9064 99.7772C40.097 99.7506 40.2761 99.6653 40.4262 99.5297C40.5762 99.394 40.6921 99.2127 40.7626 99.0034ZM311.677 61.1506C311.802 61.3325 311.963 61.4751 312.144 61.5644C312.326 61.6537 312.521 61.6867 312.712 61.66C312.903 61.6334 313.082 61.5481 313.232 61.4125C313.382 61.2769 313.498 61.0956 313.568 60.8863C313.44 60.7106 313.278 60.5739 313.098 60.4888C312.918 60.4037 312.724 60.3729 312.536 60.3992C312.347 60.4255 312.17 60.5082 312.02 60.6395C311.869 60.7708 311.751 60.9466 311.677 61.1506ZM273.207 77.1915C273.079 77.0159 272.917 76.8792 272.737 76.7941C272.556 76.709 272.363 76.6782 272.175 76.7045C271.986 76.7308 271.809 76.8135 271.658 76.9448C271.508 77.0761 271.39 77.2518 271.315 77.4558C271.44 77.6378 271.601 77.7804 271.783 77.8697C271.964 77.959 272.16 77.9919 272.351 77.9653C272.541 77.9387 272.72 77.8534 272.87 77.7178C273.021 77.5821 273.136 77.4008 273.207 77.1915ZM131.078 29.9387L131.466 30.2898C131.559 30.0328 131.621 29.7598 131.65 29.4788C131.65 29.4788 131.428 29.2565 131.306 29.1468L131.078 29.9387ZM73.0273 72.2262L73.419 72.6021C73.5069 72.3346 73.5673 72.054 73.5989 71.7663C73.5989 71.7663 73.3771 71.5439 73.2558 71.4342L73.0273 72.2262ZM286.82 69.5131L287.212 69.8891C287.3 69.6215 287.36 69.3409 287.392 69.0532C287.392 69.0532 287.17 68.8309 287.049 68.7212C286.928 68.6114 286.89 69.2501 286.82 69.5131ZM275.355 76.1821L275.902 75.7003C275.884 75.576 275.618 75.3346 275.538 75.3711C275.327 75.5011 275.129 75.6561 274.946 75.8339L275.355 76.1821ZM143.827 96.9156L144.104 96.4715C143.879 96.3511 143.646 96.2564 143.408 96.1888C143.408 96.1888 143.255 96.4635 143.148 96.6052L143.827 96.9156ZM342.189 72.4934L341.752 71.7944C341.649 71.8089 341.462 72.139 341.493 72.2107C341.618 72.4728 341.759 72.7241 341.916 72.9623L342.189 72.4934ZM396.957 103.78L396.499 103.084C396.516 103.209 396.226 103.401 396.26 103.498C396.373 103.755 396.507 103.999 396.659 104.227L396.957 103.78Z" fill="#DFC59D"/>
</svg>
